SplineFontDB: 3.2
FontName: terriac-Bold
FullName: terriac Bold
FamilyName: terriac
Weight: Bold
Copyright: Copyright (c) 2025, TerribleAtCreating
Version: 2.1
ItalicAngle: 0
UnderlinePosition: -75
UnderlineWidth: 25
Ascent: 819
Descent: 205
InvalidEm: 0
LayerCount: 2
Layer: 0 0 "Back" 1
Layer: 1 0 "Fore" 0
HasVMetrics: 1
XUID: [1021 308 -610143922 2088]
StyleMap: 0x0020
FSType: 0
OS2Version: 0
OS2_WeightWidthSlopeOnly: 0
OS2_UseTypoMetrics: 1
CreationTime: 1738162636
ModificationTime: 1739298558
PfmFamily: 81
TTFWeight: 700
TTFWidth: 5
LineGap: 92
VLineGap: 0
OS2TypoAscent: 0
OS2TypoAOffset: 1
OS2TypoDescent: 0
OS2TypoDOffset: 1
OS2TypoLinegap: 92
OS2WinAscent: 0
OS2WinAOffset: 1
OS2WinDescent: 0
OS2WinDOffset: 1
HheadAscent: 0
HheadAOffset: 1
HheadDescent: 0
HheadDOffset: 1
OS2Vendor: 'PfEd'
MarkAttachClasses: 1
DEI: 91125

StartChar: exclam
Encoding: 33 33 0
Width: 227
Flags: HW
LayerCount: 2
Fore
SplineSet
82 -73 m 2
 46 -60 l 1
 33 -33 l 1
 20 -5 l 1
 26 19 l 2
 29 32 45 57 60 72 c 2
 89 99 l 1
 122 100 l 1
 155 101 l 1
 175 81 l 1
 195 61 l 1
 201 9 l 1
 207 -42 l 1
 178 -65 l 2
 160 -79 149 -85 133 -85 c 0
 120 -85 105 -81 82 -73 c 2
85 153 m 0
 73 158 58 174 52 188 c 2
 41 216 l 1
 43 487 l 1
 46 759 l 1
 34 779 l 1
 22 801 l 1
 34 824 l 2
 41 837 55 853 64 859 c 2
 81 870 l 1
 109 860 l 2
 124 855 146 838 158 822 c 2
 179 793 l 1
 178 492 l 1
 177 190 l 1
 160 171 l 2
 145 154 130 147 113 147 c 0
 104 147 95 149 85 153 c 0
EndSplineSet
EndChar

StartChar: quotedbl
Encoding: 34 34 1
Width: 354
Flags: HW
LayerCount: 2
Fore
SplineSet
55 451 m 2
 27 475 l 1
 30 623 l 2
 33 777 39 801 75 814 c 0
 84 817 91 819 99 819 c 0
 121 819 140 806 156 780 c 0
 166 763 175 755 175 761 c 0
 175 781 205 805 231 805 c 0
 244 805 266 795 276 784 c 2
 295 764 l 1
 306 694 l 2
 312 656 321 599 324 566 c 2
 329 508 l 1
 313 478 l 2
 301 454 282 442 260 442 c 0
 250 442 240 444 230 449 c 0
 199 463 195 476 188 569 c 0
 185 611 179 653 175 660 c 2
 168 674 l 1
 162 573 l 1
 156 472 l 1
 129 450 l 2
 112 436 102 428 92 428 c 0
 82 428 73 435 55 451 c 2
EndSplineSet
EndChar

StartChar: numbersign
Encoding: 35 35 2
Width: 852
Flags: HW
LayerCount: 2
Fore
SplineSet
444 385 m 0
 447 394 451 413 451 426 c 2
 451 451 l 1
 430 451 l 1
 411 451 l 1
 403 425 l 2
 401 418 401 410 401 402 c 0
 401 394 401 388 403 384 c 0
 407 374 415 369 423 369 c 0
 431 369 440 375 444 385 c 0
443 -19 m 0
 431 -15 416 -1 410 11 c 2
 397 34 l 1
 410 130 l 1
 423 226 l 1
 411 239 l 1
 398 251 l 1
 389 236 l 2
 384 228 379 205 379 189 c 0
 378 102 349 51 301 51 c 2
 279 51 l 1
 258 77 l 1
 238 103 l 1
 243 177 l 1
 249 251 l 1
 165 262 l 1
 82 273 l 1
 61 292 l 1
 41 310 l 1
 41 338 l 1
 41 366 l 1
 61 384 l 1
 82 402 l 1
 172 392 l 2
 221 386 261 383 262 383 c 0
 263 383 267 400 271 418 c 2
 279 451 l 1
 170 451 l 1
 61 451 l 1
 41 471 l 2
 28 484 21 500 21 515 c 0
 21 531 28 546 42 559 c 2
 64 579 l 1
 179 582 l 1
 295 586 l 1
 300 643 l 2
 303 675 306 712 306 725 c 0
 307 773 347 808 397 808 c 0
 402 808 407 808 412 807 c 2
 435 804 l 1
 448 778 l 1
 460 753 l 1
 445 691 l 2
 437 657 430 618 430 606 c 2
 430 584 l 1
 451 584 l 1
 470 584 l 1
 476 633 l 2
 493 770 518 819 567 819 c 0
 593 819 621 794 626 768 c 0
 626 766 627 764 627 760 c 0
 627 733 618 661 608 612 c 2
 603 584 l 1
 689 584 l 1
 775 584 l 1
 803 562 l 1
 829 542 l 1
 829 512 l 1
 829 482 l 1
 807 467 l 1
 784 451 l 1
 685 451 l 1
 586 451 l 1
 582 412 l 2
 580 398 579 386 579 378 c 0
 579 374 579 371 580 370 c 0
 582 368 616 363 656 359 c 2
 730 352 l 1
 749 329 l 2
 761 314 767 303 767 292 c 0
 767 279 758 266 741 249 c 2
 715 222 l 1
 635 228 l 1
 555 233 l 1
 543 133 l 2
 536 78 525 22 519 10 c 0
 509 -12 488 -23 466 -23 c 0
 458 -23 451 -22 443 -19 c 0
EndSplineSet
EndChar

StartChar: dollar
Encoding: 36 36 3
Width: 625
Flags: HW
LayerCount: 2
Fore
SplineSet
227 560 m 1
 227 658 l 1
 206 639 l 2
 176 612 156 571 156 537 c 2
 156 508 l 1
 178 484 l 2
 190 471 207 461 214 461 c 2
 227 461 l 1
 227 560 l 1
442 173 m 0
 456 183 470 202 472 214 c 2
 475 236 l 1
 441 250 l 2
 423 257 394 266 379 270 c 2
 350 276 l 1
 350 209 l 1
 350 141 l 1
 384 147 l 2
 402 151 428 163 442 173 c 0
252 -152 m 0
 240 -146 223 -128 217 -113 c 2
 206 -84 l 1
 212 -39 l 1
 219 5 l 1
 181 19 l 2
 161 26 125 51 103 73 c 2
 64 113 l 1
 64 141 l 1
 64 171 l 1
 83 187 l 2
 95 198 109 204 124 204 c 0
 142 204 160 195 178 179 c 0
 193 165 209 154 212 154 c 0
 215 154 217 189 217 233 c 2
 216 312 l 1
 153 343 l 1
 90 374 l 1
 61 417 l 1
 33 459 l 1
 27 505 l 1
 21 550 l 1
 38 608 l 1
 54 667 l 1
 91 708 l 2
 111 731 148 760 172 774 c 2
 215 799 l 1
 220 866 l 1
 225 933 l 1
 244 952 l 1
 261 973 l 1
 290 973 l 1
 319 973 l 1
 339 946 l 1
 360 920 l 1
 354 874 l 1
 348 829 l 1
 391 829 l 2
 456 829 520 810 546 782 c 2
 569 758 l 1
 560 730 l 2
 555 715 539 696 526 690 c 2
 502 678 l 1
 470 687 l 2
 453 692 421 696 399 696 c 2
 360 696 l 1
 360 592 l 2
 360 535 357 470 354 450 c 2
 348 413 l 1
 418 395 l 2
 504 373 535 357 569 317 c 0
 593 289 605 252 605 212 c 0
 605 200 604 188 602 176 c 2
 595 138 l 1
 546 91 l 1
 497 43 l 1
 424 25 l 1
 352 6 l 1
 345 -58 l 1
 339 -123 l 1
 312 -143 l 2
 295 -156 288 -162 280 -162 c 0
 273 -162 266 -159 252 -152 c 0
EndSplineSet
EndChar

StartChar: percent
Encoding: 37 37 4
Width: 770
Flags: HW
LayerCount: 2
Fore
SplineSet
568 147 m 0
 586 155 606 168 610 175 c 2
 619 187 l 1
 574 180 l 2
 549 176 518 173 505 173 c 2
 481 174 l 1
 493 154 l 2
 500 140 508 134 521 134 c 0
 532 134 547 138 568 147 c 0
464 7 m 0
 451 10 425 27 406 46 c 2
 372 81 l 1
 359 138 l 1
 347 196 l 1
 354 239 l 2
 367 322 421 384 489 399 c 0
 501 402 514 403 526 403 c 0
 581 403 633 377 649 339 c 0
 655 324 679 296 699 278 c 2
 737 244 l 1
 745 210 l 1
 751 175 l 1
 739 140 l 2
 714 65 602 3 506 3 c 0
 492 3 477 4 464 7 c 0
46 37 m 2
 20 62 l 1
 27 90 l 2
 37 129 79 196 216 389 c 0
 376 613 430 703 519 882 c 2
 594 1031 l 1
 610 1038 l 2
 619 1041 639 1044 652 1044 c 2
 676 1044 l 1
 693 1019 l 1
 710 994 l 1
 696 956 l 2
 677 897 578 703 516 600 c 0
 484 549 401 424 329 323 c 0
 257 222 185 116 170 89 c 0
 141 40 110 10 85 10 c 0
 78 10 60 23 46 37 c 2
269 868 m 1
 299 898 l 1
 271 940 l 1
 244 982 l 1
 223 968 l 2
 190 944 165 898 165 861 c 2
 165 826 l 1
 203 833 l 1
 241 839 l 1
 269 868 l 1
103 718 m 2
 58 746 46 763 32 814 c 2
 21 855 l 1
 41 922 l 1
 62 989 l 1
 97 1030 l 1
 132 1071 l 1
 188 1099 l 1
 246 1126 l 1
 299 1126 l 1
 352 1126 l 1
 386 1105 l 2
 434 1075 462 1031 462 991 c 0
 462 975 457 959 447 946 c 0
 439 935 431 916 431 903 c 0
 430 809 316 708 197 699 c 2
 139 695 l 1
 103 718 l 2
EndSplineSet
EndChar

StartChar: ampersand
Encoding: 38 38 5
Width: 777
Flags: HW
LayerCount: 2
Fore
SplineSet
249 598 m 2
 288 653 l 1
 281 665 l 2
 277 671 272 675 266 675 c 0
 256 675 243 665 223 645 c 2
 194 615 l 1
 194 573 l 2
 194 551 197 537 201 537 c 0
 202 537 l 0
 207 540 227 567 249 598 c 2
270 143 m 0
 297 154 327 170 338 178 c 2
 358 193 l 1
 309 225 l 2
 281 243 248 271 234 284 c 2
 207 308 l 1
 191 284 l 2
 182 271 169 239 163 215 c 2
 152 172 l 1
 167 147 l 2
 177 131 187 124 204 124 c 0
 219 124 240 130 270 143 c 0
636 -2 m 2
 601 13 548 43 519 65 c 2
 467 103 l 1
 430 79 l 2
 410 66 364 41 327 25 c 2
 260 -5 l 1
 203 -5 l 1
 145 -5 l 1
 109 23 l 2
 65 57 34 105 26 154 c 2
 20 189 l 1
 34 243 l 2
 42 273 63 321 79 351 c 2
 109 404 l 1
 85 451 l 1
 61 497 l 1
 60 553 l 2
 60 555 60 558 60 560 c 0
 60 634 76 676 117 724 c 2
 153 766 l 1
 207 793 l 1
 261 819 l 1
 295 812 l 1
 329 806 l 1
 363 771 l 2
 381 753 403 719 410 696 c 2
 422 655 l 1
 405 609 l 2
 396 583 364 533 336 495 c 0
 308 457 286 422 286 419 c 0
 286 409 329 370 398 323 c 2
 465 276 l 1
 504 315 l 2
 526 335 568 384 599 422 c 2
 655 492 l 1
 684 492 l 2
 723 492 746 466 746 431 c 0
 746 417 742 401 734 386 c 0
 728 374 689 323 648 275 c 2
 573 187 l 1
 601 166 l 2
 616 155 649 135 675 123 c 0
 738 91 757 73 757 42 c 0
 757 10 749 -4 721 -18 c 2
 699 -30 l 1
 636 -2 l 2
EndSplineSet
EndChar

StartChar: quotesingle
Encoding: 39 39 6
Width: 197
Flags: HW
LayerCount: 2
Fore
SplineSet
53 517 m 2
 28 542 l 1
 28 660 l 1
 28 778 l 1
 48 799 l 2
 59 810 80 819 94 819 c 2
 121 819 l 1
 148 793 l 1
 173 767 l 1
 167 729 l 2
 164 709 161 656 161 612 c 2
 161 532 l 1
 140 512 l 2
 127 499 113 492 100 492 c 0
 85 492 69 501 53 517 c 2
EndSplineSet
EndChar

StartChar: parenleft
Encoding: 40 40 7
Width: 379
Flags: HW
LayerCount: 2
Fore
SplineSet
207 -51 m 0
 98 -8 22 139 22 303 c 2
 22 376 l 1
 43 446 l 2
 88 591 174 727 231 741 c 2
 257 748 l 1
 281 735 l 2
 310 720 318 707 318 679 c 2
 318 656 l 1
 273 610 l 1
 229 565 l 1
 196 484 l 1
 162 404 l 1
 157 327 l 1
 153 249 l 1
 169 191 l 1
 185 134 l 1
 217 102 l 1
 249 72 l 1
 277 72 l 2
 292 72 319 61 333 50 c 2
 359 29 l 1
 359 0 l 1
 359 -28 l 1
 341 -45 l 1
 322 -61 l 1
 277 -61 l 2
 252 -61 220 -56 207 -51 c 0
EndSplineSet
EndChar

StartChar: parenright
Encoding: 41 41 8
Width: 373
Flags: HW
LayerCount: 2
Fore
SplineSet
46 -57 m 1
 19 -31 l 1
 27 -7 l 2
 31 5 65 48 103 89 c 0
 141 130 182 179 192 197 c 2
 210 230 l 1
 210 348 l 1
 210 466 l 1
 185 532 l 1
 161 599 l 1
 105 671 l 1
 50 742 l 1
 56 768 l 2
 64 800 89 819 122 819 c 2
 146 819 l 1
 184 780 l 2
 244 717 285 646 314 558 c 2
 341 476 l 1
 346 375 l 1
 351 274 l 1
 333 208 l 1
 315 141 l 1
 257 63 l 2
 196 -20 143 -66 99 -77 c 2
 73 -84 l 1
 46 -57 l 1
EndSplineSet
EndChar

StartChar: asterisk
Encoding: 42 42 9
Width: 505
Flags: HW
LayerCount: 2
Fore
SplineSet
215 375 m 2
 189 399 l 1
 189 435 l 2
 189 454 187 477 184 486 c 2
 178 503 l 1
 149 487 l 2
 129 477 111 472 94 472 c 0
 67 472 45 485 36 511 c 2
 26 536 l 1
 40 564 l 1
 54 593 l 1
 39 608 l 2
 31 616 24 637 24 652 c 2
 24 681 l 1
 47 700 l 1
 71 719 l 1
 97 713 l 2
 111 709 130 699 139 691 c 0
 148 683 162 677 168 677 c 2
 179 677 l 1
 179 724 l 1
 179 770 l 1
 205 796 l 2
 221 812 235 820 250 820 c 0
 264 820 278 813 296 799 c 2
 323 778 l 1
 323 753 l 1
 323 728 l 1
 343 728 l 2
 370 728 405 693 405 665 c 0
 405 653 397 634 388 624 c 2
 371 605 l 1
 393 605 l 2
 426 605 474 579 481 556 c 0
 482 553 482 548 482 543 c 0
 482 532 480 520 477 510 c 2
 467 483 l 1
 440 476 l 2
 432 474 420 473 406 473 c 0
 394 473 381 474 369 475 c 2
 323 480 l 1
 323 437 l 2
 323 389 318 377 286 361 c 0
 273 354 264 351 255 351 c 0
 243 351 232 358 215 375 c 2
EndSplineSet
EndChar

StartChar: plus
Encoding: 43 43 10
Width: 690
Flags: HW
LayerCount: 2
Fore
SplineSet
290 167 m 2
 265 193 l 1
 265 259 l 1
 265 326 l 1
 237 321 l 2
 222 318 179 314 142 312 c 2
 77 308 l 1
 48 337 l 1
 21 365 l 1
 26 386 l 2
 29 397 41 415 51 424 c 2
 70 441 l 1
 144 446 l 2
 185 448 230 453 242 456 c 2
 265 460 l 1
 265 562 l 1
 265 666 l 1
 291 691 l 1
 316 717 l 1
 340 711 l 2
 352 707 370 694 380 683 c 2
 398 663 l 1
 398 570 l 1
 398 478 l 1
 457 485 l 2
 490 488 535 497 560 503 c 2
 604 514 l 1
 630 502 l 2
 655 490 668 467 668 444 c 0
 668 425 659 405 640 393 c 0
 618 380 540 362 446 351 c 2
 398 346 l 1
 398 264 l 1
 398 183 l 1
 378 163 l 2
 365 150 351 143 337 143 c 0
 322 143 306 151 290 167 c 2
EndSplineSet
EndChar

StartChar: comma
Encoding: 44 44 11
Width: 272
Flags: HW
LayerCount: 2
Fore
SplineSet
53 -302 m 0
 37 -286 29 -274 29 -262 c 0
 29 -246 42 -230 68 -204 c 2
 109 -163 l 1
 109 -134 l 1
 109 -105 l 1
 80 -65 l 2
 57 -33 46 -12 46 7 c 0
 46 21 52 33 64 45 c 2
 81 61 l 1
 115 61 l 1
 148 61 l 1
 177 29 l 2
 218 -19 243 -81 243 -133 c 2
 243 -179 l 1
 223 -220 l 2
 201 -267 168 -301 127 -316 c 0
 110 -322 100 -326 91 -326 c 0
 79 -326 70 -319 53 -302 c 0
EndSplineSet
EndChar

StartChar: hyphen
Encoding: 45 45 12
Width: 539
Flags: HW
LayerCount: 2
Fore
SplineSet
129 366 m 0
 81 376 51 394 38 420 c 2
 24 446 l 1
 34 467 l 2
 40 478 51 493 60 500 c 0
 70 508 91 512 111 512 c 0
 130 512 147 508 151 501 c 2
 158 489 l 1
 315 498 l 1
 473 505 l 1
 494 486 l 1
 513 468 l 1
 513 440 l 1
 513 413 l 1
 494 395 l 1
 474 378 l 1
 379 369 l 2
 323 364 261 361 211 361 c 0
 174 361 144 363 129 366 c 0
EndSplineSet
EndChar

StartChar: period
Encoding: 46 46 13
Width: 214
Flags: HW
LayerCount: 2
Fore
SplineSet
86 -81 m 0
 58 -71 31 -33 31 -4 c 0
 31 8 43 33 57 50 c 2
 84 82 l 1
 118 82 l 1
 152 82 l 1
 168 59 l 2
 177 47 184 20 184 0 c 2
 184 -38 l 1
 162 -58 l 2
 141 -77 125 -86 109 -86 c 0
 102 -86 94 -84 86 -81 c 0
EndSplineSet
EndChar

StartChar: slash
Encoding: 47 47 14
Width: 628
Flags: HW
LayerCount: 2
Fore
SplineSet
47 -41 m 2
 21 -20 l 1
 21 8 l 1
 21 36 l 1
 123 195 l 2
 221 348 325 512 448 716 c 2
 507 813 l 1
 544 816 l 1
 581 819 l 1
 594 803 l 2
 601 794 607 773 607 757 c 2
 607 727 l 1
 510 565 l 2
 457 476 349 303 270 181 c 2
 128 -41 l 1
 104 -51 l 2
 91 -57 85 -61 79 -61 c 0
 72 -61 65 -55 47 -41 c 2
EndSplineSet
EndChar

StartChar: zero
Encoding: 48 48 15
Width: 804
Flags: HW
LayerCount: 2
Fore
SplineSet
207 243 m 0
 207 255 380 512 493 668 c 0
 536 726 567 777 567 786 c 0
 567 790 530 802 498 808 c 2
 434 820 l 1
 390 807 l 1
 345 795 l 1
 295 742 l 1
 246 691 l 1
 211 617 l 1
 177 543 l 1
 165 468 l 2
 161 439 158 414 158 390 c 0
 158 351 164 315 178 271 c 0
 185 247 196 231 202 231 c 0
 205 231 207 235 207 243 c 0
440 161 m 0
 495 195 562 271 603 349 c 2
 642 422 l 1
 645 540 l 1
 649 657 l 1
 585 570 l 2
 502 458 309 173 309 162 c 0
 309 149 333 143 361 143 c 0
 388 143 420 149 440 161 c 0
258 35 m 2
 221 50 173 76 148 93 c 2
 104 124 l 1
 74 186 l 2
 58 220 38 275 32 309 c 2
 21 371 l 1
 27 438 l 2
 35 523 56 598 101 690 c 2
 137 764 l 1
 193 825 l 1
 249 887 l 1
 302 913 l 2
 332 927 377 942 404 946 c 2
 452 952 l 1
 556 929 l 1
 661 905 l 1
 692 884 l 2
 709 873 734 847 746 829 c 2
 768 797 l 1
 775 657 l 2
 777 616 778 572 778 535 c 0
 778 503 777 477 776 463 c 0
 758 310 636 123 501 44 c 2
 452 15 l 1
 388 11 l 1
 325 7 l 1
 258 35 l 2
EndSplineSet
EndChar

StartChar: one
Encoding: 49 49 16
Width: 628
Flags: HW
LayerCount: 2
Fore
SplineSet
367 26 m 2
 342 50 l 1
 342 104 l 2
 342 225 381 487 424 655 c 0
 435 699 444 740 444 746 c 0
 444 747 443 747 442 747 c 0
 434 747 405 732 370 708 c 0
 329 680 273 645 243 631 c 2
 189 604 l 1
 157 564 l 2
 130 532 113 518 92 518 c 0
 84 518 76 520 67 523 c 0
 43 532 21 575 21 605 c 0
 21 609 21 613 22 616 c 0
 29 644 90 694 189 752 c 0
 236 780 308 823 347 850 c 0
 441 912 498 942 530 942 c 0
 561 942 594 912 603 877 c 2
 609 852 l 1
 575 716 l 2
 520 502 475 233 475 106 c 2
 475 54 l 1
 454 27 l 2
 440 10 426 1 412 1 c 0
 398 1 383 10 367 26 c 2
EndSplineSet
EndChar

StartChar: two
Encoding: 50 50 17
Width: 757
Flags: HW
LayerCount: 2
Fore
SplineSet
99 18 m 1
 72 40 l 1
 72 76 l 1
 72 111 l 1
 90 129 l 2
 100 139 154 175 208 207 c 0
 325 276 421 361 503 472 c 2
 563 553 l 1
 563 577 l 1
 563 600 l 1
 518 646 l 1
 473 693 l 1
 430 705 l 2
 415 709 399 711 383 711 c 0
 331 711 275 692 227 656 c 0
 189 628 169 593 159 538 c 2
 153 500 l 1
 133 489 l 2
 121 482 109 479 97 479 c 0
 79 479 62 487 45 504 c 0
 29 520 21 534 21 553 c 0
 21 572 29 595 45 629 c 0
 79 702 136 762 206 797 c 2
 264 826 l 1
 335 839 l 1
 405 850 l 1
 458 835 l 2
 525 816 592 768 638 712 c 0
 688 651 696 629 696 572 c 2
 696 522 l 1
 643 441 l 1
 590 361 l 1
 483 255 l 1
 378 148 l 1
 499 155 l 2
 566 158 636 165 656 168 c 2
 694 174 l 1
 716 152 l 1
 738 130 l 1
 735 103 l 1
 732 77 l 1
 707 58 l 1
 681 39 l 1
 584 24 l 1
 486 8 l 1
 377 20 l 1
 267 33 l 1
 218 20 l 2
 190 14 159 5 148 2 c 2
 127 -3 l 1
 99 18 l 1
EndSplineSet
EndChar

StartChar: three
Encoding: 51 51 18
Width: 774
Flags: HW
LayerCount: 2
Fore
SplineSet
250 24 m 0
 224 31 184 46 160 58 c 2
 117 80 l 1
 111 105 l 2
 109 113 108 122 108 129 c 0
 108 153 119 171 142 181 c 2
 168 193 l 1
 237 166 l 1
 306 140 l 1
 389 144 l 1
 471 147 l 1
 517 171 l 2
 542 184 575 207 590 221 c 2
 619 248 l 1
 600 267 l 2
 590 278 570 293 555 301 c 2
 527 315 l 1
 471 315 l 2
 401 315 369 327 346 361 c 2
 329 388 l 1
 340 413 l 1
 351 438 l 1
 427 474 l 1
 503 510 l 1
 540 551 l 2
 560 574 578 599 578 606 c 0
 578 631 538 672 501 684 c 2
 465 696 l 1
 406 689 l 2
 295 676 221 628 162 535 c 0
 144 506 119 480 108 477 c 0
 104 476 99 475 95 475 c 0
 68 475 40 495 31 523 c 2
 21 551 l 1
 37 585 l 2
 46 603 75 644 104 676 c 2
 157 732 l 1
 226 769 l 1
 296 805 l 1
 370 817 l 1
 444 829 l 1
 487 822 l 2
 583 806 659 749 704 657 c 2
 724 614 l 1
 707 568 l 2
 698 542 670 501 647 475 c 0
 625 450 609 428 609 425 c 0
 609 421 731 357 747 278 c 1
 754 246 l 1
 741 210 l 1
 730 174 l 1
 681 128 l 2
 595 47 496 9 373 9 c 0
 371 9 370 9 368 9 c 0
 329 9 276 17 250 24 c 0
EndSplineSet
EndChar

StartChar: four
Encoding: 52 52 19
Width: 737
Flags: HW
LayerCount: 2
Fore
SplineSet
405 36 m 2
 379 60 l 1
 379 189 l 1
 379 317 l 1
 367 317 l 2
 360 317 301 309 236 299 c 2
 118 281 l 1
 85 289 l 2
 44 299 21 332 21 379 c 2
 21 415 l 1
 78 517 l 2
 110 573 165 662 201 713 c 0
 237 764 266 812 266 818 c 0
 266 824 276 839 287 850 c 2
 307 870 l 1
 336 870 l 2
 351 870 375 863 387 854 c 2
 410 839 l 1
 410 810 l 1
 410 781 l 1
 351 700 l 2
 294 621 172 429 177 425 c 0
 177 425 177 425 178 425 c 0
 185 425 232 431 285 439 c 2
 389 455 l 1
 389 486 l 2
 389 503 402 580 414 657 c 2
 436 798 l 1
 456 819 l 2
 468 833 483 839 498 839 c 0
 513 839 529 833 543 819 c 0
 556 806 563 794 563 770 c 0
 563 749 558 719 549 670 c 0
 541 626 531 562 528 530 c 2
 522 472 l 1
 576 489 l 2
 606 498 644 505 660 505 c 2
 689 505 l 1
 704 485 l 2
 712 473 716 461 716 449 c 0
 716 415 685 382 634 369 c 0
 615 364 579 354 555 348 c 2
 512 337 l 1
 512 199 l 1
 512 60 l 1
 486 36 l 2
 472 22 454 10 445 10 c 0
 436 10 419 22 405 36 c 2
EndSplineSet
EndChar

StartChar: five
Encoding: 53 53 20
Width: 783
Flags: HW
LayerCount: 2
Fore
SplineSet
117 23 m 1
 66 40 l 1
 43 75 l 2
 30 94 20 120 20 133 c 0
 20 164 53 199 84 199 c 2
 108 199 l 1
 137 168 l 1
 167 137 l 1
 228 137 l 2
 432 137 601 246 629 393 c 2
 635 429 l 1
 622 445 l 2
 602 470 505 499 418 504 c 2
 339 508 l 1
 237 490 l 2
 193 483 161 478 137 478 c 0
 97 478 79 490 60 517 c 2
 38 548 l 1
 37 622 l 1
 37 695 l 1
 54 751 l 2
 76 822 94 849 133 869 c 2
 165 886 l 1
 340 901 l 2
 414 907 486 911 520 911 c 0
 530 911 536 911 539 910 c 0
 551 907 570 893 579 880 c 2
 595 855 l 1
 588 834 l 2
 584 823 571 806 559 798 c 2
 537 783 l 1
 375 770 l 2
 286 763 206 752 198 746 c 2
 182 735 l 1
 176 676 l 1
 170 615 l 1
 230 625 l 2
 263 630 339 634 398 634 c 2
 506 634 l 1
 593 605 l 2
 690 573 715 556 742 505 c 2
 760 470 l 1
 760 409 l 1
 760 347 l 1
 741 306 l 2
 678 161 563 70 387 24 c 2
 311 4 l 1
 240 4 l 1
 168 5 l 1
 117 23 l 1
EndSplineSet
EndChar

StartChar: six
Encoding: 54 54 21
Width: 720
Flags: HW
LayerCount: 2
Fore
SplineSet
438 186 m 2
 521 226 l 1
 538 253 l 2
 547 267 558 292 561 308 c 2
 567 338 l 1
 541 355 l 2
 527 364 496 375 474 378 c 2
 434 383 l 1
 378 367 l 2
 347 358 305 336 283 319 c 0
 250 293 226 282 204 282 c 0
 194 282 185 284 175 289 c 2
 153 300 l 1
 161 276 l 2
 175 230 194 199 232 166 c 2
 270 133 l 1
 312 139 l 2
 336 142 392 163 438 186 c 2
224 16 m 0
 137 47 58 145 33 254 c 2
 21 306 l 1
 32 407 l 2
 52 590 78 658 166 754 c 0
 226 821 289 855 371 870 c 2
 426 881 l 1
 477 871 l 2
 505 866 545 850 565 837 c 2
 602 812 l 1
 616 779 l 1
 630 746 l 1
 614 720 l 2
 597 690 573 675 549 675 c 0
 529 675 508 686 495 710 c 2
 477 738 l 1
 423 739 l 1
 370 739 l 1
 331 720 l 2
 291 700 255 663 218 609 c 0
 196 577 166 470 166 429 c 0
 166 426 167 423 167 421 c 2
 170 401 l 1
 221 437 l 2
 250 456 298 480 329 489 c 2
 385 507 l 1
 463 507 l 1
 540 507 l 1
 593 478 l 2
 653 445 670 423 687 360 c 2
 699 315 l 1
 687 268 l 2
 655 151 541 62 365 15 c 0
 334 7 312 3 291 3 c 0
 269 3 249 7 224 16 c 0
EndSplineSet
EndChar

StartChar: seven
Encoding: 55 55 22
Width: 852
Flags: HW
LayerCount: 2
Fore
SplineSet
111 13 m 2
 100 25 94 43 94 62 c 0
 94 82 100 104 113 123 c 0
 124 139 161 186 195 225 c 0
 229 264 255 297 254 298 c 0
 253 299 211 305 162 310 c 2
 72 321 l 1
 51 338 l 1
 32 356 l 1
 32 390 l 1
 32 424 l 1
 52 435 l 1
 73 446 l 1
 229 439 l 1
 385 433 l 1
 482 534 l 2
 535 589 588 644 598 656 c 2
 617 678 l 1
 339 678 l 1
 62 678 l 1
 41 697 l 1
 21 716 l 1
 24 745 l 1
 27 776 l 1
 52 795 l 1
 78 813 l 1
 409 816 l 1
 740 819 l 1
 765 791 l 2
 778 776 790 751 790 738 c 0
 790 698 737 612 660 528 c 2
 586 449 l 1
 682 454 l 1
 778 459 l 1
 805 441 l 1
 831 425 l 1
 831 390 l 1
 831 355 l 1
 814 342 l 1
 799 329 l 1
 621 315 l 1
 442 302 l 1
 392 248 l 2
 330 182 276 120 224 49 c 2
 184 -5 l 1
 156 -5 l 1
 127 -5 l 1
 111 13 l 2
EndSplineSet
EndChar

StartChar: eight
Encoding: 56 56 23
Width: 669
Flags: HW
LayerCount: 2
Fore
SplineSet
383 670 m 0
 449 741 491 802 491 827 c 0
 491 830 490 832 489 834 c 0
 486 839 452 845 413 849 c 2
 342 856 l 1
 302 840 l 2
 234 811 181 746 163 670 c 2
 156 642 l 1
 205 622 l 2
 223 615 285 590 300 590 c 0
 305 590 342 626 383 670 c 0
444 169 m 0
 470 185 496 211 503 226 c 2
 515 253 l 1
 498 310 l 1
 481 368 l 1
 446 400 l 2
 427 418 398 436 381 440 c 2
 349 447 l 1
 333 433 l 2
 324 426 303 392 287 358 c 2
 258 297 l 1
 258 260 l 1
 258 223 l 1
 312 181 l 2
 342 157 373 138 382 138 c 0
 391 138 418 153 444 169 c 0
299 31 m 2
 224 75 167 127 144 172 c 2
 123 213 l 1
 127 275 l 1
 131 338 l 1
 164 409 l 2
 181 447 195 477 195 480 c 0
 195 481 174 490 130 512 c 2
 69 544 l 1
 45 592 l 1
 21 640 l 1
 33 693 l 2
 48 761 66 794 116 862 c 2
 156 915 l 1
 224 949 l 1
 294 983 l 1
 396 983 l 1
 499 983 l 1
 540 962 l 2
 563 951 592 924 604 906 c 2
 627 872 l 1
 627 835 l 1
 627 797 l 1
 596 735 l 2
 580 701 540 646 508 611 c 0
 479 579 459 554 459 549 c 0
 459 548 460 548 460 548 c 0
 465 548 490 533 516 517 c 2
 562 486 l 1
 588 438 l 2
 602 411 623 362 632 327 c 2
 649 263 l 1
 633 206 l 1
 616 148 l 1
 578 110 l 2
 556 88 520 57 493 42 c 2
 444 14 l 1
 395 9 l 1
 345 4 l 1
 299 31 l 2
EndSplineSet
EndChar

StartChar: nine
Encoding: 57 57 24
Width: 783
Flags: HW
LayerCount: 2
Fore
SplineSet
364 654 m 0
 446 689 586 823 586 868 c 0
 586 886 574 895 545 895 c 0
 530 895 509 892 483 888 c 0
 362 868 279 820 243 751 c 0
 234 733 230 711 230 692 c 0
 230 675 233 660 241 652 c 0
 249 644 268 641 290 641 c 0
 314 641 343 645 364 654 c 0
43 24 m 2
 21 42 l 1
 21 71 l 2
 21 86 27 106 35 114 c 0
 55 134 168 156 325 169 c 0
 399 175 489 188 526 196 c 2
 594 211 l 1
 600 243 l 2
 603 260 607 361 607 467 c 2
 607 660 l 1
 543 613 l 2
 508 587 456 554 427 540 c 2
 376 513 l 1
 294 512 l 1
 213 512 l 1
 174 537 l 1
 135 560 l 1
 115 600 l 2
 100 630 92 661 92 693 c 0
 92 756 121 821 179 883 c 0
 225 933 288 968 385 1000 c 2
 448 1021 l 1
 529 1022 l 1
 611 1024 l 1
 677 989 l 1
 741 954 l 1
 752 928 l 1
 763 901 l 1
 752 763 l 2
 746 686 739 543 739 445 c 0
 739 347 735 240 730 206 c 2
 720 144 l 1
 696 121 l 1
 673 98 l 1
 577 73 l 1
 478 47 l 1
 335 37 l 2
 256 31 176 21 157 15 c 0
 136 9 117 6 101 6 c 0
 77 6 58 12 43 24 c 2
EndSplineSet
EndChar

StartChar: colon
Encoding: 58 58 25
Width: 224
Flags: HW
LayerCount: 2
Fore
SplineSet
67 207 m 2
 44 215 l 1
 37 241 l 2
 35 249 34 256 34 263 c 0
 34 285 45 304 69 331 c 2
 95 359 l 1
 121 359 l 1
 146 359 l 1
 171 334 l 1
 197 309 l 1
 197 274 l 1
 197 240 l 1
 178 224 l 2
 162 211 128 202 99 202 c 0
 87 202 76 204 67 207 c 2
47 507 m 2
 31 523 24 535 24 550 c 0
 24 562 29 575 38 594 c 2
 52 624 l 1
 85 635 l 2
 105 642 120 646 132 646 c 0
 149 646 161 638 175 620 c 0
 188 603 195 589 195 575 c 0
 195 557 184 539 162 517 c 2
 127 482 l 1
 99 482 l 1
 73 482 l 1
 47 507 l 2
EndSplineSet
EndChar

StartChar: semicolon
Encoding: 59 59 26
Width: 319
Flags: HW
LayerCount: 2
Fore
SplineSet
93 -279 m 0
 64 -268 40 -238 32 -206 c 2
 26 -179 l 1
 46 -155 l 1
 65 -130 l 1
 105 -130 l 1
 144 -130 l 1
 147 -96 l 1
 151 -62 l 1
 125 -32 l 2
 107 -11 100 -1 100 11 c 0
 100 19 103 29 110 44 c 2
 122 70 l 1
 156 81 l 1
 189 92 l 1
 212 80 l 2
 236 68 271 -3 284 -63 c 2
 292 -99 l 1
 280 -140 l 2
 258 -214 211 -262 134 -282 c 0
 130 -283 126 -283 121 -283 c 0
 111 -283 100 -282 93 -279 c 0
172 117 m 0
 159 126 144 145 139 158 c 2
 130 182 l 1
 139 207 l 2
 144 220 162 237 178 244 c 2
 209 256 l 1
 233 244 l 2
 265 228 272 215 272 176 c 2
 272 143 l 1
 246 122 l 2
 228 108 217 101 206 101 c 0
 196 101 187 107 172 117 c 0
EndSplineSet
EndChar

StartChar: less
Encoding: 60 60 27
Width: 627
Flags: HW
LayerCount: 2
Fore
SplineSet
338 130 m 0
 186 145 96 179 47 237 c 2
 21 268 l 1
 21 295 l 1
 21 322 l 1
 71 371 l 2
 99 398 171 452 232 493 c 0
 350 572 416 623 465 670 c 0
 481 686 506 703 519 708 c 2
 543 717 l 1
 567 708 l 2
 593 698 604 678 604 642 c 2
 604 621 l 1
 545 564 l 2
 512 533 417 460 335 404 c 2
 185 302 l 1
 201 291 l 2
 217 279 259 272 392 261 c 2
 471 254 l 1
 497 234 l 1
 522 214 l 1
 522 189 l 2
 522 176 513 154 502 143 c 2
 481 123 l 1
 428 125 l 2
 398 126 357 128 338 130 c 0
EndSplineSet
EndChar

StartChar: equal
Encoding: 61 61 28
Width: 814
Flags: HW
LayerCount: 2
Fore
SplineSet
49 289 m 1
 23 310 l 1
 23 335 l 2
 23 348 32 369 42 379 c 2
 62 398 l 1
 280 406 l 2
 369 409 475 411 552 411 c 0
 580 411 605 411 623 410 c 2
 748 406 l 1
 769 386 l 1
 791 367 l 1
 791 339 l 2
 791 324 783 305 773 296 c 2
 755 280 l 1
 416 273 l 1
 76 268 l 1
 49 289 l 1
59 464 m 1
 33 484 l 1
 33 512 l 1
 33 541 l 1
 59 565 l 1
 86 590 l 1
 273 593 l 2
 295 593 317 593 338 593 c 0
 512 593 634 582 677 560 c 2
 709 544 l 1
 709 510 l 1
 709 475 l 1
 688 457 l 1
 668 438 l 1
 577 451 l 2
 519 458 403 462 300 462 c 0
 208 462 128 459 111 453 c 2
 85 442 l 1
 59 464 l 1
EndSplineSet
EndChar

StartChar: greater
Encoding: 62 62 29
Width: 709
Flags: HW
LayerCount: 2
Fore
SplineSet
181 126 m 2
 165 142 157 161 157 178 c 0
 157 187 159 195 163 203 c 0
 169 214 234 258 309 300 c 0
 384 342 455 384 466 392 c 2
 486 408 l 1
 466 414 l 2
 455 418 394 443 333 470 c 0
 229 515 149 543 79 557 c 2
 51 562 l 1
 37 592 l 1
 22 621 l 1
 41 652 l 2
 51 669 71 687 84 690 c 2
 108 696 l 1
 208 659 l 2
 263 639 356 604 413 579 c 0
 470 554 550 522 590 507 c 2
 664 479 l 1
 676 450 l 1
 688 419 l 1
 682 394 l 2
 679 381 662 359 647 347 c 0
 591 303 262 120 230 115 c 2
 198 110 l 1
 181 126 l 2
EndSplineSet
EndChar

StartChar: question
Encoding: 63 63 30
Width: 567
Flags: HW
LayerCount: 2
Fore
SplineSet
329 -67 m 0
 321 -64 302 -51 290 -40 c 2
 267 -19 l 1
 267 10 l 1
 267 40 l 1
 292 65 l 2
 308 81 324 89 339 89 c 0
 352 89 365 83 379 72 c 2
 401 53 l 1
 408 12 l 1
 413 -30 l 1
 385 -52 l 2
 366 -67 359 -73 350 -73 c 0
 345 -73 338 -70 329 -67 c 0
349 126 m 2
 297 150 279 169 261 224 c 2
 245 274 l 1
 256 308 l 2
 262 327 296 385 329 437 c 2
 388 531 l 1
 399 583 l 2
 405 611 411 643 411 653 c 2
 411 673 l 1
 375 699 l 1
 339 727 l 1
 291 720 l 1
 242 713 l 1
 211 679 l 2
 178 644 155 585 155 534 c 2
 155 503 l 1
 136 485 l 2
 124 474 110 468 96 468 c 0
 69 468 43 489 32 524 c 2
 21 559 l 1
 33 608 l 2
 69 755 153 835 294 853 c 2
 347 860 l 1
 401 836 l 2
 468 805 518 757 534 708 c 2
 546 671 l 1
 534 595 l 2
 519 499 505 466 434 360 c 2
 377 274 l 1
 390 259 l 2
 397 251 416 244 431 244 c 0
 468 244 493 219 493 181 c 2
 493 152 l 1
 469 136 l 2
 456 128 431 119 415 116 c 2
 385 111 l 1
 349 126 l 2
EndSplineSet
EndChar

StartChar: at
Encoding: 64 64 31
Width: 969
Flags: HW
LayerCount: 2
Fore
SplineSet
405 412 m 0
 436 435 505 518 505 532 c 0
 505 538 496 540 483 540 c 0
 465 540 440 536 419 527 c 0
 401 519 373 498 358 480 c 2
 331 447 l 1
 331 412 l 1
 331 376 l 1
 353 383 l 2
 365 387 390 401 405 412 c 0
290 18 m 0
 245 31 178 69 140 102 c 0
 87 149 57 208 38 305 c 2
 21 391 l 1
 28 463 l 1
 34 535 l 1
 77 615 l 1
 120 696 l 1
 194 762 l 1
 267 828 l 1
 340 864 l 1
 412 900 l 1
 492 910 l 1
 570 922 l 1
 616 914 l 2
 642 910 701 890 746 868 c 2
 828 829 l 1
 876 778 l 1
 923 728 l 1
 935 683 l 1
 947 638 l 1
 941 584 l 1
 936 529 l 1
 908 482 l 2
 868 413 800 351 724 314 c 2
 658 283 l 1
 620 289 l 2
 600 292 568 304 553 315 c 2
 525 337 l 1
 473 301 l 2
 421 266 375 248 334 248 c 0
 304 248 278 257 254 276 c 0
 217 305 197 352 197 407 c 0
 197 430 201 455 208 481 c 2
 218 519 l 1
 263 569 l 1
 309 621 l 1
 360 642 l 2
 388 654 432 668 458 671 c 2
 504 677 l 1
 551 664 l 1
 598 650 l 1
 633 617 l 1
 669 585 l 1
 669 559 l 2
 669 545 663 520 657 503 c 0
 652 489 648 467 648 452 c 0
 648 449 649 445 649 443 c 2
 653 417 l 1
 704 453 l 2
 732 472 766 507 782 531 c 2
 812 574 l 1
 812 613 l 1
 812 652 l 1
 783 685 l 1
 756 718 l 1
 684 753 l 1
 612 788 l 1
 537 782 l 1
 461 775 l 1
 398 746 l 1
 336 718 l 1
 273 657 l 1
 212 597 l 1
 186 546 l 1
 162 495 l 1
 162 401 l 1
 163 309 l 1
 187 258 l 1
 213 208 l 1
 257 179 l 1
 302 150 l 1
 344 144 l 1
 387 140 l 1
 529 171 l 1
 672 203 l 1
 713 231 l 2
 736 246 765 269 781 279 c 2
 811 297 l 1
 840 283 l 1
 868 269 l 1
 871 232 l 1
 875 196 l 1
 844 166 l 2
 828 150 787 120 754 103 c 2
 694 72 l 1
 615 55 l 2
 572 46 508 33 472 25 c 0
 431 16 389 11 354 11 c 0
 329 11 307 13 290 18 c 0
EndSplineSet
EndChar

StartChar: A
Encoding: 65 65 32
Width: 688
VWidth: 1036
Flags: HW
LayerCount: 2
Fore
SplineSet
459 471 m 0
 459 475 449 512 439 551 c 2
 421 623 l 1
 410 597 l 2
 404 583 390 550 378 522 c 0
 366 494 356 470 356 468 c 0
 356 466 379 464 408 464 c 0
 437 464 459 467 459 471 c 0
64 25 m 0
 41 36 19 74 19 102 c 0
 19 111 31 132 45 149 c 0
 76 186 155 343 166 388 c 0
 170 404 180 425 188 434 c 0
 208 457 279 621 327 756 c 2
 367 869 l 1
 388 886 l 1
 410 905 l 1
 444 905 l 1
 479 905 l 1
 494 871 l 2
 512 829 629 346 649 224 c 2
 665 133 l 1
 645 106 l 1
 626 80 l 1
 600 77 l 1
 574 74 l 1
 553 100 l 1
 533 126 l 1
 515 229 l 1
 497 331 l 1
 419 329 l 2
 376 328 328 325 313 322 c 2
 285 316 l 1
 243 234 l 2
 219 189 186 126 170 93 c 2
 139 32 l 1
 114 23 l 2
 100 18 88 14 87 14 c 0
 86 14 76 19 64 25 c 0
EndSplineSet
EndChar

StartChar: B
Encoding: 66 66 33
Width: 710
VWidth: 1111
Flags: HW
LayerCount: 2
Fore
SplineSet
280 573 m 0
 310 601 341 638 351 655 c 2
 370 687 l 1
 343 711 l 2
 312 740 260 767 217 775 c 2
 186 781 l 1
 192 665 l 2
 195 602 198 543 200 536 c 0
 202 528 206 524 212 524 c 0
 224 524 244 539 280 573 c 0
333 160 m 0
 385 168 511 227 537 255 c 2
 556 277 l 1
 538 297 l 2
 528 308 490 334 454 350 c 2
 390 380 l 1
 324 386 l 2
 307 387 289 388 273 388 c 0
 255 388 239 387 231 385 c 2
 204 378 l 1
 210 315 l 2
 213 280 221 227 227 197 c 2
 238 143 l 1
 264 148 l 2
 279 151 310 156 333 160 c 0
98 32 m 1
 72 53 l 1
 72 74 l 2
 72 86 78 103 86 112 c 2
 101 128 l 1
 87 236 l 2
 79 295 70 423 67 518 c 0
 60 709 57 742 34 776 c 2
 18 799 l 1
 41 845 l 2
 53 871 71 896 80 901 c 0
 88 905 123 908 163 908 c 0
 169 908 175 908 181 908 c 2
 264 906 l 1
 333 872 l 2
 418 830 462 791 486 738 c 2
 505 697 l 1
 493 657 l 2
 487 634 464 593 445 563 c 0
 427 535 412 511 412 508 c 0
 412 507 428 502 460 492 c 0
 527 470 619 407 655 358 c 2
 686 315 l 1
 686 285 l 2
 686 147 443 11 197 11 c 2
 126 11 l 1
 98 32 l 1
EndSplineSet
EndChar

StartChar: C
Encoding: 67 67 34
Width: 763
VWidth: 1135
Flags: HW
LayerCount: 2
Fore
SplineSet
478 -11 m 0
 247 23 122 131 44 360 c 2
 22 425 l 1
 22 489 l 2
 21 612 58 694 152 780 c 2
 209 833 l 1
 293 873 l 1
 376 913 l 1
 441 924 l 2
 467 929 492 931 516 931 c 0
 616 931 696 892 725 825 c 2
 739 792 l 1
 729 766 l 2
 721 742 694 725 670 725 c 0
 666 725 661 726 657 727 c 0
 649 730 629 746 615 763 c 2
 589 794 l 1
 523 795 l 1
 458 796 l 1
 412 782 l 2
 298 745 192 657 166 581 c 2
 154 543 l 1
 159 474 l 1
 163 404 l 1
 196 334 l 2
 214 295 241 250 254 232 c 2
 279 199 l 1
 343 167 l 2
 378 150 435 131 470 125 c 2
 534 113 l 1
 566 129 l 2
 584 138 613 146 629 146 c 2
 657 146 l 1
 675 120 l 1
 692 94 l 1
 682 66 l 1
 673 38 l 1
 627 16 l 2
 588 -4 547 -13 509 -13 c 0
 498 -13 488 -13 478 -11 c 0
EndSplineSet
EndChar

StartChar: D
Encoding: 68 68 35
Width: 782
VWidth: 1120
Flags: HW
LayerCount: 2
Fore
SplineSet
348 172 m 2
 432 205 l 1
 494 267 l 1
 555 329 l 1
 584 386 l 1
 612 444 l 1
 619 500 l 1
 625 555 l 1
 603 596 l 2
 580 640 517 702 471 726 c 0
 456 734 395 750 337 762 c 2
 230 785 l 1
 205 778 l 1
 178 772 l 1
 185 514 l 2
 189 373 195 231 199 198 c 2
 205 140 l 1
 235 140 l 2
 251 140 302 154 348 172 c 2
152 7 m 2
 107 13 l 1
 89 34 l 1
 73 56 l 1
 61 264 l 2
 55 379 48 532 48 606 c 2
 48 739 l 1
 33 758 l 2
 24 771 19 785 19 799 c 0
 19 815 25 833 39 850 c 0
 69 888 104 904 177 911 c 2
 240 917 l 1
 360 892 l 1
 480 868 l 1
 535 840 l 2
 647 784 739 662 752 552 c 2
 758 500 l 1
 745 445 l 2
 738 415 715 358 695 319 c 2
 659 247 l 1
 590 178 l 1
 521 108 l 1
 435 69 l 2
 361 35 291 13 217 2 c 0
 215 2 211 1 207 1 c 0
 193 1 172 4 152 7 c 2
EndSplineSet
EndChar

StartChar: E
Encoding: 69 69 36
Width: 753
VWidth: 1126
Flags: HW
LayerCount: 2
Fore
SplineSet
114 12 m 1
 77 28 l 1
 65 54 l 1
 53 79 l 1
 53 236 l 1
 53 394 l 1
 35 424 l 1
 18 456 l 1
 35 490 l 1
 52 524 l 1
 54 657 l 2
 54 667 54 677 54 686 c 0
 54 748 51 799 48 808 c 2
 40 827 l 1
 52 852 l 1
 64 878 l 1
 96 891 l 1
 130 905 l 1
 284 914 l 2
 368 919 495 923 568 923 c 2
 701 923 l 1
 715 903 l 2
 723 892 729 869 729 854 c 2
 729 827 l 1
 707 810 l 1
 683 795 l 1
 596 795 l 2
 548 795 438 790 353 783 c 2
 198 770 l 1
 193 749 l 2
 190 738 186 685 186 633 c 2
 186 538 l 1
 245 546 l 2
 278 550 328 553 358 553 c 2
 414 554 l 1
 433 530 l 2
 445 514 452 501 452 487 c 0
 452 473 445 460 433 448 c 2
 415 428 l 1
 344 422 l 2
 305 418 253 412 229 409 c 2
 186 403 l 1
 186 265 l 1
 186 126 l 1
 250 133 l 2
 285 136 377 142 455 146 c 2
 596 153 l 1
 617 135 l 1
 637 116 l 1
 637 86 l 1
 637 58 l 1
 617 38 l 1
 595 19 l 1
 465 13 l 2
 393 10 294 4 243 1 c 2
 151 -5 l 1
 114 12 l 1
EndSplineSet
EndChar

StartChar: F
Encoding: 70 70 37
Width: 723
VWidth: 1138
Flags: HW
LayerCount: 2
Fore
SplineSet
57 -6 m 0
 45 0 33 14 30 23 c 0
 25 41 22 105 22 190 c 0
 22 378 34 670 51 804 c 2
 57 854 l 1
 84 884 l 1
 112 915 l 1
 199 924 l 2
 247 929 370 934 472 934 c 2
 660 934 l 1
 680 914 l 2
 693 901 700 888 700 874 c 0
 700 860 693 846 681 831 c 2
 661 806 l 1
 425 801 l 2
 295 798 187 794 184 791 c 0
 181 788 176 720 171 639 c 2
 163 493 l 1
 311 500 l 1
 460 506 l 1
 478 485 l 2
 488 474 498 451 498 436 c 2
 498 408 l 1
 476 391 l 1
 455 373 l 1
 306 366 l 1
 158 359 l 1
 158 200 l 1
 158 41 l 1
 127 12 l 2
 107 -8 98 -16 87 -16 c 0
 79 -16 71 -12 57 -6 c 0
EndSplineSet
EndChar

StartChar: G
Encoding: 71 71 38
Width: 1052
VWidth: 1150
Flags: HW
LayerCount: 2
Fore
SplineSet
489 -22 m 0
 351 -5 222 47 145 120 c 2
 97 164 l 1
 71 220 l 2
 57 250 39 306 32 345 c 2
 20 415 l 1
 26 497 l 2
 33 583 56 663 94 723 c 0
 137 793 252 867 391 914 c 2
 458 936 l 1
 555 940 l 1
 652 946 l 1
 712 934 l 2
 789 920 831 900 888 849 c 0
 942 801 965 762 967 712 c 2
 968 676 l 1
 951 660 l 2
 941 650 924 645 907 645 c 0
 891 645 874 650 865 659 c 0
 857 667 843 690 834 708 c 0
 825 726 796 756 772 773 c 2
 729 803 l 1
 624 808 l 1
 517 812 l 1
 457 795 l 2
 315 754 228 699 188 622 c 2
 161 570 l 1
 161 452 l 1
 162 334 l 1
 182 288 l 2
 217 211 283 162 396 129 c 2
 458 112 l 1
 565 111 l 1
 673 110 l 1
 729 136 l 1
 785 162 l 1
 820 201 l 2
 855 241 892 311 892 338 c 2
 893 353 l 1
 823 347 l 2
 785 344 719 333 674 324 c 2
 592 308 l 1
 566 327 l 1
 540 347 l 1
 540 375 l 1
 540 404 l 1
 565 422 l 2
 599 447 730 473 849 480 c 2
 943 486 l 1
 970 468 l 2
 984 459 1005 433 1013 413 c 2
 1028 376 l 1
 1021 325 l 2
 1012 253 971 175 911 109 c 2
 860 53 l 1
 797 23 l 2
 726 -10 651 -27 569 -27 c 0
 543 -27 516 -25 489 -22 c 0
EndSplineSet
EndChar

StartChar: H
Encoding: 72 72 39
Width: 757
VWidth: 1160
Flags: HW
LayerCount: 2
Fore
SplineSet
61 -20 m 2
 45 -3 l 1
 39 120 l 2
 31 281 25 633 25 804 c 0
 25 858 26 894 27 900 c 0
 30 913 45 931 58 940 c 2
 83 957 l 1
 105 950 l 2
 116 946 132 936 140 928 c 2
 156 913 l 1
 156 722 l 1
 156 533 l 1
 205 540 l 2
 232 544 325 556 412 565 c 2
 570 581 l 1
 576 734 l 1
 582 886 l 1
 610 910 l 2
 628 926 640 934 652 934 c 0
 663 934 674 927 689 915 c 2
 714 895 l 1
 710 708 l 2
 710 692 710 675 710 657 c 0
 710 554 714 416 720 323 c 2
 733 127 l 1
 719 110 l 2
 711 101 694 89 683 85 c 2
 663 77 l 1
 640 87 l 2
 608 101 599 136 592 253 c 0
 589 309 583 377 580 403 c 2
 574 449 l 1
 491 441 l 2
 373 430 162 402 157 397 c 0
 157 397 156 394 156 391 c 0
 156 375 160 328 165 276 c 0
 172 204 176 148 176 106 c 0
 176 64 172 35 165 15 c 0
 153 -18 126 -38 100 -38 c 0
 86 -38 72 -32 61 -20 c 2
EndSplineSet
EndChar

StartChar: I
Encoding: 73 73 40
Width: 860
VWidth: 1074
Flags: HW
LayerCount: 2
Fore
SplineSet
57 55 m 0
 38 63 28 84 28 108 c 0
 28 116 29 125 32 133 c 2
 39 154 l 1
 74 169 l 1
 108 184 l 1
 222 184 l 1
 337 184 l 1
 330 237 l 2
 327 267 324 388 324 508 c 2
 324 726 l 1
 198 726 l 1
 72 726 l 1
 55 739 l 2
 46 746 35 761 29 772 c 2
 19 791 l 1
 29 814 l 2
 35 826 51 841 64 847 c 2
 89 860 l 1
 224 861 l 2
 299 862 438 864 534 868 c 0
 576 870 617 871 652 871 c 0
 696 871 730 869 740 867 c 0
 775 859 794 833 794 806 c 0
 794 789 786 771 768 757 c 2
 740 737 l 1
 599 737 l 1
 457 737 l 1
 457 528 l 2
 457 413 459 291 463 256 c 2
 470 193 l 1
 483 198 l 2
 490 201 563 206 644 210 c 2
 792 217 l 1
 813 195 l 2
 825 183 836 161 836 148 c 2
 836 123 l 1
 809 102 l 1
 781 81 l 1
 730 81 l 2
 701 81 587 74 473 66 c 0
 308 54 198 49 132 49 c 0
 91 49 67 51 57 55 c 0
EndSplineSet
EndChar

StartChar: J
Encoding: 74 74 41
Width: 847
VWidth: 1114
Flags: HW
LayerCount: 2
Fore
SplineSet
771 910 m 1
 798 889 l 1
 823 869 l 1
 813 795 l 1
 802 786 l 2
 796 781 733 775 663 773 c 2
 536 769 l 1
 537 734 l 2
 538 715 542 641 546 570 c 2
 553 442 l 1
 537 335 l 1
 520 229 l 1
 494 171 l 2
 452 80 413 49 310 21 c 0
 279 13 250 9 226 9 c 0
 209 9 193 11 182 15 c 0
 124 38 70 110 70 168 c 2
 70 198 l 1
 88 215 l 2
 100 226 114 231 129 231 c 0
 159 231 189 210 197 177 c 2
 203 151 l 1
 229 144 l 1
 256 138 l 1
 303 157 l 1
 350 177 l 1
 368 207 l 2
 378 224 395 282 404 335 c 2
 420 432 l 1
 414 565 l 2
 411 639 404 713 399 729 c 2
 390 759 l 1
 340 759 l 2
 312 759 240 756 180 751 c 2
 71 742 l 1
 44 768 l 2
 27 785 19 797 19 810 c 0
 19 821 25 832 37 847 c 2
 56 871 l 1
 183 883 l 2
 253 890 414 899 541 903 c 2
 771 910 l 1
EndSplineSet
EndChar

StartChar: K
Encoding: 75 75 42
Width: 729
VWidth: 1075
Flags: HW
LayerCount: 2
Fore
SplineSet
64 861 m 1
 65 860 l 1
 106 866 l 1
 148 871 l 1
 169 843 l 1
 192 815 l 1
 193 696 l 2
 193 630 196 569 200 560 c 2
 207 543 l 1
 407 681 l 2
 517 757 616 824 628 828 c 2
 649 836 l 1
 674 824 l 1
 698 811 l 1
 701 778 l 1
 705 744 l 1
 681 718 l 2
 668 704 632 676 601 656 c 0
 570 636 471 567 382 506 c 2
 220 394 l 1
 244 376 l 2
 257 366 305 341 350 322 c 0
 600 212 669 178 680 164 c 0
 687 155 693 134 693 119 c 2
 693 91 l 1
 668 74 l 1
 642 58 l 1
 614 65 l 2
 599 69 501 111 397 158 c 0
 296 204 211 240 205 240 c 0
 205 240 204 240 204 235 c 0
 204 227 207 211 211 192 c 0
 217 167 222 130 222 110 c 2
 222 72 l 1
 207 60 l 2
 197 52 182 48 168 48 c 0
 150 48 132 54 119 67 c 2
 99 86 l 1
 84 157 l 2
 76 196 69 248 69 273 c 2
 69 318 l 1
 43 338 l 2
 27 351 18 364 18 378 c 0
 18 392 26 406 42 425 c 2
 67 455 l 1
 60 621 l 1
 55 787 l 1
 54 786 l 1
 64 861 l 1
EndSplineSet
EndChar

StartChar: L
Encoding: 76 76 43
Width: 775
VWidth: 1125
Flags: HW
LayerCount: 2
Fore
SplineSet
74 12 m 2
 60 20 41 42 34 59 c 2
 21 91 l 1
 28 405 l 2
 32 578 37 753 40 796 c 2
 46 874 l 1
 65 897 l 1
 83 922 l 1
 116 922 l 1
 150 922 l 1
 164 903 l 1
 179 882 l 1
 173 785 l 2
 166 662 157 322 157 192 c 0
 157 160 158 140 159 140 c 0
 162 140 244 152 342 166 c 0
 440 180 560 196 609 199 c 2
 699 204 l 1
 725 187 l 1
 751 170 l 1
 751 141 l 1
 751 111 l 1
 724 90 l 1
 696 68 l 1
 639 68 l 2
 607 68 537 62 484 53 c 0
 431 44 339 30 280 22 c 0
 221 14 155 5 136 2 c 2
 100 -4 l 1
 74 12 l 2
EndSplineSet
EndChar

StartChar: M
Encoding: 77 77 44
Width: 775
VWidth: 1130
Flags: HW
LayerCount: 2
Fore
SplineSet
649 6 m 2
 628 21 l 1
 618 85 l 2
 606 157 585 440 582 580 c 2
 580 672 l 1
 528 596 l 2
 499 555 457 495 433 461 c 2
 390 400 l 1
 355 383 l 1
 321 367 l 1
 292 374 l 1
 262 381 l 1
 212 435 l 1
 162 488 l 1
 168 452 l 2
 179 382 194 175 194 104 c 0
 194 93 194 85 193 82 c 0
 189 68 176 52 163 46 c 2
 139 34 l 1
 117 42 l 2
 89 52 73 84 68 133 c 0
 40 379 22 600 22 693 c 2
 22 806 l 1
 40 824 l 2
 50 833 74 841 90 841 c 2
 121 841 l 1
 142 817 l 2
 154 804 165 785 165 776 c 0
 165 742 290 524 309 524 c 0
 313 524 357 580 405 649 c 0
 566 877 580 897 607 912 c 2
 634 927 l 1
 661 915 l 2
 675 908 692 890 697 876 c 0
 702 862 713 725 718 573 c 0
 723 421 732 236 739 162 c 2
 752 28 l 1
 729 10 l 2
 714 -2 700 -8 687 -8 c 0
 675 -8 663 -3 649 6 c 2
EndSplineSet
EndChar

StartChar: N
Encoding: 78 78 45
Width: 742
VWidth: 1118
Flags: HW
LayerCount: 2
Fore
SplineSet
64 13 m 0
 52 18 38 27 34 34 c 0
 31 40 28 185 28 371 c 0
 28 399 28 428 28 458 c 2
 31 868 l 1
 45 891 l 1
 60 914 l 1
 90 914 l 2
 138 914 151 903 179 848 c 0
 234 739 548 305 570 305 c 0
 571 305 571 306 571 307 c 0
 571 330 530 738 525 765 c 2
 519 797 l 1
 542 825 l 1
 563 852 l 1
 592 852 l 2
 607 852 627 845 636 835 c 2
 652 817 l 1
 669 668 l 2
 678 586 690 480 695 431 c 0
 700 382 709 284 712 214 c 2
 718 89 l 1
 706 66 l 2
 699 54 682 38 669 33 c 2
 643 24 l 1
 619 35 l 2
 605 41 580 66 565 89 c 0
 550 112 495 183 444 248 c 0
 353 363 215 545 181 596 c 2
 165 622 l 1
 164 403 l 2
 164 282 161 152 157 113 c 2
 150 42 l 1
 124 23 l 2
 108 10 101 5 92 5 c 0
 85 5 77 8 64 13 c 0
EndSplineSet
EndChar

StartChar: O
Encoding: 79 79 46
Width: 877
VWidth: 1089
Flags: HW
LayerCount: 2
Fore
SplineSet
476 182 m 2
 532 199 l 1
 588 256 l 2
 619 288 658 339 674 370 c 2
 704 425 l 1
 709 507 l 1
 713 589 l 1
 688 635 l 2
 675 661 645 697 621 714 c 2
 579 746 l 1
 504 753 l 1
 429 760 l 1
 372 739 l 2
 266 699 203 625 164 493 c 0
 155 462 148 422 148 405 c 0
 148 336 229 221 306 181 c 0
 326 171 351 166 380 166 c 0
 409 166 442 171 476 182 c 2
282 50 m 2
 226 66 l 1
 158 130 l 1
 89 194 l 1
 54 264 l 1
 20 333 l 1
 21 410 l 1
 22 488 l 1
 45 553 l 2
 78 646 99 686 147 740 c 0
 223 826 338 883 439 885 c 0
 447 885 458 885 471 885 c 0
 502 885 541 885 574 884 c 2
 656 881 l 1
 703 840 l 1
 750 800 l 1
 791 719 l 1
 833 639 l 1
 843 577 l 1
 853 514 l 1
 839 450 l 2
 821 365 811 342 762 264 c 0
 688 146 599 79 478 47 c 0
 444 38 415 34 386 34 c 0
 353 34 320 39 282 50 c 2
EndSplineSet
EndChar

StartChar: P
Encoding: 80 80 47
Width: 752
VWidth: 1117
Flags: HW
LayerCount: 2
Fore
SplineSet
372 495 m 0
 504 529 526 540 566 592 c 2
 593 627 l 1
 590 655 l 1
 587 682 l 1
 551 712 l 1
 515 741 l 1
 454 756 l 2
 414 766 364 771 319 771 c 0
 281 771 248 767 227 760 c 2
 195 748 l 1
 188 709 l 2
 186 697 185 674 185 646 c 0
 185 622 186 594 188 568 c 2
 196 464 l 1
 223 464 l 2
 238 464 306 479 372 495 c 0
107 20 m 0
 98 29 84 47 78 59 c 2
 67 80 l 1
 58 254 l 2
 54 349 50 492 50 569 c 2
 49 708 l 1
 34 720 l 2
 26 727 19 748 19 764 c 2
 19 795 l 1
 62 835 l 1
 106 874 l 1
 133 874 l 2
 148 874 175 879 190 885 c 0
 205 891 238 900 264 905 c 2
 310 914 l 1
 404 900 l 2
 602 870 725 774 725 650 c 2
 725 608 l 1
 700 559 l 2
 687 531 653 488 625 463 c 2
 575 418 l 1
 504 396 l 2
 406 364 321 343 250 335 c 2
 191 328 l 1
 195 209 l 2
 197 143 203 82 207 73 c 2
 215 56 l 1
 188 30 l 2
 171 13 155 4 140 4 c 0
 128 4 117 10 107 20 c 0
EndSplineSet
EndChar

StartChar: Q
Encoding: 81 81 48
Width: 1171
VWidth: 1095
Flags: HW
LayerCount: 2
Fore
SplineSet
574 186 m 0
 578 190 571 198 560 204 c 0
 549 210 525 230 507 248 c 2
 473 282 l 1
 473 305 l 2
 473 337 503 366 535 366 c 2
 561 366 l 1
 632 315 l 2
 671 286 709 264 716 264 c 0
 736 264 789 335 806 384 c 0
 816 414 821 434 821 454 c 0
 821 471 817 488 811 511 c 0
 789 590 724 638 611 663 c 0
 530 680 514 688 502 724 c 2
 492 755 l 1
 449 755 l 1
 406 755 l 1
 350 727 l 2
 319 712 269 673 237 642 c 2
 178 586 l 1
 167 545 l 2
 160 520 157 492 157 462 c 0
 157 368 189 262 237 219 c 0
 248 209 282 193 312 186 c 2
 366 171 l 1
 466 175 l 2
 521 177 570 182 574 186 c 0
849 49 m 2
 810 60 765 76 748 85 c 2
 717 101 l 1
 665 79 l 2
 597 52 526 39 450 39 c 0
 402 39 352 44 301 55 c 0
 210 73 171 95 121 153 c 0
 76 205 45 285 31 389 c 2
 20 469 l 1
 32 538 l 1
 45 607 l 1
 76 655 l 2
 121 726 208 800 293 842 c 2
 367 879 l 1
 424 884 l 1
 481 890 l 1
 537 878 l 2
 602 863 686 820 699 795 c 0
 704 786 734 765 766 750 c 0
 868 700 921 629 944 512 c 2
 958 449 l 1
 944 395 l 2
 930 333 891 248 862 217 c 0
 851 206 842 192 842 189 c 0
 842 177 939 163 1013 163 c 0
 1020 163 1026 163 1032 163 c 2
 1111 166 l 1
 1130 141 l 1
 1149 115 l 1
 1143 93 l 2
 1140 81 1125 63 1112 54 c 2
 1087 37 l 1
 1003 32 l 1
 919 28 l 1
 849 49 l 2
EndSplineSet
EndChar

StartChar: R
Encoding: 82 82 49
Width: 623
VWidth: 1102
Flags: HW
LayerCount: 2
Fore
SplineSet
289 494 m 2
 402 552 l 1
 405 588 l 1
 408 624 l 1
 388 656 l 1
 368 688 l 1
 321 700 l 2
 295 706 248 723 217 736 c 2
 161 761 l 1
 161 597 l 2
 161 507 165 435 169 435 c 0
 173 435 228 461 289 494 c 2
62 26 m 0
 50 30 37 39 33 46 c 0
 30 52 27 186 27 357 c 0
 27 383 27 410 27 437 c 2
 29 816 l 1
 43 843 l 2
 51 858 69 877 83 884 c 2
 109 898 l 1
 154 893 l 2
 193 889 266 863 410 805 c 0
 432 797 462 773 478 755 c 2
 508 721 l 1
 530 654 l 1
 550 585 l 1
 539 543 l 1
 527 501 l 1
 489 464 l 2
 467 444 401 403 341 372 c 2
 232 317 l 1
 252 300 l 2
 263 291 333 258 407 225 c 0
 546 164 601 124 601 87 c 0
 601 60 568 25 542 25 c 0
 524 25 336 108 221 167 c 2
 163 197 l 1
 156 135 l 2
 148 58 125 21 88 21 c 0
 80 21 71 23 62 26 c 0
EndSplineSet
EndChar

StartChar: S
Encoding: 83 83 50
Width: 695
VWidth: 1103
Flags: HW
LayerCount: 2
Fore
SplineSet
250 34 m 0
 152 52 139 55 103 86 c 2
 73 112 l 1
 73 137 l 2
 73 168 106 202 135 202 c 0
 146 202 166 197 178 191 c 0
 217 171 321 152 406 152 c 2
 487 152 l 1
 512 164 l 2
 525 171 539 182 541 189 c 0
 541 191 542 192 542 194 c 0
 542 216 500 245 444 260 c 0
 370 280 232 333 185 360 c 0
 166 371 132 396 110 416 c 2
 71 453 l 1
 45 509 l 1
 20 566 l 1
 26 621 l 2
 40 742 120 824 276 877 c 2
 339 898 l 1
 390 898 l 2
 492 898 560 849 571 766 c 2
 577 727 l 1
 555 705 l 1
 533 682 l 1
 505 686 l 1
 477 689 l 1
 452 729 l 1
 426 767 l 1
 375 763 l 1
 324 759 l 1
 273 735 l 2
 195 696 156 652 156 604 c 0
 156 577 168 549 192 521 c 0
 227 480 293 447 443 398 c 0
 578 354 614 332 647 279 c 2
 669 242 l 1
 670 192 l 1
 671 141 l 1
 650 113 l 2
 623 76 570 41 524 28 c 0
 503 22 468 19 427 19 c 0
 370 19 303 25 250 34 c 0
EndSplineSet
EndChar

StartChar: T
Encoding: 84 84 51
Width: 874
VWidth: 1072
Flags: HW
LayerCount: 2
Fore
SplineSet
434 60 m 0
 422 66 406 83 400 97 c 2
 388 123 l 1
 389 242 l 2
 389 294 390 343 390 388 c 0
 390 562 387 670 381 679 c 2
 374 691 l 1
 251 676 l 2
 200 670 148 667 117 667 c 0
 106 667 99 667 94 668 c 0
 49 676 20 709 20 740 c 0
 20 754 26 767 39 778 c 2
 56 793 l 1
 224 808 l 2
 316 817 395 829 398 834 c 0
 401 839 416 850 428 857 c 2
 451 868 l 1
 486 851 l 1
 522 834 l 1
 612 837 l 2
 641 838 674 839 702 839 c 0
 722 839 740 838 751 838 c 2
 800 837 l 1
 824 811 l 2
 838 797 850 779 850 770 c 0
 850 761 838 743 824 729 c 2
 800 704 l 1
 655 704 l 1
 510 704 l 1
 518 660 l 2
 522 636 525 499 525 356 c 2
 525 96 l 1
 498 72 l 2
 480 57 472 50 462 50 c 0
 455 50 447 54 434 60 c 0
EndSplineSet
EndChar

StartChar: U
Encoding: 85 85 52
Width: 648
VWidth: 1071
Flags: HW
LayerCount: 2
Fore
SplineSet
168 75 m 0
 101 109 58 161 36 233 c 2
 20 289 l 1
 26 397 l 2
 35 571 90 800 133 850 c 0
 143 862 159 868 175 868 c 0
 192 868 209 861 220 849 c 0
 231 837 236 821 236 801 c 0
 236 778 230 750 216 714 c 0
 186 634 167 527 159 398 c 2
 153 286 l 1
 166 254 l 2
 173 237 192 213 208 202 c 2
 237 182 l 1
 276 192 l 2
 330 206 396 267 428 328 c 0
 466 402 482 498 484 654 c 2
 487 790 l 1
 506 808 l 2
 518 820 532 826 547 826 c 0
 580 826 613 798 619 756 c 0
 619 753 620 746 620 738 c 0
 620 708 617 650 614 591 c 2
 607 454 l 1
 586 377 l 2
 557 276 515 204 450 146 c 0
 387 89 362 76 291 61 c 0
 260 55 245 51 232 51 c 0
 215 51 202 58 168 75 c 0
EndSplineSet
EndChar

StartChar: V
Encoding: 86 86 53
Width: 712
VWidth: 1108
Flags: HW
LayerCount: 2
Fore
SplineSet
333 19 m 0
 304 29 299 37 218 193 c 0
 145 334 100 450 82 551 c 0
 76 582 59 651 45 703 c 2
 19 797 l 1
 35 823 l 1
 52 848 l 1
 78 848 l 2
 140 848 159 813 200 625 c 0
 231 483 255 410 302 318 c 2
 337 249 l 1
 342 265 l 2
 345 273 360 317 375 362 c 0
 405 449 426 508 514 725 c 2
 570 863 l 1
 598 883 l 1
 626 905 l 1
 653 889 l 1
 681 873 l 1
 684 839 l 1
 688 804 l 1
 642 691 l 2
 594 571 534 417 502 331 c 0
 492 302 470 233 455 175 c 0
 425 60 399 14 358 14 c 0
 350 14 342 16 333 19 c 0
EndSplineSet
EndChar

StartChar: W
Encoding: 87 87 54
Width: 1081
VWidth: 1104
Flags: HW
LayerCount: 2
Fore
SplineSet
268 31 m 0
 235 47 199 114 190 172 c 0
 180 239 102 520 63 628 c 2
 30 720 l 1
 25 783 l 1
 20 845 l 1
 43 862 l 2
 58 873 71 878 83 878 c 0
 98 878 113 870 130 853 c 2
 156 828 l 1
 156 794 l 2
 156 776 169 722 186 674 c 0
 223 570 309 274 309 250 c 0
 309 241 314 234 319 234 c 0
 330 234 422 356 422 371 c 0
 422 389 495 456 524 463 c 2
 550 470 l 1
 578 449 l 1
 604 427 l 1
 621 372 l 2
 630 341 648 299 661 275 c 2
 685 233 l 1
 734 374 l 2
 804 575 896 801 927 847 c 2
 952 886 l 1
 980 893 l 1
 1008 900 l 1
 1032 884 l 1
 1057 868 l 1
 1057 837 l 2
 1057 821 1042 783 1026 753 c 0
 975 661 855 338 800 148 c 0
 788 104 767 56 757 43 c 2
 737 19 l 1
 704 19 l 1
 670 19 l 1
 648 36 l 2
 637 46 609 92 585 137 c 0
 561 182 535 229 528 241 c 2
 516 265 l 1
 471 206 l 2
 446 174 409 125 387 96 c 0
 353 52 317 20 299 19 c 0
 296 19 282 24 268 31 c 0
EndSplineSet
EndChar

StartChar: X
Encoding: 88 88 55
Width: 800
VWidth: 1093
Flags: HW
LayerCount: 2
Fore
SplineSet
634 83 m 0
 599 113 556 149 539 162 c 0
 522 175 476 216 438 253 c 0
 401 289 370 316 366 316 c 0
 365 316 366 316 293 209 c 0
 255 153 214 99 203 89 c 0
 189 77 175 72 161 72 c 0
 130 72 102 99 102 140 c 2
 102 171 l 1
 127 201 l 2
 160 241 277 420 277 431 c 0
 277 444 150 605 85 675 c 2
 31 735 l 1
 25 764 l 1
 19 795 l 1
 47 818 l 1
 76 840 l 1
 101 834 l 2
 130 828 156 801 274 657 c 0
 316 605 351 563 353 563 c 0
 355 563 367 579 380 601 c 0
 441 703 547 856 565 872 c 0
 578 883 594 888 608 888 c 0
 640 888 668 864 668 826 c 2
 668 801 l 1
 604 706 l 2
 569 654 518 574 491 529 c 2
 441 447 l 1
 489 392 l 2
 515 361 586 294 647 243 c 0
 761 149 778 129 778 93 c 0
 778 71 734 30 711 30 c 0
 704 30 669 53 634 83 c 0
EndSplineSet
EndChar

StartChar: Y
Encoding: 89 89 56
Width: 639
VWidth: 1214
Flags: HW
LayerCount: 2
Fore
SplineSet
287 38 m 2
 257 68 l 1
 257 132 l 2
 257 168 252 246 247 304 c 2
 238 410 l 1
 223 427 l 2
 211 441 88 641 38 728 c 2
 19 762 l 1
 26 790 l 2
 30 805 44 825 58 834 c 2
 84 851 l 1
 108 840 l 2
 121 834 143 811 156 788 c 0
 252 625 281 582 284 582 c 0
 286 582 307 603 331 630 c 0
 433 744 522 817 559 817 c 0
 589 817 616 787 616 754 c 2
 616 727 l 1
 492 603 l 1
 367 478 l 1
 374 400 l 2
 378 357 383 261 387 187 c 2
 393 52 l 1
 365 31 l 2
 347 17 337 10 327 10 c 0
 316 10 306 19 287 38 c 2
EndSplineSet
EndChar

StartChar: Z
Encoding: 90 90 57
Width: 821
VWidth: 1046
Flags: HW
LayerCount: 2
Fore
SplineSet
45 37 m 1
 19 57 l 1
 19 80 l 2
 20 117 39 141 141 230 c 0
 194 277 317 391 412 483 c 2
 585 652 l 1
 332 649 l 1
 79 646 l 1
 59 663 l 1
 39 681 l 1
 39 710 l 1
 39 740 l 1
 66 762 l 1
 93 783 l 1
 386 783 l 1
 679 782 l 1
 721 764 l 1
 763 744 l 1
 775 714 l 1
 789 682 l 1
 774 654 l 2
 767 639 715 584 659 534 c 0
 603 484 496 383 421 310 c 2
 286 178 l 1
 319 183 l 2
 394 195 468 210 536 224 c 0
 575 232 639 240 679 240 c 2
 752 240 l 1
 774 224 l 1
 797 209 l 1
 797 180 l 2
 797 165 789 143 782 133 c 2
 769 115 l 1
 663 106 l 2
 605 102 517 89 469 78 c 0
 421 67 360 54 331 51 c 0
 228 39 116 23 94 19 c 2
 72 15 l 1
 45 37 l 1
EndSplineSet
EndChar

StartChar: bracketleft
Encoding: 91 91 58
Width: 395
Flags: HW
LayerCount: 2
Fore
SplineSet
98 -10 m 0
 82 -6 62 7 56 18 c 2
 45 40 l 1
 36 226 l 2
 31 328 27 482 27 568 c 2
 27 725 l 1
 51 750 l 2
 78 777 158 804 240 813 c 2
 294 819 l 1
 319 796 l 1
 344 772 l 1
 344 744 l 1
 344 717 l 1
 323 697 l 1
 301 678 l 1
 232 673 l 1
 165 668 l 1
 166 452 l 2
 167 333 171 210 175 177 c 2
 182 117 l 1
 255 123 l 2
 276 125 292 126 305 126 c 0
 341 126 351 118 364 92 c 2
 375 70 l 1
 365 44 l 2
 360 30 345 12 332 5 c 0
 311 -6 224 -15 160 -15 c 0
 133 -15 111 -13 98 -10 c 0
EndSplineSet
EndChar

StartChar: backslash
Encoding: 92 92 59
Width: 707
Flags: HW
LayerCount: 2
Fore
SplineSet
592 -3 m 2
 565 11 l 1
 470 141 l 2
 418 213 329 332 272 406 c 0
 101 625 42 705 31 734 c 2
 21 762 l 1
 37 786 l 2
 51 809 66 819 86 819 c 0
 92 819 99 818 107 816 c 2
 130 810 l 1
 228 680 l 2
 282 608 354 512 390 467 c 0
 514 309 687 67 687 52 c 0
 687 28 660 -6 637 -12 c 0
 635 -13 632 -13 629 -13 c 0
 618 -13 603 -9 592 -3 c 2
EndSplineSet
EndChar

StartChar: bracketright
Encoding: 93 93 60
Width: 387
Flags: HW
LayerCount: 2
Fore
SplineSet
128 -22 m 0
 78 -14 62 -3 52 25 c 2
 44 46 l 1
 54 69 l 2
 59 81 78 96 94 103 c 2
 124 116 l 1
 176 110 l 1
 228 103 l 1
 222 249 l 2
 219 329 213 460 209 540 c 2
 202 684 l 1
 165 680 l 2
 145 677 114 673 99 671 c 2
 71 666 l 1
 45 691 l 2
 29 707 21 719 21 731 c 0
 21 741 26 751 36 765 c 2
 52 787 l 1
 104 804 l 2
 133 812 188 819 227 819 c 2
 297 819 l 1
 315 801 l 1
 335 781 l 1
 342 583 l 2
 346 473 353 308 357 215 c 2
 366 46 l 1
 355 17 l 2
 350 2 338 -15 328 -20 c 0
 317 -26 279 -29 236 -29 c 0
 199 -29 158 -27 128 -22 c 0
EndSplineSet
EndChar

StartChar: asciicircum
Encoding: 94 94 61
Width: 528
Flags: HW
LayerCount: 2
Fore
SplineSet
74 447 m 0
 41 458 23 480 23 509 c 0
 23 527 30 547 43 568 c 0
 71 612 265 798 298 810 c 2
 323 819 l 1
 352 807 l 2
 368 801 391 781 403 764 c 0
 420 739 475 609 500 530 c 2
 505 514 l 1
 480 485 l 1
 456 457 l 1
 429 464 l 2
 388 474 365 505 340 584 c 2
 317 654 l 1
 300 645 l 2
 281 635 167 517 144 484 c 0
 129 461 103 446 83 446 c 0
 80 446 77 446 74 447 c 0
EndSplineSet
EndChar

StartChar: underscore
Encoding: 95 95 62
Width: 967
Flags: HW
LayerCount: 2
Fore
SplineSet
68 -55 m 0
 59 -52 45 -37 38 -24 c 2
 25 0 l 1
 39 28 l 2
 47 43 61 59 71 64 c 0
 81 69 265 74 480 76 c 2
 871 79 l 1
 902 63 l 1
 934 47 l 1
 940 23 l 2
 941 18 942 13 942 8 c 0
 942 -19 924 -45 900 -50 c 0
 879 -55 531 -58 292 -58 c 0
 169 -58 74 -57 68 -55 c 0
EndSplineSet
EndChar

StartChar: grave
Encoding: 96 96 63
Width: 285
Flags: HW
LayerCount: 2
Fore
SplineSet
171 545 m 0
 136 559 60 650 37 702 c 2
 23 737 l 1
 29 766 l 2
 37 802 56 819 90 819 c 0
 121 819 157 791 157 765 c 0
 157 755 179 719 208 685 c 2
 259 625 l 1
 259 594 l 2
 259 558 237 537 206 537 c 0
 195 537 183 540 171 545 c 0
EndSplineSet
EndChar

StartChar: a
Encoding: 97 97 64
Width: 644
VWidth: 737
Flags: HW
LayerCount: 2
Fore
SplineSet
270 158 m 0
 308 190 375 321 377 368 c 2
 379 402 l 1
 349 406 l 2
 346 406 343 407 339 407 c 0
 295 407 236 379 196 338 c 2
 158 299 l 1
 152 248 l 1
 145 197 l 1
 173 164 l 2
 191 143 205 133 221 133 c 0
 235 133 250 141 270 158 c 0
154 15 m 0
 113 37 70 78 43 121 c 2
 21 156 l 1
 21 228 l 1
 21 300 l 1
 42 348 l 2
 85 442 208 527 318 538 c 2
 371 544 l 1
 440 519 l 1
 509 495 l 1
 523 473 l 1
 539 451 l 1
 522 337 l 2
 513 275 507 209 507 193 c 2
 507 163 l 1
 543 169 l 1
 579 175 l 1
 599 157 l 1
 620 138 l 1
 620 111 l 1
 620 82 l 1
 584 51 l 2
 565 34 535 17 518 13 c 2
 487 7 l 1
 456 24 l 2
 439 33 418 51 409 65 c 2
 391 90 l 1
 350 54 l 2
 307 18 261 -1 218 -1 c 0
 195 -1 174 4 154 15 c 0
EndSplineSet
EndChar

StartChar: b
Encoding: 98 98 65
Width: 653
VWidth: 896
Flags: HW
LayerCount: 2
Fore
SplineSet
334 157 m 2
 383 173 l 1
 427 216 l 1
 470 260 l 1
 482 317 l 1
 496 376 l 1
 486 385 l 2
 473 398 398 413 344 413 c 0
 334 413 324 412 316 411 c 2
 267 403 l 1
 225 374 l 1
 183 343 l 1
 190 315 l 2
 193 300 198 270 201 247 c 0
 204 224 209 191 212 173 c 2
 217 139 l 1
 250 139 l 2
 268 139 306 148 334 157 c 2
136 22 m 2
 100 48 94 70 72 204 c 0
 38 415 22 557 22 664 c 0
 22 711 25 751 31 788 c 2
 39 839 l 1
 57 853 l 2
 69 861 83 866 97 866 c 0
 111 866 126 861 139 852 c 2
 160 838 l 1
 160 670 l 1
 160 503 l 1
 175 505 l 2
 183 506 220 518 256 530 c 2
 321 553 l 1
 404 541 l 1
 486 528 l 1
 533 506 l 2
 589 477 616 443 623 387 c 2
 628 344 l 1
 615 296 l 2
 581 173 521 99 406 46 c 2
 334 12 l 1
 247 8 l 1
 160 5 l 1
 136 22 l 2
EndSplineSet
EndChar

StartChar: c
Encoding: 99 99 66
Width: 610
VWidth: 785
Flags: HW
LayerCount: 2
Fore
SplineSet
191 17 m 2
 152 28 l 1
 106 73 l 2
 80 98 50 137 39 161 c 2
 20 205 l 1
 21 261 l 2
 22 335 35 370 93 450 c 2
 142 515 l 1
 198 543 l 1
 253 569 l 1
 314 575 l 1
 375 581 l 1
 447 559 l 1
 518 538 l 1
 550 501 l 1
 583 465 l 1
 583 429 l 1
 583 393 l 1
 557 368 l 2
 540 351 524 343 509 343 c 0
 487 343 468 360 450 393 c 2
 430 432 l 1
 391 438 l 2
 366 442 347 444 329 444 c 0
 302 444 281 439 259 429 c 2
 224 413 l 1
 188 357 l 1
 153 303 l 1
 153 264 l 1
 153 225 l 1
 171 197 l 2
 199 156 223 139 281 139 c 0
 309 139 345 143 392 150 c 0
 421 154 453 156 474 156 c 0
 484 156 491 156 495 155 c 2
 519 148 l 1
 526 127 l 2
 528 119 530 112 530 104 c 0
 530 79 518 55 498 44 c 0
 455 21 366 7 288 7 c 0
 251 7 217 10 191 17 c 2
EndSplineSet
EndChar

StartChar: d
Encoding: 100 100 67
Width: 751
VWidth: 900
Flags: HW
LayerCount: 2
Fore
SplineSet
357 168 m 2
 373 183 395 211 404 229 c 2
 419 263 l 1
 419 357 l 1
 419 452 l 1
 400 466 l 2
 390 473 363 479 337 479 c 2
 291 480 l 1
 257 459 l 1
 223 438 l 1
 193 375 l 2
 177 340 160 290 157 264 c 2
 151 217 l 1
 167 184 l 2
 186 148 210 134 258 134 c 0
 264 134 272 135 279 135 c 2
 328 139 l 1
 357 168 l 2
199 8 m 0
 125 25 78 65 41 139 c 2
 20 182 l 1
 20 226 l 2
 20 285 43 368 81 445 c 2
 113 510 l 1
 155 546 l 1
 198 583 l 1
 249 598 l 2
 281 607 316 612 348 612 c 0
 373 612 396 609 413 603 c 2
 439 593 l 1
 444 621 l 2
 457 683 493 794 509 828 c 2
 526 864 l 1
 564 867 l 1
 602 870 l 1
 620 844 l 1
 637 817 l 1
 630 759 l 2
 626 726 615 668 607 629 c 0
 593 562 571 350 569 262 c 2
 568 223 l 1
 586 207 l 1
 602 189 l 1
 622 207 l 2
 634 218 648 224 662 224 c 0
 678 224 693 217 707 203 c 2
 728 181 l 1
 722 148 l 1
 716 117 l 1
 685 88 l 1
 654 60 l 1
 610 60 l 1
 567 60 l 1
 526 85 l 1
 485 110 l 1
 443 70 l 1
 400 31 l 1
 346 14 l 2
 314 4 287 0 261 -0 c 0
 241 0 221 3 199 8 c 0
EndSplineSet
EndChar

StartChar: e
Encoding: 101 101 68
Width: 660
VWidth: 806
Flags: HW
LayerCount: 2
Fore
SplineSet
371 406 m 0
 390 412 415 423 425 432 c 2
 443 449 l 1
 440 469 l 1
 437 490 l 1
 376 494 l 2
 371 494 366 494 360 494 c 0
 329 494 294 490 277 485 c 0
 237 473 166 415 166 393 c 2
 166 381 l 1
 250 387 l 2
 296 391 352 400 371 406 c 0
236 18 m 0
 147 42 78 112 42 215 c 2
 21 275 l 1
 25 342 l 1
 29 409 l 1
 53 458 l 2
 82 514 136 565 206 600 c 2
 253 624 l 1
 360 624 l 1
 468 624 l 1
 504 602 l 2
 523 591 548 565 558 546 c 2
 577 511 l 1
 571 456 l 1
 566 401 l 1
 539 366 l 2
 487 298 429 274 265 256 c 2
 165 245 l 1
 188 209 l 2
 201 190 230 165 252 154 c 2
 291 133 l 1
 359 146 l 2
 396 153 455 173 490 189 c 0
 531 208 560 218 581 218 c 0
 598 218 609 212 620 200 c 0
 631 187 636 173 636 159 c 0
 636 147 632 134 623 121 c 0
 600 89 488 37 399 19 c 0
 352 10 328 5 306 5 c 0
 285 5 267 10 236 18 c 0
EndSplineSet
EndChar

StartChar: f
Encoding: 102 102 69
Width: 803
VWidth: 901
Flags: HW
LayerCount: 2
Fore
SplineSet
257 13 m 0
 231 27 220 46 197 105 c 0
 177 160 156 279 156 339 c 2
 155 398 l 1
 112 392 l 1
 68 385 l 1
 43 404 l 1
 20 424 l 1
 20 454 l 1
 20 483 l 1
 42 502 l 1
 65 519 l 1
 124 526 l 1
 183 532 l 1
 195 558 l 2
 201 571 206 588 206 595 c 0
 206 619 297 744 341 779 c 0
 398 825 434 843 504 858 c 2
 560 870 l 1
 650 867 l 1
 740 863 l 1
 761 839 l 1
 781 813 l 1
 774 787 l 2
 771 773 763 757 758 751 c 0
 753 745 695 738 628 735 c 2
 507 729 l 1
 460 701 l 1
 412 674 l 1
 370 614 l 1
 328 556 l 1
 519 551 l 1
 710 546 l 1
 729 521 l 2
 742 506 748 492 748 479 c 0
 748 467 743 456 734 443 c 2
 720 423 l 1
 514 418 l 1
 308 413 l 1
 298 397 l 1
 287 382 l 1
 293 304 l 2
 298 230 311 176 340 104 c 2
 353 74 l 1
 346 48 l 1
 340 23 l 1
 313 10 l 2
 298 3 292 0 286 -0 c 0
 280 0 274 4 257 13 c 0
EndSplineSet
EndChar

StartChar: g
Encoding: 103 103 70
Width: 718
VWidth: 947
Flags: HW
LayerCount: 2
Fore
SplineSet
299 159 m 2
 385 204 481 300 494 353 c 2
 500 378 l 1
 459 401 l 2
 433 416 417 423 397 423 c 0
 380 423 359 418 327 409 c 2
 273 392 l 1
 237 360 l 2
 194 322 164 268 155 210 c 2
 149 168 l 1
 161 153 l 1
 174 137 l 1
 216 137 l 1
 258 137 l 1
 299 159 l 2
268 -390 m 2
 213 -369 182 -330 182 -296 c 0
 182 -271 198 -248 233 -237 c 1
 253 -229 l 1
 290 -252 l 1
 326 -274 l 1
 393 -270 l 1
 461 -266 l 1
 490 -233 l 2
 505 -216 523 -185 529 -163 c 0
 541 -121 556 51 556 128 c 0
 556 143 555 155 554 161 c 2
 548 189 l 1
 487 133 l 1
 426 77 l 1
 351 40 l 1
 277 4 l 1
 221 4 l 1
 166 5 l 1
 125 24 l 2
 55 56 20 108 20 182 c 0
 20 220 29 264 48 314 c 2
 71 373 l 1
 121 429 l 1
 172 484 l 1
 225 510 l 2
 255 523 305 541 338 547 c 2
 396 559 l 1
 453 547 l 2
 484 541 520 526 533 516 c 2
 557 498 l 1
 597 503 l 1
 637 508 l 1
 657 486 l 1
 677 464 l 1
 685 283 l 1
 692 101 l 1
 682 -18 l 1
 672 -139 l 1
 652 -201 l 2
 641 -235 619 -281 604 -303 c 2
 576 -343 l 1
 524 -371 l 1
 473 -399 l 1
 391 -402 l 1
 309 -406 l 1
 268 -390 l 2
EndSplineSet
EndChar

StartChar: h
Encoding: 104 104 71
Width: 771
VWidth: 950
Flags: HW
LayerCount: 2
Fore
SplineSet
121 3 m 0
 67 21 53 76 45 298 c 0
 42 382 34 514 28 590 c 0
 24 646 21 714 21 765 c 0
 21 784 21 800 22 813 c 2
 27 899 l 1
 46 926 l 2
 56 940 74 957 82 962 c 2
 97 972 l 1
 125 965 l 2
 139 961 157 949 163 937 c 2
 174 914 l 1
 162 869 l 1
 149 823 l 1
 156 693 l 2
 160 621 165 536 169 501 c 2
 175 438 l 1
 237 478 l 2
 271 500 322 527 353 538 c 2
 409 559 l 1
 461 559 l 2
 490 559 537 551 567 543 c 2
 622 527 l 1
 668 486 l 1
 714 446 l 1
 730 398 l 2
 740 368 745 346 745 315 c 0
 745 284 740 244 730 182 c 2
 714 83 l 1
 697 66 l 2
 682 49 664 41 647 41 c 0
 626 41 606 54 593 78 c 2
 582 97 l 1
 599 199 l 1
 616 300 l 1
 608 337 l 1
 602 374 l 1
 571 395 l 1
 541 418 l 1
 481 423 l 1
 422 428 l 1
 362 399 l 2
 329 383 275 344 241 313 c 2
 180 257 l 1
 186 148 l 1
 194 40 l 1
 175 25 l 2
 155 8 144 1 133 1 c 0
 129 1 125 1 121 3 c 0
EndSplineSet
EndChar

StartChar: i
Encoding: 105 105 72
Width: 444
VWidth: 846
Flags: HW
LayerCount: 2
Fore
SplineSet
106 24 m 0
 68 42 48 69 31 126 c 2
 19 167 l 1
 30 242 l 2
 42 321 92 444 120 466 c 0
 131 474 143 478 155 478 c 0
 186 478 215 452 215 415 c 0
 215 401 204 362 190 327 c 0
 176 292 162 240 158 209 c 2
 152 154 l 1
 164 145 l 2
 169 142 176 140 184 140 c 0
 212 140 253 159 291 191 c 2
 340 232 l 1
 364 232 l 2
 395 232 420 202 420 165 c 2
 420 134 l 1
 382 97 l 2
 360 77 320 48 290 34 c 2
 237 7 l 1
 187 7 l 2
 160 7 124 15 106 24 c 0
125 536 m 0
 108 543 87 560 81 574 c 2
 70 600 l 1
 76 627 l 2
 80 642 95 666 108 679 c 2
 132 703 l 1
 167 703 l 1
 202 703 l 1
 223 680 l 2
 237 665 245 650 245 633 c 0
 245 616 237 596 221 571 c 0
 202 540 185 527 163 527 c 0
 152 527 140 530 125 536 c 0
EndSplineSet
EndChar

StartChar: j
Encoding: 106 106 73
Width: 528
VWidth: 1018
Flags: HW
LayerCount: 2
Fore
SplineSet
129 -165 m 2
 112 -157 82 -134 65 -112 c 2
 33 -73 l 1
 27 -29 l 1
 19 16 l 1
 38 37 l 1
 55 56 l 1
 82 56 l 2
 118 56 129 47 152 0 c 2
 171 -41 l 1
 205 -38 l 2
 223 -37 256 -23 279 -9 c 2
 321 16 l 1
 334 49 l 2
 341 67 352 115 357 154 c 2
 368 225 l 1
 358 332 l 1
 348 437 l 1
 329 488 l 2
 316 520 310 544 310 563 c 0
 310 582 316 596 330 610 c 2
 351 631 l 1
 378 628 l 1
 406 625 l 1
 429 590 l 2
 463 540 481 468 493 332 c 2
 503 213 l 1
 487 124 l 2
 469 16 441 -45 392 -88 c 0
 345 -129 264 -167 206 -174 c 2
 160 -179 l 1
 129 -165 l 2
302 732 m 0
 270 745 247 782 247 822 c 2
 247 857 l 1
 282 892 l 1
 316 927 l 1
 365 927 l 1
 413 927 l 1
 442 897 l 1
 472 867 l 1
 472 837 l 1
 472 807 l 1
 451 778 l 2
 424 744 382 725 342 725 c 0
 328 725 315 727 302 732 c 0
EndSplineSet
EndChar

StartChar: k
Encoding: 107 107 74
Width: 588
VWidth: 911
Flags: HW
LayerCount: 2
Fore
SplineSet
77 8 m 2
 65 13 48 27 41 40 c 2
 28 63 l 1
 26 243 l 2
 26 260 26 281 26 302 c 0
 26 402 28 538 30 633 c 2
 36 844 l 1
 53 867 l 1
 72 891 l 1
 105 891 l 1
 138 891 l 1
 154 871 l 1
 168 852 l 1
 162 652 l 2
 160 593 159 535 159 489 c 0
 159 449 160 419 162 406 c 2
 169 357 l 1
 243 392 l 2
 318 426 447 468 476 468 c 0
 484 468 502 460 514 450 c 2
 538 431 l 1
 538 402 l 2
 538 362 518 349 440 326 c 0
 365 304 248 254 248 244 c 0
 248 240 277 228 312 218 c 0
 347 208 415 183 461 161 c 2
 545 121 l 1
 555 94 l 1
 565 68 l 1
 554 45 l 2
 541 20 527 8 503 8 c 0
 480 8 449 19 400 42 c 0
 314 82 249 105 194 115 c 2
 156 122 l 1
 156 83 l 2
 156 38 150 25 120 10 c 2
 99 0 l 1
 77 8 l 2
EndSplineSet
EndChar

StartChar: l
Encoding: 108 108 75
Width: 498
VWidth: 921
Flags: HW
LayerCount: 2
Fore
SplineSet
148 20 m 2
 100 46 64 92 40 163 c 2
 22 219 l 1
 23 352 l 1
 23 485 l 1
 40 569 l 2
 49 615 69 688 83 731 c 0
 97 774 109 824 109 840 c 2
 109 869 l 1
 130 891 l 1
 151 912 l 1
 182 909 l 1
 214 905 l 1
 235 878 l 1
 256 850 l 1
 226 755 l 2
 175 587 161 509 154 388 c 2
 147 270 l 1
 164 212 l 1
 180 154 l 1
 201 143 l 2
 216 135 231 131 248 131 c 0
 283 131 320 148 355 180 c 2
 383 206 l 1
 417 203 l 1
 452 199 l 1
 463 175 l 1
 475 151 l 1
 465 121 l 2
 453 85 404 44 346 18 c 2
 301 -1 l 1
 244 0 l 1
 185 0 l 1
 148 20 l 2
EndSplineSet
EndChar

StartChar: m
Encoding: 109 109 76
Width: 872
VWidth: 782
Flags: HW
LayerCount: 2
Fore
SplineSet
80 17 m 2
 69 21 52 34 44 43 c 2
 30 60 l 1
 26 155 l 1
 22 249 l 1
 39 380 l 2
 48 453 63 525 71 541 c 2
 86 570 l 1
 110 577 l 2
 116 579 122 579 128 579 c 0
 164 579 186 549 186 501 c 0
 186 493 185 483 184 474 c 2
 179 440 l 1
 232 468 l 2
 261 483 304 500 328 504 c 2
 371 510 l 1
 408 493 l 2
 428 484 451 466 458 456 c 2
 471 436 l 1
 525 465 l 1
 580 493 l 1
 648 497 l 1
 717 501 l 1
 760 478 l 1
 804 457 l 1
 824 409 l 1
 846 361 l 1
 840 284 l 2
 837 241 823 173 810 131 c 2
 786 55 l 1
 759 34 l 1
 730 13 l 1
 703 35 l 1
 674 55 l 1
 675 100 l 2
 676 125 684 172 693 205 c 2
 711 264 l 1
 708 312 l 1
 705 360 l 1
 658 364 l 1
 612 367 l 1
 567 336 l 1
 522 306 l 1
 505 236 l 2
 495 197 476 144 465 117 c 2
 444 69 l 1
 419 56 l 1
 392 45 l 1
 367 56 l 1
 342 68 l 1
 335 95 l 1
 328 123 l 1
 346 170 l 2
 356 196 366 237 368 262 c 0
 370 287 373 314 376 321 c 0
 377 322 377 324 377 326 c 0
 377 334 372 346 364 356 c 2
 345 379 l 1
 306 360 l 2
 270 343 239 316 180 248 c 2
 157 221 l 1
 157 137 l 2
 157 48 153 36 121 20 c 2
 100 9 l 1
 80 17 l 2
EndSplineSet
EndChar

StartChar: n
Encoding: 110 110 77
Width: 521
VWidth: 789
Flags: HW
LayerCount: 2
Fore
SplineSet
52 22 m 0
 41 33 30 60 26 80 c 0
 24 91 23 114 23 145 c 0
 23 224 29 355 39 469 c 2
 47 552 l 1
 60 568 l 1
 75 586 l 1
 109 586 l 1
 142 586 l 1
 159 562 l 1
 175 540 l 1
 175 495 l 1
 175 450 l 1
 193 458 l 2
 252 483 287 493 319 493 c 2
 354 494 l 1
 400 470 l 1
 447 447 l 1
 471 399 l 1
 496 352 l 1
 479 249 l 2
 470 193 455 130 447 110 c 2
 432 73 l 1
 409 65 l 1
 385 55 l 1
 356 70 l 2
 336 80 326 91 326 121 c 0
 326 146 332 183 345 245 c 2
 363 329 l 1
 349 344 l 2
 342 352 327 360 316 360 c 0
 282 360 219 322 186 282 c 2
 155 243 l 1
 155 138 l 1
 155 34 l 1
 131 17 l 2
 117 7 104 2 92 2 c 0
 78 2 65 9 52 22 c 0
EndSplineSet
EndChar

StartChar: o
Encoding: 111 111 78
Width: 638
VWidth: 796
Flags: HW
LayerCount: 2
Fore
SplineSet
366 152 m 2
 412 175 l 1
 447 243 l 1
 481 311 l 1
 474 347 l 1
 467 383 l 1
 444 390 l 2
 432 394 407 409 391 421 c 0
 362 443 341 452 316 452 c 0
 303 452 289 449 273 445 c 2
 230 434 l 1
 194 400 l 1
 156 366 l 1
 158 297 l 2
 159 259 164 216 171 200 c 2
 183 171 l 1
 226 150 l 2
 253 137 273 130 294 130 c 0
 316 130 337 137 366 152 c 2
213 11 m 2
 101 52 48 114 28 230 c 0
 23 256 21 279 21 301 c 0
 21 346 31 385 55 434 c 2
 82 489 l 1
 140 527 l 1
 199 565 l 1
 257 579 l 1
 314 593 l 1
 377 575 l 2
 450 555 538 502 567 460 c 0
 578 444 594 413 601 391 c 2
 613 351 l 1
 607 312 l 2
 597 244 560 162 520 111 c 2
 482 62 l 1
 430 34 l 1
 378 5 l 1
 319 0 l 1
 258 -5 l 1
 213 11 l 2
EndSplineSet
EndChar

StartChar: p
Encoding: 112 112 79
Width: 683
Flags: HW
LayerCount: 2
Fore
SplineSet
352 164 m 0
 404 177 451 213 492 266 c 2
 527 311 l 1
 504 330 l 2
 492 340 464 353 440 359 c 2
 397 371 l 1
 334 366 l 1
 271 360 l 1
 239 342 l 1
 207 323 l 1
 198 287 l 2
 193 268 186 227 182 196 c 2
 176 140 l 1
 245 147 l 2
 283 151 332 159 352 164 c 0
52 -346 m 0
 43 -339 32 -324 27 -315 c 2
 18 -298 l 1
 25 -136 l 2
 29 -47 43 120 55 236 c 2
 76 445 l 1
 91 472 l 2
 105 498 126 512 148 512 c 0
 162 512 176 507 189 495 c 2
 207 478 l 1
 260 489 l 2
 294 497 328 501 363 501 c 0
 435 501 507 484 568 450 c 2
 612 425 l 1
 635 379 l 1
 658 333 l 1
 652 302 l 2
 637 226 567 132 491 85 c 0
 434 48 337 20 247 13 c 2
 170 7 l 1
 162 -60 l 2
 159 -97 156 -164 156 -208 c 2
 156 -288 l 1
 141 -316 l 2
 133 -332 116 -349 103 -352 c 0
 89 -355 81 -357 75 -357 c 0
 67 -357 62 -354 52 -346 c 0
EndSplineSet
EndChar

StartChar: q
Encoding: 113 113 80
Width: 612
VWidth: 934
Flags: HW
LayerCount: 2
Fore
SplineSet
297 151 m 0
 313 159 338 181 352 199 c 0
 384 240 428 341 428 369 c 0
 428 371 427 373 427 374 c 2
 422 388 l 1
 376 395 l 2
 359 398 343 399 328 399 c 0
 234 399 170 352 160 271 c 2
 155 232 l 1
 167 197 l 1
 179 161 l 1
 205 148 l 2
 221 140 234 136 247 136 c 0
 262 136 278 141 297 151 c 0
440 -399 m 0
 432 -396 418 -387 408 -379 c 2
 389 -364 l 1
 389 -311 l 2
 389 -282 397 -189 405 -105 c 0
 413 -21 420 53 420 60 c 2
 420 73 l 1
 368 40 l 1
 314 7 l 1
 252 7 l 1
 190 8 l 1
 147 31 l 2
 95 59 60 103 37 171 c 2
 20 221 l 1
 27 273 l 2
 35 334 64 406 95 440 c 0
 128 475 206 513 273 525 c 2
 331 536 l 1
 395 524 l 2
 431 518 484 501 513 486 c 2
 566 459 l 1
 577 434 l 1
 588 411 l 1
 576 350 l 2
 569 317 558 203 553 100 c 0
 548 -3 539 -120 534 -159 c 0
 529 -198 522 -254 522 -285 c 0
 521 -358 496 -402 458 -402 c 0
 452 -402 446 -401 440 -399 c 0
EndSplineSet
EndChar

StartChar: r
Encoding: 114 114 81
Width: 515
VWidth: 762
Flags: HW
LayerCount: 2
Fore
SplineSet
71 16 m 2
 59 21 44 35 38 46 c 2
 27 67 l 1
 27 280 l 1
 27 493 l 1
 43 516 l 1
 58 539 l 1
 92 539 l 2
 132 539 149 522 157 474 c 2
 162 438 l 1
 236 469 l 1
 308 500 l 1
 376 505 l 1
 443 510 l 1
 466 488 l 1
 487 467 l 1
 487 436 l 1
 487 406 l 1
 465 391 l 2
 453 383 414 375 380 372 c 2
 319 366 l 1
 272 343 l 2
 246 331 211 309 193 296 c 2
 160 271 l 1
 160 172 l 1
 160 72 l 1
 143 49 l 2
 134 37 120 22 111 17 c 2
 93 8 l 1
 71 16 l 2
EndSplineSet
EndChar

StartChar: s
Encoding: 115 115 82
Width: 494
VWidth: 817
Flags: HW
LayerCount: 2
Fore
SplineSet
153 16 m 0
 113 32 91 57 91 87 c 2
 91 114 l 1
 110 132 l 1
 129 150 l 1
 189 143 l 1
 250 136 l 1
 286 155 l 2
 305 165 322 179 322 185 c 0
 322 204 221 278 163 301 c 0
 88 331 49 360 33 400 c 0
 24 420 20 440 20 459 c 0
 20 500 40 540 79 582 c 0
 118 624 159 642 215 643 c 2
 265 643 l 1
 293 623 l 2
 315 606 326 584 326 562 c 0
 326 539 314 516 291 501 c 2
 265 484 l 1
 229 498 l 1
 194 510 l 1
 173 492 l 2
 161 481 154 472 154 464 c 0
 154 451 172 440 211 424 c 0
 244 411 310 371 359 334 c 2
 450 267 l 1
 460 229 l 1
 470 190 l 1
 454 148 l 1
 436 106 l 1
 394 71 l 1
 352 35 l 1
 302 19 l 2
 272 10 242 6 216 6 c 0
 192 6 171 9 153 16 c 0
EndSplineSet
EndChar

StartChar: t
Encoding: 116 116 83
Width: 617
VWidth: 859
Flags: HW
LayerCount: 2
Fore
SplineSet
322 30 m 2
 299 40 263 69 239 96 c 2
 197 143 l 1
 175 223 l 2
 164 266 152 352 148 412 c 2
 140 522 l 1
 101 522 l 1
 63 522 l 1
 47 538 l 2
 39 546 29 562 25 573 c 2
 19 595 l 1
 35 620 l 1
 51 644 l 1
 89 650 l 2
 111 653 135 657 143 658 c 2
 159 660 l 1
 161 691 l 2
 168 770 189 799 236 799 c 2
 265 799 l 1
 281 776 l 1
 297 753 l 1
 297 706 l 1
 297 658 l 1
 366 651 l 2
 404 647 454 645 479 645 c 0
 504 645 537 638 553 630 c 2
 583 613 l 1
 589 590 l 2
 590 585 591 580 591 575 c 0
 591 548 573 523 546 516 c 0
 539 514 519 513 492 513 c 0
 465 513 431 514 397 516 c 2
 275 523 l 1
 281 413 l 2
 285 353 294 278 302 249 c 2
 318 197 l 1
 348 170 l 1
 380 143 l 1
 411 143 l 2
 427 143 456 151 473 160 c 2
 504 176 l 1
 528 165 l 2
 541 159 559 142 565 128 c 2
 577 101 l 1
 556 74 l 2
 545 59 520 38 501 29 c 2
 466 11 l 1
 415 10 l 1
 364 10 l 1
 322 30 l 2
EndSplineSet
EndChar

StartChar: u
Encoding: 117 117 84
Width: 526
VWidth: 783
Flags: HW
LayerCount: 2
Fore
SplineSet
383 -104 m 0
 347 -89 323 -52 312 6 c 2
 305 44 l 1
 275 28 l 2
 252 16 229 11 206 11 c 0
 141 11 78 56 42 136 c 2
 22 182 l 1
 22 269 l 1
 22 356 l 1
 40 408 l 1
 57 459 l 1
 83 473 l 1
 110 487 l 1
 137 480 l 1
 165 474 l 1
 175 447 l 1
 184 422 l 1
 170 385 l 1
 155 349 l 1
 155 270 l 1
 155 193 l 1
 171 169 l 1
 187 145 l 1
 209 148 l 1
 231 152 l 1
 258 208 l 2
 285 262 314 348 338 441 c 2
 349 484 l 1
 375 501 l 1
 399 517 l 1
 426 511 l 1
 452 505 l 1
 468 470 l 1
 484 435 l 1
 467 314 l 2
 458 247 447 153 444 105 c 2
 439 18 l 1
 471 1 l 1
 503 -16 l 1
 503 -47 l 1
 503 -77 l 1
 475 -98 l 2
 458 -111 446 -118 431 -118 c 0
 418 -118 404 -113 383 -104 c 0
EndSplineSet
EndChar

StartChar: w
Encoding: 119 119 85
Width: 987
VWidth: 789
Flags: HW
LayerCount: 2
Fore
SplineSet
587 26 m 2
 563 52 495 184 466 261 c 0
 457 285 446 303 441 303 c 0
 440 303 440 302 440 302 c 0
 436 298 407 243 375 182 c 0
 312 59 279 15 236 15 c 0
 225 15 214 18 201 23 c 2
 174 33 l 1
 140 102 l 2
 122 140 88 241 63 323 c 2
 19 472 l 1
 25 499 l 2
 29 513 43 533 57 542 c 2
 84 559 l 1
 112 549 l 1
 138 540 l 1
 146 514 l 2
 150 500 161 461 170 427 c 0
 187 365 223 245 233 217 c 2
 238 202 l 1
 313 350 l 2
 355 432 402 510 416 522 c 2
 442 545 l 1
 477 545 l 1
 512 545 l 1
 528 521 l 2
 537 508 548 468 554 432 c 0
 564 370 618 222 635 212 c 0
 636 212 l 0
 641 212 664 248 687 292 c 0
 749 414 837 552 863 570 c 0
 877 580 889 585 901 585 c 0
 915 585 929 578 942 565 c 0
 954 553 961 542 961 527 c 0
 961 504 945 473 910 418 c 0
 881 372 822 268 780 186 c 0
 738 104 697 30 689 20 c 2
 673 2 l 1
 641 2 l 1
 608 2 l 1
 587 26 l 2
EndSplineSet
EndChar

StartChar: v
Encoding: 118 118 86
Width: 581
VWidth: 785
Flags: HW
LayerCount: 2
Fore
SplineSet
332 25 m 2
 297 43 l 1
 246 119 l 2
 217 161 165 247 130 312 c 0
 95 377 56 448 43 472 c 2
 19 515 l 1
 31 541 l 1
 43 567 l 1
 71 574 l 1
 98 582 l 1
 124 567 l 1
 150 553 l 1
 233 400 l 2
 234 398 319 244 326 244 c 0
 331 244 349 282 364 330 c 0
 405 458 440 541 460 555 c 0
 471 563 484 567 496 567 c 0
 527 567 555 542 555 506 c 0
 555 493 530 407 498 317 c 0
 466 227 440 140 440 125 c 0
 440 110 442 82 443 65 c 2
 447 33 l 1
 427 18 l 2
 415 10 403 6 390 6 c 0
 374 6 355 12 332 25 c 2
EndSplineSet
EndChar

StartChar: x
Encoding: 120 120 87
Width: 647
VWidth: 774
Flags: HW
LayerCount: 2
Fore
SplineSet
128 28 m 2
 101 49 l 1
 101 73 l 2
 101 85 125 129 154 170 c 2
 207 245 l 1
 113 333 l 1
 20 421 l 1
 20 453 l 1
 20 484 l 1
 38 502 l 2
 48 511 68 518 80 518 c 2
 104 518 l 1
 184 444 l 2
 229 403 273 368 280 364 c 2
 292 356 l 1
 360 434 l 2
 397 477 438 525 450 537 c 2
 471 559 l 1
 500 559 l 1
 529 559 l 1
 546 541 l 2
 555 531 562 510 562 495 c 2
 562 468 l 1
 499 394 l 2
 464 354 426 310 415 296 c 2
 395 270 l 1
 420 252 l 2
 433 242 479 214 523 190 c 0
 600 149 624 128 624 94 c 0
 624 69 586 37 556 37 c 0
 530 37 433 86 357 136 c 0
 338 149 320 160 316 160 c 0
 312 160 287 130 260 93 c 2
 212 26 l 1
 186 16 l 2
 172 11 166 8 160 8 c 0
 152 8 146 14 128 28 c 2
EndSplineSet
EndChar

StartChar: y
Encoding: 121 121 88
Width: 511
VWidth: 922
Flags: HW
LayerCount: 2
Fore
SplineSet
185 -381 m 0
 174 -370 165 -352 165 -344 c 0
 165 -317 195 -175 218 -92 c 2
 240 -14 l 1
 129 198 l 2
 69 315 20 421 20 434 c 0
 20 447 25 466 32 474 c 2
 45 489 l 1
 78 489 l 1
 111 489 l 1
 130 469 l 2
 140 458 177 393 212 324 c 2
 277 199 l 1
 287 240 l 2
 293 263 303 303 310 331 c 0
 317 359 330 401 339 427 c 2
 355 472 l 1
 383 494 l 1
 411 514 l 1
 436 502 l 2
 450 496 468 478 474 464 c 2
 486 438 l 1
 453 292 l 2
 435 212 395 55 365 -58 c 0
 335 -171 308 -282 304 -306 c 0
 300 -330 288 -361 277 -375 c 2
 256 -401 l 1
 231 -401 l 2
 218 -401 196 -392 185 -381 c 0
EndSplineSet
EndChar

StartChar: z
Encoding: 122 122 89
Width: 664
VWidth: 753
Flags: HW
LayerCount: 2
Fore
SplineSet
92 20 m 2
 83 27 72 49 67 65 c 2
 57 95 l 1
 72 122 l 2
 91 161 149 207 294 299 c 0
 365 344 422 381 421 382 c 0
 421 382 419 382 414 382 c 0
 392 382 324 380 244 377 c 2
 70 370 l 1
 51 379 l 2
 30 390 20 410 20 430 c 0
 20 451 31 472 52 486 c 2
 77 503 l 1
 263 511 l 1
 449 518 l 1
 509 509 l 2
 609 493 638 470 638 409 c 2
 638 381 l 1
 605 349 l 2
 587 332 512 279 438 233 c 2
 305 150 l 1
 377 156 l 2
 416 160 480 166 518 169 c 2
 588 175 l 1
 608 157 l 1
 628 138 l 1
 628 110 l 2
 628 77 607 51 574 44 c 0
 520 33 256 8 186 8 c 2
 110 8 l 1
 92 20 l 2
EndSplineSet
EndChar

StartChar: braceleft
Encoding: 123 123 90
Width: 648
Flags: HW
LayerCount: 2
Fore
SplineSet
205 -364 m 2
 186 -354 158 -329 146 -311 c 2
 124 -278 l 1
 117 -221 l 2
 115 -203 114 -182 114 -161 c 0
 114 -69 134 43 171 137 c 2
 176 151 l 1
 121 175 l 2
 61 202 20 243 20 279 c 0
 20 308 50 335 128 377 c 2
 189 411 l 1
 186 527 l 1
 182 645 l 1
 195 712 l 2
 214 824 248 875 337 921 c 2
 383 944 l 1
 440 948 l 1
 499 952 l 1
 539 932 l 2
 562 921 588 902 598 890 c 2
 617 868 l 1
 623 818 l 1
 627 768 l 1
 615 732 l 2
 593 667 548 627 509 627 c 0
 488 627 469 638 456 663 c 2
 441 690 l 1
 466 731 l 2
 479 754 492 782 492 794 c 2
 492 817 l 1
 456 817 l 2
 407 817 363 793 341 753 c 2
 323 720 l 1
 322 546 l 2
 322 450 317 361 313 349 c 0
 309 337 287 314 264 301 c 2
 222 276 l 1
 264 255 l 2
 306 233 327 210 327 178 c 0
 327 157 318 132 302 100 c 0
 288 72 269 21 261 -14 c 0
 252 -56 246 -119 246 -168 c 0
 246 -197 248 -220 252 -231 c 2
 258 -248 l 1
 291 -248 l 2
 331 -248 364 -226 384 -186 c 0
 392 -170 412 -148 425 -139 c 2
 450 -124 l 1
 477 -137 l 2
 502 -149 515 -170 515 -195 c 0
 515 -223 500 -256 470 -293 c 2
 436 -333 l 1
 385 -356 l 1
 333 -381 l 1
 287 -381 l 1
 241 -381 l 1
 205 -364 l 2
EndSplineSet
EndChar

StartChar: braceright
Encoding: 125 125 91
Width: 628
Flags: HW
LayerCount: 2
Fore
SplineSet
98 -369 m 0
 54 -342 19 -267 19 -211 c 0
 19 -199 20 -187 24 -178 c 0
 29 -164 45 -147 59 -141 c 2
 84 -129 l 1
 111 -146 l 1
 136 -164 l 1
 148 -209 l 1
 159 -255 l 1
 181 -255 l 2
 193 -255 228 -240 259 -222 c 2
 315 -188 l 1
 329 -160 l 1
 343 -130 l 1
 332 -35 l 2
 326 17 321 83 321 110 c 2
 321 158 l 1
 304 176 l 1
 287 196 l 1
 288 228 l 1
 289 262 l 1
 336 304 l 1
 383 345 l 1
 357 357 l 1
 332 369 l 1
 325 394 l 1
 319 420 l 1
 344 464 l 2
 358 488 381 542 396 584 c 2
 424 659 l 1
 430 737 l 1
 435 815 l 1
 414 843 l 1
 391 871 l 1
 345 871 l 2
 286 871 265 861 203 794 c 0
 174 763 144 738 137 738 c 0
 130 738 110 752 94 768 c 2
 64 799 l 1
 80 838 l 2
 114 920 202 985 307 1004 c 2
 360 1014 l 1
 410 999 l 1
 459 984 l 1
 497 946 l 2
 517 924 541 889 550 867 c 2
 566 827 l 1
 566 770 l 2
 566 705 546 607 515 525 c 0
 504 495 495 469 495 467 c 0
 495 465 511 461 530 457 c 2
 565 451 l 1
 587 424 l 2
 601 406 608 390 608 374 c 0
 608 342 578 311 511 267 c 0
 474 243 443 220 443 217 c 0
 443 214 451 135 460 41 c 2
 475 -130 l 1
 465 -171 l 2
 449 -231 413 -276 351 -318 c 0
 284 -364 221 -388 169 -388 c 0
 142 -388 118 -381 98 -369 c 0
EndSplineSet
EndChar

StartChar: bar
Encoding: 124 124 92
Width: 196
Flags: HW
LayerCount: 2
Fore
SplineSet
58 -53 m 2
 39 -34 l 1
 32 20 l 2
 30 38 29 106 29 198 c 0
 29 263 29 340 30 417 c 2
 34 758 l 1
 54 785 l 1
 75 813 l 1
 101 816 l 1
 128 819 l 1
 148 800 l 1
 167 780 l 1
 164 373 l 1
 162 -34 l 1
 143 -53 l 2
 131 -65 116 -72 101 -72 c 0
 86 -72 70 -65 58 -53 c 2
EndSplineSet
EndChar

StartChar: asciitilde
Encoding: 126 126 93
Width: 864
Flags: HW
LayerCount: 2
Fore
SplineSet
418 287 m 0
 407 293 375 323 346 354 c 2
 295 410 l 1
 228 387 l 2
 192 375 149 353 133 340 c 0
 114 324 98 317 83 317 c 0
 69 317 57 323 44 336 c 0
 30 350 24 364 24 380 c 0
 24 418 62 459 130 490 c 0
 164 505 216 523 245 529 c 2
 297 540 l 1
 333 530 l 1
 369 521 l 1
 422 464 l 1
 475 408 l 1
 503 414 l 2
 550 425 653 474 709 513 c 0
 745 537 764 549 779 549 c 0
 792 549 802 541 817 526 c 0
 833 510 841 498 841 485 c 0
 841 468 827 450 797 422 c 2
 752 378 l 1
 673 340 l 2
 585 298 515 277 466 277 c 0
 446 277 431 280 418 287 c 0
EndSplineSet
EndChar

StartChar: cent
Encoding: 162 162 94
Width: 610
VWidth: 785
Flags: HW
LayerCount: 2
Fore
SplineSet
258 -113 m 2
 239 -94 l 1
 232 -40 l 2
 231 -32 230 -15 230 10 c 1
 216 12 203 14 191 17 c 2
 152 28 l 1
 106 73 l 2
 80 98 50 137 39 161 c 2
 20 205 l 1
 21 261 l 2
 22 335 35 370 93 450 c 2
 142 515 l 1
 198 543 l 1
 232 559 l 1
 234 698 l 1
 254 725 l 1
 275 753 l 1
 301 756 l 1
 328 759 l 1
 348 740 l 1
 367 720 l 1
 366 580 l 1
 375 581 l 1
 447 559 l 1
 518 538 l 1
 550 501 l 1
 583 465 l 1
 583 429 l 1
 583 393 l 1
 557 368 l 2
 540 351 524 343 509 343 c 0
 487 343 468 360 450 393 c 2
 430 432 l 1
 391 438 l 2
 382 440 373 441 365 442 c 1
 364 313 l 1
 363 146 l 1
 372 147 382 148 392 150 c 0
 421 154 453 156 474 156 c 0
 484 156 491 156 495 155 c 2
 519 148 l 1
 526 127 l 2
 528 119 530 112 530 104 c 0
 530 79 518 55 498 44 c 0
 468 28 418 17 363 11 c 1
 362 -94 l 1
 343 -113 l 2
 331 -125 316 -132 301 -132 c 0
 286 -132 270 -125 258 -113 c 2
229 146 m 1
 229 209 229 283 230 357 c 2
 231 416 l 1
 224 413 l 1
 188 357 l 1
 153 303 l 1
 153 264 l 1
 153 225 l 1
 171 197 l 2
 189 171 205 154 229 146 c 1
EndSplineSet
EndChar

StartChar: sterling
Encoding: 163 163 95
Width: 771
Flags: HW
LayerCount: 2
Fore
SplineSet
67 -131 m 2
 34 -117 l 1
 28 -91 l 2
 27 -86 26 -80 26 -74 c 0
 26 -40 44 6 65 17 c 0
 75 22 100 28 120 28 c 0
 140 28 175 37 198 48 c 2
 238 69 l 1
 255 101 l 2
 265 122 271 148 271 174 c 0
 271 195 267 216 260 234 c 2
 249 263 l 1
 158 263 l 1
 67 263 l 1
 43 282 l 1
 21 300 l 1
 21 328 l 2
 21 343 28 365 38 376 c 2
 56 395 l 1
 102 398 l 1
 150 401 l 1
 122 433 l 2
 83 479 54 549 54 597 c 2
 53 639 l 1
 78 684 l 1
 101 729 l 1
 149 761 l 1
 197 794 l 1
 268 806 l 1
 340 819 l 1
 410 807 l 2
 490 793 550 763 581 721 c 2
 601 691 l 1
 601 610 l 1
 601 530 l 1
 585 513 l 2
 576 504 554 496 539 496 c 2
 511 496 l 1
 493 519 l 1
 473 542 l 1
 473 596 l 1
 473 649 l 1
 440 664 l 1
 407 678 l 1
 340 678 l 1
 273 678 l 1
 241 664 l 2
 204 649 186 626 186 589 c 2
 186 564 l 1
 244 494 l 2
 276 455 304 417 308 411 c 2
 314 399 l 1
 466 410 l 1
 617 420 l 1
 643 396 l 2
 659 381 668 366 668 352 c 0
 668 338 660 325 645 310 c 2
 622 287 l 1
 510 280 l 2
 449 276 396 271 394 269 c 0
 394 269 393 268 393 266 c 0
 393 259 397 241 401 221 c 2
 411 176 l 1
 400 125 l 2
 394 96 382 60 374 44 c 2
 359 15 l 1
 402 23 l 2
 450 31 585 77 635 103 c 0
 656 114 674 119 691 119 c 0
 708 119 723 113 733 101 c 0
 745 88 751 74 751 61 c 0
 751 17 685 -26 550 -72 c 0
 456 -104 409 -115 274 -132 c 0
 207 -141 166 -145 137 -145 c 0
 106 -145 89 -140 67 -131 c 2
EndSplineSet
EndChar

StartChar: Euro
Encoding: 164 8364 96
Width: 1010
Flags: HW
LayerCount: 2
Fore
SplineSet
427 373 m 0
 420 376 408 376 401 373 c 0
 394 370 400 367 414 367 c 0
 428 367 434 370 427 373 c 0
497 28 m 2
 429 53 380 89 332 154 c 2
 296 203 l 1
 204 196 l 1
 112 190 l 1
 74 205 l 1
 36 221 l 1
 30 247 l 1
 23 273 l 1
 39 299 l 1
 56 325 l 1
 126 325 l 2
 205 325 260 334 260 346 c 0
 260 349 245 351 223 351 c 0
 210 351 193 350 176 349 c 2
 91 344 l 1
 67 357 l 2
 53 364 36 384 31 399 c 2
 21 428 l 1
 36 455 l 2
 44 469 64 487 80 492 c 2
 111 502 l 1
 130 490 l 1
 150 477 l 1
 205 483 l 1
 260 491 l 1
 260 511 l 2
 260 522 277 565 296 605 c 2
 331 679 l 1
 383 731 l 1
 435 782 l 1
 504 816 l 1
 572 850 l 1
 649 855 l 1
 726 859 l 1
 788 838 l 1
 848 816 l 1
 883 782 l 2
 902 764 928 732 939 709 c 2
 960 668 l 1
 965 600 l 1
 970 532 l 1
 948 510 l 2
 936 498 914 489 901 489 c 2
 877 489 l 1
 855 515 l 1
 834 543 l 1
 834 586 l 1
 834 629 l 1
 810 664 l 1
 788 698 l 1
 752 711 l 2
 733 718 694 723 665 723 c 2
 612 724 l 1
 559 697 l 2
 529 683 491 655 473 636 c 0
 442 603 397 531 397 514 c 0
 397 513 397 512 398 511 c 0
 398 511 400 510 404 510 c 0
 418 510 452 513 490 518 c 2
 577 530 l 1
 613 515 l 1
 650 500 l 1
 658 476 l 2
 661 466 663 458 663 449 c 0
 663 430 655 413 636 401 c 2
 614 386 l 1
 533 384 l 1
 450 383 l 1
 491 378 l 2
 540 373 568 351 568 320 c 0
 568 309 564 296 557 283 c 2
 547 263 l 1
 490 247 l 1
 433 230 l 1
 457 205 l 2
 470 191 500 169 525 158 c 2
 570 138 l 1
 756 140 l 2
 828 141 894 141 928 141 c 0
 942 141 951 141 953 141 c 0
 959 140 970 126 977 110 c 2
 990 79 l 1
 974 53 l 1
 957 29 l 1
 919 17 l 1
 880 7 l 1
 716 7 l 1
 552 8 l 1
 497 28 l 2
EndSplineSet
EndChar

StartChar: yen
Encoding: 165 165 97
Width: 639
Flags: HW
LayerCount: 2
Fore
SplineSet
289 6 m 2
 259 37 l 1
 259 101 l 2
 259 137 254 214 249 272 c 2
 240 379 l 1
 225 395 l 2
 213 409 90 609 40 696 c 2
 21 730 l 1
 28 758 l 2
 32 773 46 793 60 802 c 2
 86 819 l 1
 110 808 l 2
 123 802 145 780 158 757 c 0
 254 594 283 550 286 550 c 0
 288 550 309 572 333 599 c 0
 435 713 524 785 561 785 c 0
 591 785 618 755 618 722 c 2
 618 696 l 1
 494 571 l 1
 369 446 l 1
 376 368 l 2
 380 325 385 230 389 156 c 2
 395 22 l 1
 367 -1 l 2
 349 -15 339 -22 329 -22 c 0
 318 -22 308 -13 289 6 c 2
EndSplineSet
EndChar

StartChar: Scaron
Encoding: 166 352 98
Width: 695
VWidth: 1103
Flags: HW
LayerCount: 2
Fore
SplineSet
250 34 m 0
 152 52 139 55 103 86 c 2
 73 112 l 1
 73 137 l 2
 73 168 106 202 135 202 c 0
 146 202 166 197 178 191 c 0
 217 171 321 152 406 152 c 2
 487 152 l 1
 512 164 l 2
 525 171 539 182 541 189 c 0
 541 191 542 192 542 194 c 0
 542 216 500 245 444 260 c 0
 370 280 232 333 185 360 c 0
 166 371 132 396 110 416 c 2
 71 453 l 1
 45 509 l 1
 20 566 l 1
 26 621 l 2
 40 742 120 824 276 877 c 2
 339 898 l 1
 390 898 l 2
 492 898 560 849 571 766 c 2
 577 727 l 1
 555 705 l 1
 533 682 l 1
 505 686 l 1
 477 689 l 1
 452 729 l 1
 426 767 l 1
 375 763 l 1
 324 759 l 1
 273 735 l 2
 195 696 156 652 156 604 c 0
 156 577 168 549 192 521 c 0
 227 480 293 447 443 398 c 0
 578 354 614 332 647 279 c 2
 669 242 l 1
 670 192 l 1
 671 141 l 1
 650 113 l 2
 623 76 570 41 524 28 c 0
 503 22 468 19 427 19 c 0
 370 19 303 25 250 34 c 0
269 949 m 2
 222 973 l 1
 160 1033 l 2
 104 1089 80 1119 80 1143 c 0
 80 1155 86 1165 97 1176 c 0
 106 1185 124 1193 136 1193 c 2
 159 1193 l 1
 213 1135 l 2
 243 1103 279 1069 294 1061 c 2
 321 1046 l 1
 344 1090 l 2
 384 1163 428 1222 453 1236 c 2
 476 1249 l 1
 500 1236 l 1
 523 1223 l 1
 526 1198 l 1
 529 1174 l 1
 495 1125 l 2
 476 1098 446 1047 429 1011 c 2
 398 946 l 1
 377 936 l 2
 364 930 352 927 339 927 c 0
 320 927 299 934 269 949 c 2
EndSplineSet
EndChar

StartChar: section
Encoding: 167 167 99
Width: 635
Flags: HW
LayerCount: 2
Fore
SplineSet
398 325 m 2
 434 356 468 408 468 429 c 0
 468 431 468 434 467 435 c 0
 465 439 443 444 416 448 c 2
 368 455 l 1
 329 438 l 1
 290 421 l 1
 273 388 l 2
 263 368 258 352 258 340 c 0
 258 327 264 317 274 307 c 2
 290 291 l 1
 324 291 l 1
 356 291 l 1
 398 325 l 2
259 -175 m 2
 210 -160 172 -128 149 -85 c 2
 134 -57 l 1
 140 -37 l 2
 149 -7 175 14 201 14 c 2
 223 14 l 1
 252 -16 l 2
 267 -32 292 -49 305 -52 c 2
 331 -59 l 1
 374 -39 l 2
 398 -28 434 -5 453 12 c 2
 488 43 l 1
 470 63 l 2
 460 74 395 106 325 136 c 2
 197 190 l 1
 167 224 l 1
 137 258 l 1
 130 300 l 2
 128 313 127 325 127 337 c 0
 127 374 138 409 161 451 c 2
 184 495 l 1
 120 526 l 2
 43 563 33 574 26 625 c 2
 21 664 l 1
 43 730 l 2
 90 870 182 952 328 987 c 2
 382 999 l 1
 437 992 l 1
 493 985 l 1
 513 968 l 2
 524 959 536 942 539 930 c 2
 545 908 l 1
 523 880 l 1
 501 852 l 1
 437 859 l 1
 373 866 l 1
 333 853 l 2
 311 846 275 827 251 810 c 2
 207 779 l 1
 187 737 l 2
 176 714 164 685 161 673 c 2
 155 651 l 1
 210 631 l 2
 240 620 318 600 385 588 c 0
 523 563 558 549 587 503 c 2
 607 470 l 1
 602 426 l 2
 595 371 564 311 517 259 c 0
 498 237 484 220 484 216 c 0
 484 215 484 215 525 190 c 0
 545 178 576 150 590 127 c 2
 616 86 l 1
 616 54 l 2
 616 37 609 6 600 -13 c 0
 566 -84 436 -172 345 -185 c 2
 304 -190 l 1
 259 -175 l 2
EndSplineSet
EndChar

StartChar: scaron
Encoding: 168 353 100
Width: 494
VWidth: 817
Flags: HW
LayerCount: 2
Fore
SplineSet
153 16 m 0
 113 32 91 57 91 87 c 2
 91 114 l 1
 110 132 l 1
 129 150 l 1
 189 143 l 1
 250 136 l 1
 286 155 l 2
 305 165 322 179 322 185 c 0
 322 204 221 278 163 301 c 0
 88 331 49 360 33 400 c 0
 24 420 20 440 20 459 c 0
 20 500 40 540 79 582 c 0
 118 624 159 642 215 643 c 2
 265 643 l 1
 293 623 l 2
 315 606 326 584 326 562 c 0
 326 539 314 516 291 501 c 2
 265 484 l 1
 229 498 l 1
 194 510 l 1
 173 492 l 2
 161 481 154 472 154 464 c 0
 154 451 172 440 211 424 c 0
 244 411 310 371 359 334 c 2
 450 267 l 1
 460 229 l 1
 470 190 l 1
 454 148 l 1
 436 106 l 1
 394 71 l 1
 352 35 l 1
 302 19 l 2
 272 10 242 6 216 6 c 0
 192 6 171 9 153 16 c 0
189 689 m 2
 142 713 l 1
 80 773 l 2
 24 829 0 859 -0 883 c 0
 0 895 6 905 17 916 c 0
 26 925 44 933 56 933 c 2
 79 933 l 1
 133 875 l 2
 163 843 199 809 214 801 c 2
 241 786 l 1
 264 830 l 2
 304 903 348 962 373 976 c 2
 396 989 l 1
 420 976 l 1
 443 963 l 1
 446 938 l 1
 449 914 l 1
 415 865 l 2
 396 838 366 787 349 751 c 2
 318 686 l 1
 297 676 l 2
 284 670 272 667 259 667 c 0
 240 667 219 674 189 689 c 2
EndSplineSet
EndChar

StartChar: copyright
Encoding: 169 169 101
Width: 513
Flags: HW
LayerCount: 2
Fore
SplineSet
184 516 m 1
 150 551 l 1
 150 589 l 1
 150 627 l 1
 170 655 l 1
 190 685 l 1
 227 696 l 1
 263 709 l 1
 297 702 l 2
 315 699 339 687 348 677 c 2
 367 657 l 1
 363 633 l 1
 359 609 l 1
 341 606 l 2
 340 606 338 606 337 606 c 0
 327 606 312 612 303 620 c 2
 284 637 l 1
 257 631 l 2
 235 625 222 611 222 594 c 0
 222 588 224 581 228 574 c 2
 239 558 l 1
 279 553 l 1
 318 548 l 1
 322 531 l 2
 324 522 317 507 308 498 c 2
 292 481 l 1
 255 481 l 1
 219 481 l 1
 184 516 l 1
363 478 m 0
 392 496 416 551 416 596 c 0
 416 614 406 648 394 673 c 2
 373 718 l 1
 343 732 l 2
 327 740 295 748 272 748 c 2
 230 748 l 1
 192 727 l 2
 170 716 139 692 124 674 c 2
 96 641 l 1
 101 594 l 2
 112 503 137 475 220 461 c 0
 237 458 254 457 270 457 c 0
 307 457 340 464 363 478 c 0
156 403 m 2
 133 411 102 432 87 447 c 2
 58 476 l 1
 40 544 l 1
 23 611 l 1
 36 654 l 1
 48 697 l 1
 87 736 l 2
 109 758 145 785 171 797 c 2
 217 819 l 1
 273 819 l 1
 329 819 l 1
 390 787 l 2
 468 747 471 743 474 703 c 0
 475 685 479 645 483 612 c 2
 489 553 l 1
 463 499 l 1
 437 444 l 1
 403 420 l 1
 370 394 l 1
 283 391 l 1
 196 389 l 1
 156 403 l 2
EndSplineSet
EndChar

StartChar: registered
Encoding: 174 174 102
Width: 519
Flags: HW
LayerCount: 2
Fore
SplineSet
302 582 m 0
 302 588 299 592 295 592 c 0
 291 592 276 595 264 598 c 2
 241 604 l 1
 241 588 l 1
 241 571 l 1
 271 571 l 2
 287 571 302 576 302 582 c 0
323 416 m 0
 323 420 305 434 281 447 c 2
 239 471 l 1
 213 458 l 1
 187 444 l 1
 174 462 l 1
 161 480 l 1
 166 544 l 2
 169 579 175 623 180 645 c 2
 190 684 l 1
 214 684 l 2
 247 684 318 659 354 633 c 2
 384 611 l 1
 384 587 l 2
 384 549 373 529 344 518 c 2
 317 509 l 1
 346 487 l 2
 361 476 374 460 374 452 c 2
 374 436 l 1
 387 440 l 2
 394 442 406 457 413 470 c 2
 426 495 l 1
 421 560 l 1
 416 626 l 1
 393 671 l 1
 371 717 l 1
 337 731 l 2
 317 739 295 743 272 743 c 0
 248 743 223 739 195 731 c 2
 155 719 l 1
 131 686 l 2
 119 668 103 627 96 595 c 2
 83 538 l 1
 103 502 l 2
 131 452 166 427 231 418 c 0
 271 412 295 409 308 409 c 0
 320 409 323 412 323 416 c 0
164 358 m 0
 119 373 72 413 46 454 c 2
 24 490 l 1
 28 569 l 1
 32 648 l 1
 56 697 l 1
 80 748 l 1
 118 772 l 2
 138 785 182 802 216 808 c 2
 277 819 l 1
 329 808 l 1
 380 796 l 1
 418 765 l 1
 456 734 l 1
 473 676 l 1
 489 617 l 1
 491 536 l 1
 492 454 l 1
 468 420 l 2
 455 402 427 378 405 367 c 2
 365 346 l 1
 280 347 l 2
 233 347 180 352 164 358 c 0
EndSplineSet
EndChar

StartChar: ordfeminine
Encoding: 170 170 103
Width: 379
Flags: HW
LayerCount: 2
Fore
SplineSet
154 645 m 0
 161 656 170 675 173 687 c 2
 179 709 l 1
 157 684 l 2
 145 671 134 651 134 642 c 0
 134 631 135 625 138 625 c 0
 141 625 146 632 154 645 c 0
76 527 m 0
 45 545 20 593 20 631 c 0
 20 723 102 819 181 819 c 0
 212 819 299 779 305 762 c 0
 308 754 310 727 310 702 c 2
 310 658 l 1
 333 641 l 2
 348 630 354 615 354 601 c 0
 354 579 338 557 310 547 c 2
 284 538 l 1
 259 547 l 1
 234 556 l 1
 200 534 l 1
 167 511 l 1
 135 511 l 2
 118 511 91 518 76 527 c 0
EndSplineSet
EndChar

StartChar: guillemotleft
Encoding: 171 171 104
Width: 952
Flags: HW
LayerCount: 2
Fore
SplineSet
634 71 m 0
 608 79 544 100 491 116 c 0
 370 154 176 228 101 266 c 2
 45 294 l 1
 33 322 l 1
 20 348 l 1
 31 377 l 2
 48 424 425 770 504 812 c 0
 513 817 521 819 530 819 c 0
 563 819 592 788 592 752 c 0
 592 747 591 742 590 736 c 2
 584 713 l 1
 493 639 l 2
 443 599 354 520 296 465 c 2
 189 365 l 1
 328 311 l 2
 404 282 480 256 496 253 c 2
 526 247 l 1
 454 282 l 2
 414 301 379 325 375 334 c 0
 371 346 368 359 368 372 c 0
 368 394 375 417 387 438 c 0
 404 467 617 658 673 695 c 2
 695 711 l 1
 721 705 l 1
 748 697 l 1
 759 673 l 1
 770 648 l 1
 763 623 l 1
 757 596 l 1
 647 502 l 2
 587 451 537 403 537 397 c 0
 537 386 695 332 732 331 c 0
 767 330 894 286 913 270 c 2
 931 255 l 1
 931 220 l 1
 931 186 l 1
 903 172 l 1
 875 158 l 1
 726 197 l 2
 644 219 566 239 552 242 c 2
 526 249 l 1
 562 233 l 2
 581 225 631 209 672 197 c 2
 747 175 l 1
 757 156 l 2
 763 145 767 125 767 111 c 2
 767 85 l 1
 744 69 l 2
 731 60 719 56 703 56 c 0
 686 56 666 61 634 71 c 0
EndSplineSet
EndChar

StartChar: degree
Encoding: 176 176 105
Width: 451
Flags: HW
LayerCount: 2
Fore
SplineSet
259 565 m 0
 273 575 281 584 281 593 c 0
 281 602 273 610 258 618 c 0
 245 625 229 642 223 655 c 0
 216 670 210 677 203 677 c 0
 194 677 183 663 170 633 c 2
 150 587 l 1
 167 568 l 1
 185 549 l 1
 211 549 l 2
 225 549 247 556 259 565 c 0
146 431 m 0
 94 449 59 481 39 526 c 2
 20 570 l 1
 31 622 l 2
 37 650 54 693 68 717 c 2
 93 761 l 1
 139 790 l 1
 185 819 l 1
 234 819 l 2
 342 819 412 782 425 718 c 2
 431 688 l 1
 417 660 l 1
 402 632 l 1
 408 610 l 1
 414 588 l 1
 397 545 l 2
 368 469 290 420 210 420 c 0
 188 420 167 424 146 431 c 0
EndSplineSet
EndChar

StartChar: uni00B2
Encoding: 178 178 106
Width: 394
Flags: HW
LayerCount: 2
Fore
SplineSet
212 666 m 2
 226 684 l 1
 208 670 l 2
 198 662 191 655 191 653 c 0
 191 645 199 649 212 666 c 2
61 421 m 0
 51 425 37 437 31 449 c 2
 19 471 l 1
 25 505 l 1
 32 538 l 1
 63 562 l 1
 94 587 l 1
 77 610 l 2
 68 623 61 650 61 670 c 2
 61 707 l 1
 99 746 l 1
 138 786 l 1
 186 803 l 2
 212 812 249 819 267 819 c 2
 300 819 l 1
 335 788 l 1
 371 757 l 1
 371 704 l 1
 371 652 l 1
 348 623 l 2
 336 607 316 585 303 575 c 2
 280 557 l 1
 300 535 l 2
 311 523 321 501 321 487 c 2
 321 462 l 1
 300 443 l 1
 279 424 l 1
 179 419 l 2
 157 418 136 417 117 417 c 0
 89 417 67 419 61 421 c 0
EndSplineSet
EndChar

StartChar: uni00B3
Encoding: 179 179 107
Width: 366
Flags: HW
LayerCount: 2
Fore
SplineSet
171 396 m 0
 157 398 135 409 123 420 c 2
 101 441 l 1
 101 469 l 1
 101 496 l 1
 124 515 l 1
 148 534 l 1
 121 564 l 2
 106 581 83 598 69 601 c 2
 44 607 l 1
 32 633 l 1
 21 658 l 1
 30 681 l 2
 35 694 59 723 85 746 c 2
 132 787 l 1
 181 803 l 1
 229 819 l 1
 259 804 l 2
 275 796 299 777 310 762 c 2
 331 735 l 1
 330 699 l 2
 330 679 326 656 321 648 c 2
 311 633 l 1
 324 613 l 2
 338 591 346 566 346 541 c 0
 346 532 345 524 343 515 c 2
 337 485 l 1
 300 448 l 2
 265 414 223 395 186 395 c 0
 181 395 176 395 171 396 c 0
EndSplineSet
EndChar

StartChar: Zcaron
Encoding: 180 381 108
Width: 821
VWidth: 1046
Flags: HW
LayerCount: 2
Fore
SplineSet
339 869 m 2
 292 893 l 1
 230 953 l 2
 174 1009 150 1039 150 1063 c 0
 150 1075 156 1085 167 1096 c 0
 176 1105 194 1113 206 1113 c 2
 229 1113 l 1
 283 1055 l 2
 313 1023 349 989 364 981 c 2
 391 966 l 1
 414 1010 l 2
 454 1083 498 1142 523 1156 c 2
 546 1169 l 1
 570 1156 l 1
 593 1143 l 1
 596 1118 l 1
 599 1094 l 1
 565 1045 l 2
 546 1018 516 967 499 931 c 2
 468 866 l 1
 447 856 l 2
 434 850 422 847 409 847 c 0
 390 847 369 854 339 869 c 2
45 37 m 1
 19 57 l 1
 19 80 l 2
 20 117 39 141 141 230 c 0
 194 277 317 391 412 483 c 2
 585 652 l 1
 332 649 l 1
 79 646 l 1
 59 663 l 1
 39 681 l 1
 39 710 l 1
 39 740 l 1
 66 762 l 1
 93 783 l 1
 386 783 l 1
 679 782 l 1
 721 764 l 1
 763 744 l 1
 775 714 l 1
 789 682 l 1
 774 654 l 2
 767 639 715 584 659 534 c 0
 603 484 496 383 421 310 c 2
 286 178 l 1
 319 183 l 2
 394 195 468 210 536 224 c 0
 575 232 639 240 679 240 c 2
 752 240 l 1
 774 224 l 1
 797 209 l 1
 797 180 l 2
 797 165 789 143 782 133 c 2
 769 115 l 1
 663 106 l 2
 605 102 517 89 469 78 c 0
 421 67 360 54 331 51 c 0
 228 39 116 23 94 19 c 2
 72 15 l 1
 45 37 l 1
EndSplineSet
EndChar

StartChar: mu
Encoding: 181 181 109
Width: 452
Flags: HW
LayerCount: 2
Fore
SplineSet
61 -139 m 6
 42 -123 l 5
 35 -84 l 5
 27 -44 l 5
 32 198 l 5
 38 441 l 5
 46 458 l 6
 58 482 69 489 98 489 c 6
 123 489 l 5
 136 470 l 5
 150 450 l 5
 150 320 l 5
 150 191 l 5
 166 171 l 5
 183 150 l 5
 208 167 l 6
 243 190 264 213 284 258 c 6
 301 297 l 5
 308 366 l 5
 315 436 l 5
 330 458 l 5
 344 480 l 5
 367 480 l 6
 411 480 429 462 429 406 c 4
 429 389 427 369 424 345 c 4
 419 307 412 226 409 166 c 6
 403 56 l 5
 386 34 l 5
 369 12 l 5
 341 15 l 5
 313 17 l 5
 296 44 l 5
 278 70 l 5
 233 54 l 6
 212 46 187 42 171 42 c 4
 168 42 166 42 164 42 c 6
 139 46 l 5
 145 -33 l 5
 152 -112 l 5
 131 -133 l 6
 118 -147 106 -154 94 -154 c 4
 84 -154 73 -149 61 -139 c 6
EndSplineSet
EndChar

StartChar: paragraph
Encoding: 182 182 110
Width: 792
Flags: HW
LayerCount: 2
Fore
SplineSet
271 517 m 2
 289 517 l 1
 289 589 l 1
 289 660 l 1
 251 645 l 2
 229 637 200 620 186 610 c 2
 161 592 l 1
 158 558 l 1
 155 524 l 1
 168 515 l 2
 173 512 185 510 198 510 c 0
 204 510 211 510 217 511 c 0
 236 514 261 517 271 517 c 2
365 -200 m 0
 353 -195 337 -177 331 -163 c 0
 317 -131 289 108 289 267 c 2
 289 381 l 1
 208 380 l 1
 126 379 l 1
 97 400 l 2
 82 411 58 438 46 456 c 2
 23 489 l 1
 23 545 l 2
 23 576 29 615 36 633 c 0
 67 708 164 764 320 800 c 2
 386 816 l 1
 547 817 l 1
 707 819 l 1
 736 798 l 1
 765 776 l 1
 768 750 l 1
 771 723 l 1
 749 700 l 1
 727 678 l 1
 677 684 l 2
 663 686 648 686 636 686 c 0
 624 686 615 686 611 684 c 2
 596 679 l 1
 596 534 l 2
 596 347 615 73 628 -37 c 2
 638 -122 l 1
 622 -147 l 1
 606 -172 l 1
 578 -172 l 1
 549 -172 l 1
 524 -147 l 1
 501 -121 l 1
 493 -36 l 2
 487 31 454 583 453 663 c 2
 453 681 l 1
 436 681 l 1
 419 681 l 1
 425 325 l 2
 428 129 436 28 442 -37 c 2
 453 -155 l 1
 438 -178 l 2
 426 -197 410 -206 392 -206 c 0
 383 -206 374 -204 365 -200 c 0
EndSplineSet
EndChar

StartChar: zcaron
Encoding: 184 382 111
Width: 664
VWidth: 753
Flags: HW
LayerCount: 2
Fore
SplineSet
92 20 m 2
 83 27 72 49 67 65 c 2
 57 95 l 1
 72 122 l 2
 91 161 149 207 294 299 c 0
 365 344 422 381 421 382 c 0
 421 382 419 382 414 382 c 0
 392 382 324 380 244 377 c 2
 70 370 l 1
 51 379 l 2
 30 390 20 410 20 430 c 0
 20 451 31 472 52 486 c 2
 77 503 l 1
 263 511 l 1
 449 518 l 1
 509 509 l 2
 609 493 638 470 638 409 c 2
 638 381 l 1
 605 349 l 2
 587 332 512 279 438 233 c 2
 305 150 l 1
 377 156 l 2
 416 160 480 166 518 169 c 2
 588 175 l 1
 608 157 l 1
 628 138 l 1
 628 110 l 2
 628 77 607 51 574 44 c 0
 520 33 256 8 186 8 c 2
 110 8 l 1
 92 20 l 2
299 559 m 2
 252 583 l 1
 190 643 l 2
 134 699 110 729 110 753 c 0
 110 765 116 775 127 786 c 0
 136 795 154 803 166 803 c 2
 189 803 l 1
 243 745 l 2
 273 713 309 679 324 671 c 2
 351 656 l 1
 374 700 l 2
 414 773 458 832 483 846 c 2
 506 859 l 1
 530 846 l 1
 553 833 l 1
 556 808 l 1
 559 784 l 1
 525 735 l 2
 506 708 476 657 459 621 c 2
 428 556 l 1
 407 546 l 2
 394 540 382 537 369 537 c 0
 350 537 329 544 299 559 c 2
EndSplineSet
EndChar

StartChar: uni00B9
Encoding: 185 185 112
Width: 345
Flags: HW
LayerCount: 2
Fore
SplineSet
170 497 m 2
 143 523 l 1
 151 563 l 1
 158 604 l 1
 128 589 l 2
 110 580 96 575 84 575 c 0
 71 575 60 580 45 590 c 2
 23 605 l 1
 23 640 l 1
 23 675 l 1
 112 748 l 1
 202 819 l 1
 236 819 l 1
 269 819 l 1
 295 793 l 1
 322 767 l 1
 317 734 l 2
 314 716 304 660 294 609 c 2
 276 517 l 1
 255 494 l 2
 242 479 229 472 216 472 c 0
 202 472 187 480 170 497 c 2
EndSplineSet
EndChar

StartChar: guillemotright
Encoding: 187 187 113
Width: 812
Flags: HW
LayerCount: 2
Fore
SplineSet
183 91 m 0
 173 97 160 113 156 125 c 2
 147 146 l 1
 158 169 l 2
 163 181 220 225 282 268 c 0
 344 311 411 358 427 372 c 2
 458 398 l 1
 401 371 l 2
 370 356 297 315 238 280 c 0
 179 245 119 212 106 208 c 2
 83 202 l 1
 58 217 l 2
 45 226 32 243 28 254 c 2
 20 275 l 1
 35 298 l 2
 43 310 108 355 179 397 c 0
 250 439 309 476 309 479 c 0
 309 482 255 511 188 543 c 2
 68 600 l 1
 56 626 l 1
 44 650 l 1
 56 675 l 2
 63 688 81 704 96 709 c 2
 123 719 l 1
 294 637 l 2
 472 552 521 518 526 472 c 2
 529 444 l 1
 567 478 l 2
 589 496 606 516 606 520 c 0
 606 524 593 533 578 539 c 0
 563 545 481 579 397 616 c 0
 313 653 238 684 231 684 c 0
 224 684 209 692 197 702 c 2
 173 721 l 1
 173 751 l 1
 173 780 l 1
 198 800 l 1
 221 819 l 1
 258 813 l 2
 296 807 647 654 731 607 c 2
 780 580 l 1
 786 556 l 2
 788 548 789 536 789 527 c 0
 789 522 789 518 788 514 c 0
 778 459 275 80 213 80 c 0
 205 80 191 86 183 91 c 0
EndSplineSet
EndChar

StartChar: OE
Encoding: 188 338 114
Width: 1087
Flags: HW
LayerCount: 2
Fore
SplineSet
424 234 m 2
 427 284 430 409 431 510 c 2
 433 695 l 1
 380 694 l 1
 327 693 l 1
 283 671 l 2
 228 642 188 601 162 545 c 2
 141 501 l 1
 141 409 l 1
 141 315 l 1
 174 266 l 2
 191 238 222 204 239 191 c 0
 272 166 339 145 390 144 c 2
 418 143 l 1
 424 234 l 2
308 42 m 0
 195 67 118 127 57 242 c 2
 28 298 l 1
 24 384 l 1
 21 469 l 1
 40 534 l 2
 50 570 69 615 80 634 c 0
 110 684 184 749 239 775 c 0
 285 797 377 819 410 819 c 0
 415 819 419 818 421 817 c 0
 433 809 498 807 789 799 c 2
 1038 792 l 1
 1051 775 l 2
 1058 766 1063 749 1063 738 c 2
 1063 718 l 1
 1039 699 l 1
 1016 681 l 1
 789 683 l 1
 561 686 l 1
 556 675 l 2
 554 669 552 614 552 557 c 2
 552 453 l 1
 693 453 l 1
 834 453 l 1
 852 435 l 2
 861 426 869 407 869 395 c 2
 869 374 l 1
 846 356 l 1
 823 338 l 1
 684 338 l 1
 546 338 l 1
 540 257 l 2
 538 233 538 210 538 194 c 0
 538 181 538 173 539 172 c 0
 539 172 540 171 542 171 c 0
 549 171 565 174 582 178 c 0
 604 183 690 191 775 194 c 2
 930 200 l 1
 952 184 l 1
 975 170 l 1
 975 145 l 2
 975 92 955 85 790 78 c 0
 635 72 532 58 497 41 c 2
 473 29 l 1
 418 30 l 2
 387 30 338 36 308 42 c 0
EndSplineSet
EndChar

StartChar: Ydieresis
Encoding: 190 376 115
Width: 640
Flags: HW
LayerCount: 2
Fore
SplineSet
287 6 m 2
 257 37 l 1
 257 101 l 2
 257 137 252 214 247 272 c 2
 238 379 l 1
 223 395 l 2
 211 409 88 609 38 696 c 2
 19 730 l 1
 26 758 l 2
 30 773 44 793 58 802 c 2
 84 819 l 1
 108 808 l 2
 121 802 143 780 156 757 c 0
 252 594 281 550 284 550 c 0
 286 550 307 572 331 599 c 0
 433 713 522 785 559 785 c 0
 589 785 616 755 616 722 c 2
 616 696 l 1
 492 571 l 1
 367 446 l 1
 374 368 l 2
 378 325 383 230 387 156 c 2
 393 22 l 1
 365 -1 l 2
 347 -15 337 -22 327 -22 c 0
 316 -22 306 -13 287 6 c 2
EndSplineSet
EndChar

StartChar: Agrave
Encoding: 192 192 116
Width: 688
VWidth: 1036
Flags: HW
LayerCount: 2
Fore
SplineSet
459 471 m 0
 459 475 449 512 439 551 c 2
 421 623 l 1
 410 597 l 2
 404 583 390 550 378 522 c 0
 366 494 356 470 356 468 c 0
 356 466 379 464 408 464 c 0
 437 464 459 467 459 471 c 0
64 25 m 0
 41 36 19 74 19 102 c 0
 19 111 31 132 45 149 c 0
 76 186 155 343 166 388 c 0
 170 404 180 425 188 434 c 0
 208 457 279 621 327 756 c 2
 367 869 l 1
 388 886 l 1
 410 905 l 1
 444 905 l 1
 479 905 l 1
 494 871 l 2
 512 829 629 346 649 224 c 2
 665 133 l 1
 645 106 l 1
 626 80 l 1
 600 77 l 1
 574 74 l 1
 553 100 l 1
 533 126 l 1
 515 229 l 1
 497 331 l 1
 419 329 l 2
 376 328 328 325 313 322 c 2
 285 316 l 1
 243 234 l 2
 219 189 186 126 170 93 c 2
 139 32 l 1
 114 23 l 2
 100 18 88 14 87 14 c 0
 86 14 76 19 64 25 c 0
435 954 m 0
 351 970 282 995 252 1022 c 2
 230 1042 l 1
 230 1069 l 2
 230 1100 258 1129 287 1129 c 0
 298 1129 327 1121 351 1110 c 0
 375 1099 442 1084 500 1075 c 2
 605 1059 l 1
 618 1042 l 2
 625 1033 630 1013 630 998 c 2
 630 970 l 1
 608 955 l 1
 586 939 l 1
 545 940 l 2
 523 941 473 947 435 954 c 0
EndSplineSet
EndChar

StartChar: Aacute
Encoding: 193 193 117
Width: 688
VWidth: 1036
Flags: HW
LayerCount: 2
Fore
SplineSet
459 471 m 0
 459 475 449 512 439 551 c 2
 421 623 l 1
 410 597 l 2
 404 583 390 550 378 522 c 0
 366 494 356 470 356 468 c 0
 356 466 379 464 408 464 c 0
 437 464 459 467 459 471 c 0
64 25 m 0
 41 36 19 74 19 102 c 0
 19 111 31 132 45 149 c 0
 76 186 155 343 166 388 c 0
 170 404 180 425 188 434 c 0
 208 457 279 611 327 746 c 2
 367 869 l 1
 388 886 l 1
 410 905 l 1
 444 905 l 1
 479 905 l 1
 494 871 l 2
 512 829 629 346 649 224 c 2
 665 133 l 1
 645 106 l 1
 626 80 l 1
 600 77 l 1
 574 74 l 1
 553 100 l 1
 533 126 l 1
 515 229 l 1
 497 331 l 1
 419 329 l 2
 376 328 328 325 313 322 c 2
 285 316 l 1
 243 234 l 2
 219 189 186 126 170 93 c 2
 139 32 l 1
 114 23 l 2
 100 18 88 14 87 14 c 0
 86 14 76 19 64 25 c 0
263 930 m 2
 251 935 236 951 230 966 c 2
 220 993 l 1
 238 1017 l 1
 256 1041 l 1
 380 1095 l 1
 504 1149 l 1
 536 1149 l 1
 568 1149 l 1
 584 1131 l 2
 595 1119 600 1105 600 1091 c 0
 600 1079 596 1067 588 1056 c 0
 581 1047 538 1024 491 1004 c 0
 444 984 395 962 381 955 c 0
 367 948 340 936 321 931 c 2
 286 922 l 1
 263 930 l 2
EndSplineSet
EndChar

StartChar: Acircumflex
Encoding: 194 194 118
Width: 688
VWidth: 1036
Flags: HW
LayerCount: 2
Fore
SplineSet
459 471 m 0
 459 475 449 512 439 551 c 2
 421 623 l 1
 410 597 l 2
 404 583 390 550 378 522 c 0
 366 494 356 470 356 468 c 0
 356 466 379 464 408 464 c 0
 437 464 459 467 459 471 c 0
64 25 m 0
 41 36 19 74 19 102 c 0
 19 111 31 132 45 149 c 0
 76 186 155 343 166 388 c 0
 170 404 180 425 188 434 c 0
 208 457 279 621 327 756 c 2
 367 869 l 1
 388 886 l 1
 410 905 l 1
 444 905 l 1
 479 905 l 1
 494 871 l 2
 512 829 629 346 649 224 c 2
 665 133 l 1
 645 106 l 1
 626 80 l 1
 600 77 l 1
 574 74 l 1
 553 100 l 1
 533 126 l 1
 515 229 l 1
 497 331 l 1
 419 329 l 2
 376 328 328 325 313 322 c 2
 285 316 l 1
 243 234 l 2
 219 189 186 126 170 93 c 2
 139 32 l 1
 114 23 l 2
 100 18 88 14 87 14 c 0
 86 14 76 19 64 25 c 0
224 857 m 0
 191 868 173 890 173 919 c 0
 173 937 180 957 193 978 c 0
 221 1022 415 1208 448 1220 c 2
 473 1229 l 1
 502 1217 l 2
 518 1211 541 1191 553 1174 c 0
 570 1149 625 1019 650 940 c 2
 655 924 l 1
 630 895 l 1
 606 867 l 1
 579 874 l 2
 538 884 515 915 490 994 c 2
 467 1064 l 1
 450 1055 l 2
 431 1045 317 927 294 894 c 0
 279 871 253 856 233 856 c 0
 230 856 227 856 224 857 c 0
EndSplineSet
EndChar

StartChar: Atilde
Encoding: 195 195 119
Width: 688
VWidth: 1036
Flags: HW
LayerCount: 2
Fore
SplineSet
459 471 m 0
 459 475 449 512 439 551 c 2
 421 623 l 1
 410 597 l 2
 404 583 390 550 378 522 c 0
 366 494 356 470 356 468 c 0
 356 466 379 464 408 464 c 0
 437 464 459 467 459 471 c 0
64 25 m 0
 41 36 19 74 19 102 c 0
 19 111 31 132 45 149 c 0
 76 186 155 343 166 388 c 0
 170 404 180 425 188 434 c 0
 208 457 279 621 327 756 c 2
 367 869 l 1
 388 886 l 1
 410 905 l 1
 444 905 l 1
 479 905 l 1
 494 871 l 2
 512 829 629 346 649 224 c 2
 665 133 l 1
 645 106 l 1
 626 80 l 1
 600 77 l 1
 574 74 l 1
 553 100 l 1
 533 126 l 1
 515 229 l 1
 497 331 l 1
 419 329 l 2
 376 328 328 325 313 322 c 2
 285 316 l 1
 243 234 l 2
 219 189 186 126 170 93 c 2
 139 32 l 1
 114 23 l 2
 100 18 88 14 87 14 c 0
 86 14 76 19 64 25 c 0
418 957 m 0
 407 963 375 993 346 1024 c 2
 295 1080 l 1
 228 1057 l 2
 192 1045 149 1023 133 1010 c 0
 114 994 98 987 83 987 c 0
 69 987 57 993 44 1006 c 0
 30 1020 24 1034 24 1050 c 0
 24 1088 62 1129 130 1160 c 0
 164 1175 216 1193 245 1199 c 2
 297 1210 l 1
 333 1200 l 1
 369 1191 l 1
 422 1134 l 1
 475 1078 l 1
 503 1084 l 2
 550 1095 653 1144 709 1183 c 0
 745 1207 764 1219 779 1219 c 0
 792 1219 802 1211 817 1196 c 0
 833 1180 841 1168 841 1155 c 0
 841 1138 827 1120 797 1092 c 2
 752 1048 l 1
 673 1010 l 2
 585 968 515 947 466 947 c 0
 446 947 431 950 418 957 c 0
EndSplineSet
EndChar

StartChar: Adieresis
Encoding: 196 196 120
Width: 688
VWidth: 1036
Flags: HW
LayerCount: 2
Fore
SplineSet
295 936 m 4
 278 943 257 960 251 974 c 6
 240 1000 l 5
 246 1027 l 6
 250 1042 265 1066 278 1079 c 6
 302 1103 l 5
 337 1103 l 5
 372 1103 l 5
 393 1080 l 6
 407 1065 415 1050 415 1033 c 4
 415 1016 407 996 391 971 c 4
 372 940 355 927 333 927 c 4
 322 927 310 930 295 936 c 4
506 929 m 4
 478 939 451 977 451 1006 c 4
 451 1018 463 1043 477 1060 c 6
 504 1092 l 5
 538 1092 l 5
 572 1092 l 5
 588 1069 l 6
 597 1057 604 1030 604 1010 c 6
 604 972 l 5
 582 952 l 6
 561 933 545 924 529 924 c 4
 522 924 514 926 506 929 c 4
459 471 m 0
 459 475 449 512 439 551 c 2
 421 623 l 1
 410 597 l 2
 404 583 390 550 378 522 c 0
 366 494 356 470 356 468 c 0
 356 466 379 464 408 464 c 0
 437 464 459 467 459 471 c 0
64 25 m 0
 41 36 19 74 19 102 c 0
 19 111 31 132 45 149 c 0
 76 186 155 343 166 388 c 0
 170 404 180 425 188 434 c 0
 208 457 279 621 327 756 c 2
 367 869 l 1
 388 886 l 1
 410 905 l 1
 444 905 l 1
 479 905 l 1
 494 871 l 2
 512 829 629 346 649 224 c 2
 665 133 l 1
 645 106 l 1
 626 80 l 1
 600 77 l 1
 574 74 l 1
 553 100 l 1
 533 126 l 1
 515 229 l 1
 497 331 l 1
 419 329 l 2
 376 328 328 325 313 322 c 2
 285 316 l 1
 243 234 l 2
 219 189 186 126 170 93 c 2
 139 32 l 1
 114 23 l 2
 100 18 88 14 87 14 c 0
 86 14 76 19 64 25 c 0
EndSplineSet
EndChar

StartChar: Aring
Encoding: 197 197 121
Width: 688
VWidth: 1036
Flags: HW
LayerCount: 2
Fore
SplineSet
469 1105 m 4
 483 1115 491 1124 491 1133 c 4
 491 1142 483 1150 468 1158 c 4
 455 1165 439 1182 433 1195 c 4
 426 1210 420 1217 413 1217 c 4
 404 1217 393 1203 380 1173 c 6
 360 1127 l 5
 377 1108 l 5
 395 1089 l 5
 421 1089 l 6
 435 1089 457 1096 469 1105 c 4
356 971 m 4
 304 989 269 1021 249 1066 c 6
 230 1110 l 5
 241 1162 l 6
 247 1190 264 1233 278 1257 c 6
 303 1301 l 5
 349 1330 l 5
 395 1359 l 5
 444 1359 l 6
 552 1359 622 1322 635 1258 c 6
 641 1228 l 5
 627 1200 l 5
 612 1172 l 5
 618 1150 l 5
 624 1128 l 5
 607 1085 l 6
 578 1009 500 960 420 960 c 4
 398 960 377 964 356 971 c 4
459 471 m 0
 459 475 449 512 439 551 c 2
 421 623 l 1
 410 597 l 2
 404 583 390 550 378 522 c 0
 366 494 356 470 356 468 c 0
 356 466 379 464 408 464 c 0
 437 464 459 467 459 471 c 0
64 25 m 0
 41 36 19 74 19 102 c 0
 19 111 31 132 45 149 c 0
 76 186 155 343 166 388 c 0
 170 404 180 425 188 434 c 0
 208 457 279 621 327 756 c 2
 367 869 l 1
 388 886 l 1
 410 905 l 1
 444 905 l 1
 479 905 l 1
 494 871 l 2
 512 829 629 346 649 224 c 2
 665 133 l 1
 645 106 l 1
 626 80 l 1
 600 77 l 1
 574 74 l 1
 553 100 l 1
 533 126 l 1
 515 229 l 1
 497 331 l 1
 419 329 l 2
 376 328 328 325 313 322 c 2
 285 316 l 1
 243 234 l 2
 219 189 186 126 170 93 c 2
 139 32 l 1
 114 23 l 2
 100 18 88 14 87 14 c 0
 86 14 76 19 64 25 c 0
EndSplineSet
EndChar

StartChar: Egrave
Encoding: 200 200 122
Width: 753
VWidth: 1126
Flags: HW
LayerCount: 2
Fore
SplineSet
114 12 m 1
 77 28 l 1
 65 54 l 1
 53 79 l 1
 53 236 l 1
 53 394 l 1
 35 424 l 1
 18 456 l 1
 35 490 l 1
 52 524 l 1
 54 657 l 2
 54 667 54 677 54 686 c 0
 54 748 51 799 48 808 c 2
 40 827 l 1
 52 852 l 1
 64 878 l 1
 96 891 l 1
 130 905 l 1
 284 914 l 2
 368 919 495 923 568 923 c 2
 701 923 l 1
 715 903 l 2
 723 892 729 869 729 854 c 2
 729 827 l 1
 707 810 l 1
 683 795 l 1
 596 795 l 2
 548 795 438 790 353 783 c 2
 198 770 l 1
 193 749 l 2
 190 738 186 685 186 633 c 2
 186 538 l 1
 245 546 l 2
 278 550 328 553 358 553 c 2
 414 554 l 1
 433 530 l 2
 445 514 452 501 452 487 c 0
 452 473 445 460 433 448 c 2
 415 428 l 1
 344 422 l 2
 305 418 253 412 229 409 c 2
 186 403 l 1
 186 265 l 1
 186 126 l 1
 250 133 l 2
 285 136 377 142 455 146 c 2
 596 153 l 1
 617 135 l 1
 637 116 l 1
 637 86 l 1
 637 58 l 1
 617 38 l 1
 595 19 l 1
 465 13 l 2
 393 10 294 4 243 1 c 2
 151 -5 l 1
 114 12 l 1
435 954 m 0
 351 970 282 995 252 1022 c 2
 230 1042 l 1
 230 1069 l 2
 230 1100 258 1129 287 1129 c 0
 298 1129 327 1121 351 1110 c 0
 375 1099 442 1084 500 1075 c 2
 605 1059 l 1
 618 1042 l 2
 625 1033 630 1013 630 998 c 2
 630 970 l 1
 608 955 l 1
 586 939 l 1
 545 940 l 2
 523 941 473 947 435 954 c 0
EndSplineSet
EndChar

StartChar: Eacute
Encoding: 201 201 123
Width: 753
VWidth: 1126
Flags: HW
LayerCount: 2
Fore
SplineSet
114 12 m 1
 77 28 l 1
 65 54 l 1
 53 79 l 1
 53 236 l 1
 53 394 l 1
 35 424 l 1
 18 456 l 1
 35 490 l 1
 52 524 l 1
 54 657 l 2
 54 667 54 677 54 686 c 0
 54 748 51 799 48 808 c 2
 40 827 l 1
 52 852 l 1
 64 878 l 1
 96 891 l 1
 130 905 l 1
 284 914 l 2
 368 919 495 923 568 923 c 2
 701 923 l 1
 715 903 l 2
 723 892 729 869 729 854 c 2
 729 827 l 1
 707 810 l 1
 683 795 l 1
 596 795 l 2
 548 795 438 790 353 783 c 2
 198 770 l 1
 193 749 l 2
 190 738 186 685 186 633 c 2
 186 538 l 1
 245 546 l 2
 278 550 328 553 358 553 c 2
 414 554 l 1
 433 530 l 2
 445 514 452 501 452 487 c 0
 452 473 445 460 433 448 c 2
 415 428 l 1
 344 422 l 2
 305 418 253 412 229 409 c 2
 186 403 l 1
 186 265 l 1
 186 126 l 1
 250 133 l 2
 285 136 377 142 455 146 c 2
 596 153 l 1
 617 135 l 1
 637 116 l 1
 637 86 l 1
 637 58 l 1
 617 38 l 1
 595 19 l 1
 465 13 l 2
 393 10 294 4 243 1 c 2
 151 -5 l 1
 114 12 l 1
263 930 m 2
 251 935 236 951 230 966 c 2
 220 993 l 1
 238 1017 l 1
 256 1041 l 1
 380 1095 l 1
 504 1149 l 1
 536 1149 l 1
 568 1149 l 1
 584 1131 l 2
 595 1119 600 1105 600 1091 c 0
 600 1079 596 1067 588 1056 c 0
 581 1047 538 1024 491 1004 c 0
 444 984 395 962 381 955 c 0
 367 948 340 936 321 931 c 2
 286 922 l 1
 263 930 l 2
EndSplineSet
EndChar

StartChar: Ecircumflex
Encoding: 202 202 124
Width: 753
VWidth: 1126
Flags: HW
LayerCount: 2
Fore
SplineSet
114 12 m 1
 77 28 l 1
 65 54 l 1
 53 79 l 1
 53 236 l 1
 53 394 l 1
 35 424 l 1
 18 456 l 1
 35 490 l 1
 52 524 l 1
 54 657 l 2
 54 667 54 677 54 686 c 0
 54 748 51 799 48 808 c 2
 40 827 l 1
 52 852 l 1
 64 878 l 1
 96 891 l 1
 130 905 l 1
 284 914 l 2
 368 919 495 923 568 923 c 2
 701 923 l 1
 715 903 l 2
 723 892 729 869 729 854 c 2
 729 827 l 1
 707 810 l 1
 683 795 l 1
 596 795 l 2
 548 795 438 790 353 783 c 2
 198 770 l 1
 193 749 l 2
 190 738 186 685 186 633 c 2
 186 538 l 1
 245 546 l 2
 278 550 328 553 358 553 c 2
 414 554 l 1
 433 530 l 2
 445 514 452 501 452 487 c 0
 452 473 445 460 433 448 c 2
 415 428 l 1
 344 422 l 2
 305 418 253 412 229 409 c 2
 186 403 l 1
 186 265 l 1
 186 126 l 1
 250 133 l 2
 285 136 377 142 455 146 c 2
 596 153 l 1
 617 135 l 1
 637 116 l 1
 637 86 l 1
 637 58 l 1
 617 38 l 1
 595 19 l 1
 465 13 l 2
 393 10 294 4 243 1 c 2
 151 -5 l 1
 114 12 l 1
224 967 m 0
 191 978 173 1000 173 1029 c 0
 173 1047 180 1067 193 1088 c 0
 221 1132 415 1318 448 1330 c 2
 473 1339 l 1
 502 1327 l 2
 518 1321 541 1301 553 1284 c 0
 570 1259 625 1129 650 1050 c 2
 655 1034 l 1
 630 1005 l 1
 606 977 l 1
 579 984 l 2
 538 994 515 1025 490 1104 c 2
 467 1174 l 1
 450 1165 l 2
 431 1155 317 1037 294 1004 c 0
 279 981 253 966 233 966 c 0
 230 966 227 966 224 967 c 0
EndSplineSet
EndChar

StartChar: Edieresis
Encoding: 203 203 125
Width: 753
VWidth: 1126
Flags: HW
LayerCount: 2
Fore
SplineSet
265 966 m 4
 248 973 227 990 221 1004 c 6
 210 1030 l 5
 216 1057 l 6
 220 1072 235 1096 248 1109 c 6
 272 1133 l 5
 307 1133 l 5
 342 1133 l 5
 363 1110 l 6
 377 1095 385 1080 385 1063 c 4
 385 1046 377 1026 361 1001 c 4
 342 970 325 957 303 957 c 4
 292 957 280 960 265 966 c 4
476 959 m 4
 448 969 421 1007 421 1036 c 4
 421 1048 433 1073 447 1090 c 6
 474 1122 l 5
 508 1122 l 5
 542 1122 l 5
 558 1099 l 6
 567 1087 574 1060 574 1040 c 6
 574 1002 l 5
 552 982 l 6
 531 963 515 954 499 954 c 4
 492 954 484 956 476 959 c 4
114 12 m 1
 77 28 l 1
 65 54 l 1
 53 79 l 1
 53 236 l 1
 53 394 l 1
 35 424 l 1
 18 456 l 1
 35 490 l 1
 52 524 l 1
 54 657 l 2
 54 667 54 677 54 686 c 0
 54 748 51 799 48 808 c 2
 40 827 l 1
 52 852 l 1
 64 878 l 1
 96 891 l 1
 130 905 l 1
 284 914 l 2
 368 919 495 923 568 923 c 2
 701 923 l 1
 715 903 l 2
 723 892 729 869 729 854 c 2
 729 827 l 1
 707 810 l 1
 683 795 l 1
 596 795 l 2
 548 795 438 790 353 783 c 2
 198 770 l 1
 193 749 l 2
 190 738 186 685 186 633 c 2
 186 538 l 1
 245 546 l 2
 278 550 328 553 358 553 c 2
 414 554 l 1
 433 530 l 2
 445 514 452 501 452 487 c 0
 452 473 445 460 433 448 c 2
 415 428 l 1
 344 422 l 2
 305 418 253 412 229 409 c 2
 186 403 l 1
 186 265 l 1
 186 126 l 1
 250 133 l 2
 285 136 377 142 455 146 c 2
 596 153 l 1
 617 135 l 1
 637 116 l 1
 637 86 l 1
 637 58 l 1
 617 38 l 1
 595 19 l 1
 465 13 l 2
 393 10 294 4 243 1 c 2
 151 -5 l 1
 114 12 l 1
EndSplineSet
EndChar

StartChar: Igrave
Encoding: 204 204 126
Width: 860
VWidth: 1074
Flags: HW
LayerCount: 2
Fore
SplineSet
57 55 m 0
 38 63 28 84 28 108 c 0
 28 116 29 125 32 133 c 2
 39 154 l 1
 74 169 l 1
 108 184 l 1
 222 184 l 1
 337 184 l 1
 330 237 l 2
 327 267 324 388 324 508 c 2
 324 726 l 1
 198 726 l 1
 72 726 l 1
 55 739 l 2
 46 746 35 761 29 772 c 2
 19 791 l 1
 29 814 l 2
 35 826 51 841 64 847 c 2
 89 860 l 1
 224 861 l 2
 299 862 438 864 534 868 c 0
 576 870 617 871 652 871 c 0
 696 871 730 869 740 867 c 0
 775 859 794 833 794 806 c 0
 794 789 786 771 768 757 c 2
 740 737 l 1
 599 737 l 1
 457 737 l 1
 457 528 l 2
 457 413 459 291 463 256 c 2
 470 193 l 1
 483 198 l 2
 490 201 563 206 644 210 c 2
 792 217 l 1
 813 195 l 2
 825 183 836 161 836 148 c 2
 836 123 l 1
 809 102 l 1
 781 81 l 1
 730 81 l 2
 701 81 587 74 473 66 c 0
 308 54 198 49 132 49 c 0
 91 49 67 51 57 55 c 0
435 954 m 0
 351 970 282 995 252 1022 c 2
 230 1042 l 1
 230 1069 l 2
 230 1100 258 1129 287 1129 c 0
 298 1129 327 1121 351 1110 c 0
 375 1099 442 1084 500 1075 c 2
 605 1059 l 1
 618 1042 l 2
 625 1033 630 1013 630 998 c 2
 630 970 l 1
 608 955 l 1
 586 939 l 1
 545 940 l 2
 523 941 473 947 435 954 c 0
EndSplineSet
EndChar

StartChar: Iacute
Encoding: 205 205 127
Width: 860
VWidth: 1074
Flags: HW
LayerCount: 2
Fore
SplineSet
57 55 m 0
 38 63 28 84 28 108 c 0
 28 116 29 125 32 133 c 2
 39 154 l 1
 74 169 l 1
 108 184 l 1
 222 184 l 1
 337 184 l 1
 330 237 l 2
 327 267 324 388 324 508 c 2
 324 726 l 1
 198 726 l 1
 72 726 l 1
 55 739 l 2
 46 746 35 761 29 772 c 2
 19 791 l 1
 29 814 l 2
 35 826 51 841 64 847 c 2
 89 860 l 1
 224 861 l 2
 299 862 438 864 534 868 c 0
 576 870 617 871 652 871 c 0
 696 871 730 869 740 867 c 0
 775 859 794 833 794 806 c 0
 794 789 786 771 768 757 c 2
 740 737 l 1
 599 737 l 1
 457 737 l 1
 457 528 l 2
 457 413 459 291 463 256 c 2
 470 193 l 1
 483 198 l 2
 490 201 563 206 644 210 c 2
 792 217 l 1
 813 195 l 2
 825 183 836 161 836 148 c 2
 836 123 l 1
 809 102 l 1
 781 81 l 1
 730 81 l 2
 701 81 587 74 473 66 c 0
 308 54 198 49 132 49 c 0
 91 49 67 51 57 55 c 0
263 930 m 2
 251 935 236 951 230 966 c 2
 220 993 l 1
 238 1017 l 1
 256 1041 l 1
 380 1095 l 1
 504 1149 l 1
 536 1149 l 1
 568 1149 l 1
 584 1131 l 2
 595 1119 600 1105 600 1091 c 0
 600 1079 596 1067 588 1056 c 0
 581 1047 538 1024 491 1004 c 0
 444 984 395 962 381 955 c 0
 367 948 340 936 321 931 c 2
 286 922 l 1
 263 930 l 2
EndSplineSet
EndChar

StartChar: Icircumflex
Encoding: 206 206 128
Width: 860
VWidth: 1074
Flags: HW
LayerCount: 2
Fore
SplineSet
57 55 m 0
 38 63 28 84 28 108 c 0
 28 116 29 125 32 133 c 2
 39 154 l 1
 74 169 l 1
 108 184 l 1
 222 184 l 1
 337 184 l 1
 330 237 l 2
 327 267 324 388 324 508 c 2
 324 726 l 1
 198 726 l 1
 72 726 l 1
 55 739 l 2
 46 746 35 761 29 772 c 2
 19 791 l 1
 29 814 l 2
 35 826 51 841 64 847 c 2
 89 860 l 1
 224 861 l 2
 299 862 438 864 534 868 c 0
 576 870 617 871 652 871 c 0
 696 871 730 869 740 867 c 0
 775 859 794 833 794 806 c 0
 794 789 786 771 768 757 c 2
 740 737 l 1
 599 737 l 1
 457 737 l 1
 457 528 l 2
 457 413 459 291 463 256 c 2
 470 193 l 1
 483 198 l 2
 490 201 563 206 644 210 c 2
 792 217 l 1
 813 195 l 2
 825 183 836 161 836 148 c 2
 836 123 l 1
 809 102 l 1
 781 81 l 1
 730 81 l 2
 701 81 587 74 473 66 c 0
 308 54 198 49 132 49 c 0
 91 49 67 51 57 55 c 0
224 967 m 0
 191 978 173 1000 173 1029 c 0
 173 1047 180 1067 193 1088 c 0
 221 1132 415 1318 448 1330 c 2
 473 1339 l 1
 502 1327 l 2
 518 1321 541 1301 553 1284 c 0
 570 1259 625 1129 650 1050 c 2
 655 1034 l 1
 630 1005 l 1
 606 977 l 1
 579 984 l 2
 538 994 515 1025 490 1104 c 2
 467 1174 l 1
 450 1165 l 2
 431 1155 317 1037 294 1004 c 0
 279 981 253 966 233 966 c 0
 230 966 227 966 224 967 c 0
EndSplineSet
EndChar

StartChar: Idieresis
Encoding: 207 207 129
Width: 860
VWidth: 1074
Flags: HW
LayerCount: 2
Fore
SplineSet
295 936 m 4
 278 943 257 960 251 974 c 6
 240 1000 l 5
 246 1027 l 6
 250 1042 265 1066 278 1079 c 6
 302 1103 l 5
 337 1103 l 5
 372 1103 l 5
 393 1080 l 6
 407 1065 415 1050 415 1033 c 4
 415 1016 407 996 391 971 c 4
 372 940 355 927 333 927 c 4
 322 927 310 930 295 936 c 4
506 929 m 4
 478 939 451 977 451 1006 c 4
 451 1018 463 1043 477 1060 c 6
 504 1092 l 5
 538 1092 l 5
 572 1092 l 5
 588 1069 l 6
 597 1057 604 1030 604 1010 c 6
 604 972 l 5
 582 952 l 6
 561 933 545 924 529 924 c 4
 522 924 514 926 506 929 c 4
57 55 m 0
 38 63 28 84 28 108 c 0
 28 116 29 125 32 133 c 2
 39 154 l 1
 74 169 l 1
 108 184 l 1
 222 184 l 1
 337 184 l 1
 330 237 l 2
 327 267 324 388 324 508 c 2
 324 726 l 1
 198 726 l 1
 72 726 l 1
 55 739 l 2
 46 746 35 761 29 772 c 2
 19 791 l 1
 29 814 l 2
 35 826 51 841 64 847 c 2
 89 860 l 1
 224 861 l 2
 299 862 438 864 534 868 c 0
 576 870 617 871 652 871 c 0
 696 871 730 869 740 867 c 0
 775 859 794 833 794 806 c 0
 794 789 786 771 768 757 c 2
 740 737 l 1
 599 737 l 1
 457 737 l 1
 457 528 l 2
 457 413 459 291 463 256 c 2
 470 193 l 1
 483 198 l 2
 490 201 563 206 644 210 c 2
 792 217 l 1
 813 195 l 2
 825 183 836 161 836 148 c 2
 836 123 l 1
 809 102 l 1
 781 81 l 1
 730 81 l 2
 701 81 587 74 473 66 c 0
 308 54 198 49 132 49 c 0
 91 49 67 51 57 55 c 0
EndSplineSet
EndChar

StartChar: Eth
Encoding: 208 208 130
Width: 782
VWidth: 1120
Flags: HW
LayerCount: 2
Fore
SplineSet
348 172 m 2
 432 205 l 1
 494 267 l 1
 555 329 l 1
 584 386 l 1
 612 444 l 1
 619 500 l 1
 625 555 l 1
 603 596 l 2
 580 640 517 702 471 726 c 0
 456 734 395 750 337 762 c 2
 230 785 l 1
 205 778 l 1
 178 772 l 1
 185 514 l 2
 189 373 195 231 199 198 c 2
 205 140 l 1
 235 140 l 2
 251 140 302 154 348 172 c 2
152 7 m 2
 107 13 l 1
 89 34 l 1
 73 56 l 1
 61 264 l 2
 55 379 48 532 48 606 c 2
 48 739 l 1
 33 758 l 2
 24 771 19 785 19 799 c 0
 19 815 25 833 39 850 c 0
 69 888 104 904 177 911 c 2
 240 917 l 1
 360 892 l 1
 480 868 l 1
 535 840 l 2
 647 784 739 662 752 552 c 2
 758 500 l 1
 745 445 l 2
 738 415 715 358 695 319 c 2
 659 247 l 1
 590 178 l 1
 521 108 l 1
 435 69 l 2
 361 35 291 13 217 2 c 0
 215 2 211 1 207 1 c 0
 193 1 172 4 152 7 c 2
EndSplineSet
EndChar

StartChar: Ntilde
Encoding: 209 209 131
Width: 742
VWidth: 1118
Flags: HW
LayerCount: 2
Fore
SplineSet
64 13 m 0
 52 18 38 27 34 34 c 0
 31 40 28 185 28 371 c 0
 28 399 28 428 28 458 c 2
 31 868 l 1
 45 891 l 1
 60 914 l 1
 90 914 l 2
 138 914 151 903 179 848 c 0
 234 739 548 305 570 305 c 0
 571 305 571 306 571 307 c 0
 571 330 530 738 525 765 c 2
 519 797 l 1
 542 825 l 1
 563 852 l 1
 592 852 l 2
 607 852 627 845 636 835 c 2
 652 817 l 1
 669 668 l 2
 678 586 690 480 695 431 c 0
 700 382 709 284 712 214 c 2
 718 89 l 1
 706 66 l 2
 699 54 682 38 669 33 c 2
 643 24 l 1
 619 35 l 2
 605 41 580 66 565 89 c 0
 550 112 495 183 444 248 c 0
 353 363 215 545 181 596 c 2
 165 622 l 1
 164 403 l 2
 164 282 161 152 157 113 c 2
 150 42 l 1
 124 23 l 2
 108 10 101 5 92 5 c 0
 85 5 77 8 64 13 c 0
358 957 m 0
 347 963 315 993 286 1024 c 2
 235 1080 l 1
 168 1057 l 2
 132 1045 89 1023 73 1010 c 0
 54 994 38 987 23 987 c 0
 9 987 -3 993 -16 1006 c 0
 -30 1020 -36 1034 -36 1050 c 0
 -36 1088 2 1129 70 1160 c 0
 104 1175 156 1193 185 1199 c 2
 237 1210 l 1
 273 1200 l 1
 309 1191 l 1
 362 1134 l 1
 415 1078 l 1
 443 1084 l 2
 490 1095 593 1144 649 1183 c 0
 685 1207 704 1219 719 1219 c 0
 732 1219 742 1211 757 1196 c 0
 773 1180 781 1168 781 1155 c 0
 781 1138 767 1120 737 1092 c 2
 692 1048 l 1
 613 1010 l 2
 525 968 455 947 406 947 c 0
 386 947 371 950 358 957 c 0
EndSplineSet
EndChar

StartChar: Ograve
Encoding: 210 210 132
Width: 877
VWidth: 1089
Flags: HW
LayerCount: 2
Fore
SplineSet
476 182 m 2
 532 199 l 1
 588 256 l 2
 619 288 658 339 674 370 c 2
 704 425 l 1
 709 507 l 1
 713 589 l 1
 688 635 l 2
 675 661 645 697 621 714 c 2
 579 746 l 1
 504 753 l 1
 429 760 l 1
 372 739 l 2
 266 699 203 625 164 493 c 0
 155 462 148 422 148 405 c 0
 148 336 229 221 306 181 c 0
 326 171 351 166 380 166 c 0
 409 166 442 171 476 182 c 2
282 50 m 2
 226 66 l 1
 158 130 l 1
 89 194 l 1
 54 264 l 1
 20 333 l 1
 21 410 l 1
 22 488 l 1
 45 553 l 2
 78 646 99 686 147 740 c 0
 223 826 338 883 439 885 c 0
 447 885 458 885 471 885 c 0
 502 885 541 885 574 884 c 2
 656 881 l 1
 703 840 l 1
 750 800 l 1
 791 719 l 1
 833 639 l 1
 843 577 l 1
 853 514 l 1
 839 450 l 2
 821 365 811 342 762 264 c 0
 688 146 599 79 478 47 c 0
 444 38 415 34 386 34 c 0
 353 34 320 39 282 50 c 2
435 954 m 0
 351 970 282 995 252 1022 c 2
 230 1042 l 1
 230 1069 l 2
 230 1100 258 1129 287 1129 c 0
 298 1129 327 1121 351 1110 c 0
 375 1099 442 1084 500 1075 c 2
 605 1059 l 1
 618 1042 l 2
 625 1033 630 1013 630 998 c 2
 630 970 l 1
 608 955 l 1
 586 939 l 1
 545 940 l 2
 523 941 473 947 435 954 c 0
EndSplineSet
EndChar

StartChar: Oacute
Encoding: 211 211 133
Width: 877
VWidth: 1089
Flags: HW
LayerCount: 2
Fore
SplineSet
476 182 m 2
 532 199 l 1
 588 256 l 2
 619 288 658 339 674 370 c 2
 704 425 l 1
 709 507 l 1
 713 589 l 1
 688 635 l 2
 675 661 645 697 621 714 c 2
 579 746 l 1
 504 753 l 1
 429 760 l 1
 372 739 l 2
 266 699 203 625 164 493 c 0
 155 462 148 422 148 405 c 0
 148 336 229 221 306 181 c 0
 326 171 351 166 380 166 c 0
 409 166 442 171 476 182 c 2
282 50 m 2
 226 66 l 1
 158 130 l 1
 89 194 l 1
 54 264 l 1
 20 333 l 1
 21 410 l 1
 22 488 l 1
 45 553 l 2
 78 646 99 686 147 740 c 0
 223 826 338 883 439 885 c 0
 447 885 458 885 471 885 c 0
 502 885 541 885 574 884 c 2
 656 881 l 1
 703 840 l 1
 750 800 l 1
 791 719 l 1
 833 639 l 1
 843 577 l 1
 853 514 l 1
 839 450 l 2
 821 365 811 342 762 264 c 0
 688 146 599 79 478 47 c 0
 444 38 415 34 386 34 c 0
 353 34 320 39 282 50 c 2
263 930 m 2
 251 935 236 951 230 966 c 2
 220 993 l 1
 238 1017 l 1
 256 1041 l 1
 380 1095 l 1
 504 1149 l 1
 536 1149 l 1
 568 1149 l 1
 584 1131 l 2
 595 1119 600 1105 600 1091 c 0
 600 1079 596 1067 588 1056 c 0
 581 1047 538 1024 491 1004 c 0
 444 984 395 962 381 955 c 0
 367 948 340 936 321 931 c 2
 286 922 l 1
 263 930 l 2
EndSplineSet
EndChar

StartChar: Ocircumflex
Encoding: 212 212 134
Width: 877
VWidth: 1089
Flags: HW
LayerCount: 2
Fore
SplineSet
476 182 m 2
 532 199 l 1
 588 256 l 2
 619 288 658 339 674 370 c 2
 704 425 l 1
 709 507 l 1
 713 589 l 1
 688 635 l 2
 675 661 645 697 621 714 c 2
 579 746 l 1
 504 753 l 1
 429 760 l 1
 372 739 l 2
 266 699 203 625 164 493 c 0
 155 462 148 422 148 405 c 0
 148 336 229 221 306 181 c 0
 326 171 351 166 380 166 c 0
 409 166 442 171 476 182 c 2
282 50 m 2
 226 66 l 1
 158 130 l 1
 89 194 l 1
 54 264 l 1
 20 333 l 1
 21 410 l 1
 22 488 l 1
 45 553 l 2
 78 646 99 686 147 740 c 0
 223 826 338 883 439 885 c 0
 447 885 458 885 471 885 c 0
 502 885 541 885 574 884 c 2
 656 881 l 1
 703 840 l 1
 750 800 l 1
 791 719 l 1
 833 639 l 1
 843 577 l 1
 853 514 l 1
 839 450 l 2
 821 365 811 342 762 264 c 0
 688 146 599 79 478 47 c 0
 444 38 415 34 386 34 c 0
 353 34 320 39 282 50 c 2
224 967 m 0
 191 978 173 1000 173 1029 c 0
 173 1047 180 1067 193 1088 c 0
 221 1132 415 1318 448 1330 c 2
 473 1339 l 1
 502 1327 l 2
 518 1321 541 1301 553 1284 c 0
 570 1259 625 1129 650 1050 c 2
 655 1034 l 1
 630 1005 l 1
 606 977 l 1
 579 984 l 2
 538 994 515 1025 490 1104 c 2
 467 1174 l 1
 450 1165 l 2
 431 1155 317 1037 294 1004 c 0
 279 981 253 966 233 966 c 0
 230 966 227 966 224 967 c 0
EndSplineSet
EndChar

StartChar: Otilde
Encoding: 213 213 135
Width: 877
VWidth: 1089
Flags: HW
LayerCount: 2
Fore
SplineSet
476 182 m 2
 532 199 l 1
 588 256 l 2
 619 288 658 339 674 370 c 2
 704 425 l 1
 709 507 l 1
 713 589 l 1
 688 635 l 2
 675 661 645 697 621 714 c 2
 579 746 l 1
 504 753 l 1
 429 760 l 1
 372 739 l 2
 266 699 203 625 164 493 c 0
 155 462 148 422 148 405 c 0
 148 336 229 221 306 181 c 0
 326 171 351 166 380 166 c 0
 409 166 442 171 476 182 c 2
282 50 m 2
 226 66 l 1
 158 130 l 1
 89 194 l 1
 54 264 l 1
 20 333 l 1
 21 410 l 1
 22 488 l 1
 45 553 l 2
 78 646 99 686 147 740 c 0
 223 826 338 883 439 885 c 0
 447 885 458 885 471 885 c 0
 502 885 541 885 574 884 c 2
 656 881 l 1
 703 840 l 1
 750 800 l 1
 791 719 l 1
 833 639 l 1
 843 577 l 1
 853 514 l 1
 839 450 l 2
 821 365 811 342 762 264 c 0
 688 146 599 79 478 47 c 0
 444 38 415 34 386 34 c 0
 353 34 320 39 282 50 c 2
418 957 m 0
 407 963 375 993 346 1024 c 2
 295 1080 l 1
 228 1057 l 2
 192 1045 149 1023 133 1010 c 0
 114 994 98 987 83 987 c 0
 69 987 57 993 44 1006 c 0
 30 1020 24 1034 24 1050 c 0
 24 1088 62 1129 130 1160 c 0
 164 1175 216 1193 245 1199 c 2
 297 1210 l 1
 333 1200 l 1
 369 1191 l 1
 422 1134 l 1
 475 1078 l 1
 503 1084 l 2
 550 1095 653 1144 709 1183 c 0
 745 1207 764 1219 779 1219 c 0
 792 1219 802 1211 817 1196 c 0
 833 1180 841 1168 841 1155 c 0
 841 1138 827 1120 797 1092 c 2
 752 1048 l 1
 673 1010 l 2
 585 968 515 947 466 947 c 0
 446 947 431 950 418 957 c 0
EndSplineSet
EndChar

StartChar: Odieresis
Encoding: 214 214 136
Width: 877
VWidth: 1089
Flags: HW
LayerCount: 2
Fore
SplineSet
295 936 m 4
 278 943 257 960 251 974 c 6
 240 1000 l 5
 246 1027 l 6
 250 1042 265 1066 278 1079 c 6
 302 1103 l 5
 337 1103 l 5
 372 1103 l 5
 393 1080 l 6
 407 1065 415 1050 415 1033 c 4
 415 1016 407 996 391 971 c 4
 372 940 355 927 333 927 c 4
 322 927 310 930 295 936 c 4
506 929 m 4
 478 939 451 977 451 1006 c 4
 451 1018 463 1043 477 1060 c 6
 504 1092 l 5
 538 1092 l 5
 572 1092 l 5
 588 1069 l 6
 597 1057 604 1030 604 1010 c 6
 604 972 l 5
 582 952 l 6
 561 933 545 924 529 924 c 4
 522 924 514 926 506 929 c 4
476 182 m 2
 532 199 l 1
 588 256 l 2
 619 288 658 339 674 370 c 2
 704 425 l 1
 709 507 l 1
 713 589 l 1
 688 635 l 2
 675 661 645 697 621 714 c 2
 579 746 l 1
 504 753 l 1
 429 760 l 1
 372 739 l 2
 266 699 203 625 164 493 c 0
 155 462 148 422 148 405 c 0
 148 336 229 221 306 181 c 0
 326 171 351 166 380 166 c 0
 409 166 442 171 476 182 c 2
282 50 m 2
 226 66 l 1
 158 130 l 1
 89 194 l 1
 54 264 l 1
 20 333 l 1
 21 410 l 1
 22 488 l 1
 45 553 l 2
 78 646 99 686 147 740 c 0
 223 826 338 883 439 885 c 0
 447 885 458 885 471 885 c 0
 502 885 541 885 574 884 c 2
 656 881 l 1
 703 840 l 1
 750 800 l 1
 791 719 l 1
 833 639 l 1
 843 577 l 1
 853 514 l 1
 839 450 l 2
 821 365 811 342 762 264 c 0
 688 146 599 79 478 47 c 0
 444 38 415 34 386 34 c 0
 353 34 320 39 282 50 c 2
EndSplineSet
EndChar

StartChar: multiply
Encoding: 215 215 137
Width: 627
Flags: HW
LayerCount: 2
Fore
SplineSet
516 128 m 0
 489 138 456 162 396 216 c 0
 373 236 344 263 332 274 c 2
 309 294 l 1
 255 242 l 2
 225 213 194 189 186 187 c 0
 183 186 179 186 175 186 c 0
 151 186 128 200 118 222 c 2
 107 245 l 1
 120 276 l 2
 127 292 150 321 170 340 c 0
 190 359 207 381 207 387 c 0
 207 393 166 438 115 486 c 2
 23 574 l 1
 23 600 l 2
 23 634 53 659 93 659 c 2
 126 659 l 1
 215 573 l 1
 304 487 l 1
 398 578 l 1
 493 669 l 1
 522 669 l 1
 552 669 l 1
 568 651 l 2
 577 641 586 620 586 606 c 2
 586 580 l 1
 492 486 l 1
 396 392 l 1
 442 351 l 2
 468 328 512 291 542 268 c 0
 587 233 605 211 605 183 c 0
 605 177 604 170 602 163 c 0
 598 147 559 117 544 117 c 0
 543 117 543 117 542 117 c 0
 541 117 529 123 516 128 c 0
EndSplineSet
EndChar

StartChar: Oslash
Encoding: 216 216 138
Width: 1075
Flags: HW
LayerCount: 2
Fore
SplineSet
537 391 m 2
 715 575 l 1
 705 583 l 2
 698 587 682 589 661 589 c 0
 633 589 597 585 569 578 c 0
 513 563 393 513 353 488 c 0
 305 457 249 391 220 330 c 2
 194 273 l 1
 185 213 l 2
 182 192 181 171 181 151 c 0
 181 111 186 76 197 56 c 2
 206 40 l 1
 282 123 l 2
 324 169 439 290 537 391 c 2
615 7 m 1
 691 45 l 1
 750 103 l 1
 809 162 l 1
 829 204 l 2
 840 228 852 269 854 297 c 2
 858 348 l 1
 841 383 l 2
 831 402 810 429 796 443 c 2
 769 468 l 1
 616 311 l 2
 532 224 428 115 386 68 c 2
 308 -18 l 1
 329 -23 l 2
 340 -25 358 -29 367 -31 c 0
 373 -32 397 -34 426 -34 c 0
 438 -34 450 -34 463 -33 c 2
 541 -30 l 1
 615 7 l 1
42 -239 m 2
 18 -220 l 1
 18 -200 l 2
 18 -189 32 -162 47 -143 c 0
 62 -124 87 -93 100 -77 c 2
 126 -46 l 1
 103 -8 l 1
 81 31 l 1
 70 98 l 1
 59 165 l 1
 75 243 l 1
 90 321 l 1
 125 393 l 1
 160 465 l 1
 202 508 l 2
 258 565 302 594 397 635 c 0
 505 682 585 703 654 703 c 0
 689 703 720 698 751 687 c 2
 799 671 l 1
 835 703 l 2
 854 721 892 755 920 778 c 2
 969 819 l 1
 996 819 l 1
 1024 819 l 1
 1038 798 l 1
 1053 775 l 1
 1048 754 l 1
 1041 733 l 1
 966 669 l 1
 890 604 l 1
 896 578 l 2
 899 563 903 537 906 523 c 0
 909 509 923 472 937 442 c 0
 951 412 967 371 969 348 c 0
 970 340 970 332 970 324 c 0
 970 232 922 112 851 40 c 0
 769 -45 644 -117 540 -142 c 2
 492 -154 l 1
 410 -148 l 2
 365 -145 303 -137 273 -129 c 2
 219 -115 l 1
 212 -122 l 2
 208 -126 186 -153 160 -182 c 0
 119 -229 87 -256 71 -257 c 0
 68 -257 54 -249 42 -239 c 2
EndSplineSet
EndChar

StartChar: Ugrave
Encoding: 217 217 139
Width: 648
VWidth: 1071
Flags: HW
LayerCount: 2
Fore
SplineSet
168 75 m 0
 101 109 58 161 36 233 c 2
 20 289 l 1
 26 397 l 2
 35 571 90 800 133 850 c 0
 143 862 159 868 175 868 c 0
 192 868 209 861 220 849 c 0
 231 837 236 821 236 801 c 0
 236 778 230 750 216 714 c 0
 186 634 167 527 159 398 c 2
 153 286 l 1
 166 254 l 2
 173 237 192 213 208 202 c 2
 237 182 l 1
 276 192 l 2
 330 206 396 267 428 328 c 0
 466 402 482 498 484 654 c 2
 487 790 l 1
 506 808 l 2
 518 820 532 826 547 826 c 0
 580 826 613 798 619 756 c 0
 619 753 620 746 620 738 c 0
 620 708 617 650 614 591 c 2
 607 454 l 1
 586 377 l 2
 557 276 515 204 450 146 c 0
 387 89 362 76 291 61 c 0
 260 55 245 51 232 51 c 0
 215 51 202 58 168 75 c 0
355 944 m 0
 271 960 202 985 172 1012 c 2
 150 1032 l 1
 150 1059 l 2
 150 1090 178 1119 207 1119 c 0
 218 1119 247 1111 271 1100 c 0
 295 1089 362 1074 420 1065 c 2
 525 1049 l 1
 538 1032 l 2
 545 1023 550 1003 550 988 c 2
 550 960 l 1
 528 945 l 1
 506 929 l 1
 465 930 l 2
 443 931 393 937 355 944 c 0
EndSplineSet
EndChar

StartChar: Uacute
Encoding: 218 218 140
Width: 648
VWidth: 1071
Flags: HW
LayerCount: 2
Fore
SplineSet
168 75 m 0
 101 109 58 161 36 233 c 2
 20 289 l 1
 26 397 l 2
 35 571 90 800 133 850 c 0
 143 862 159 868 175 868 c 0
 192 868 209 861 220 849 c 0
 231 837 236 821 236 801 c 0
 236 778 230 750 216 714 c 0
 186 634 167 527 159 398 c 2
 153 286 l 1
 166 254 l 2
 173 237 192 213 208 202 c 2
 237 182 l 1
 276 192 l 2
 330 206 396 267 428 328 c 0
 466 402 482 498 484 654 c 2
 487 790 l 1
 506 808 l 2
 518 820 532 826 547 826 c 0
 580 826 613 798 619 756 c 0
 619 753 620 746 620 738 c 0
 620 708 617 650 614 591 c 2
 607 454 l 1
 586 377 l 2
 557 276 515 204 450 146 c 0
 387 89 362 76 291 61 c 0
 260 55 245 51 232 51 c 0
 215 51 202 58 168 75 c 0
263 930 m 2
 251 935 236 951 230 966 c 2
 220 993 l 1
 238 1017 l 1
 256 1041 l 1
 380 1095 l 1
 504 1149 l 1
 536 1149 l 1
 568 1149 l 1
 584 1131 l 2
 595 1119 600 1105 600 1091 c 0
 600 1079 596 1067 588 1056 c 0
 581 1047 538 1024 491 1004 c 0
 444 984 395 962 381 955 c 0
 367 948 340 936 321 931 c 2
 286 922 l 1
 263 930 l 2
EndSplineSet
EndChar

StartChar: Ucircumflex
Encoding: 219 219 141
Width: 648
VWidth: 1071
Flags: HW
LayerCount: 2
Fore
SplineSet
168 75 m 0
 101 109 58 161 36 233 c 2
 20 289 l 1
 26 397 l 2
 35 571 90 800 133 850 c 0
 143 862 159 868 175 868 c 0
 192 868 209 861 220 849 c 0
 231 837 236 821 236 801 c 0
 236 778 230 750 216 714 c 0
 186 634 167 527 159 398 c 2
 153 286 l 1
 166 254 l 2
 173 237 192 213 208 202 c 2
 237 182 l 1
 276 192 l 2
 330 206 396 267 428 328 c 0
 466 402 482 498 484 654 c 2
 487 790 l 1
 506 808 l 2
 518 820 532 826 547 826 c 0
 580 826 613 798 619 756 c 0
 619 753 620 746 620 738 c 0
 620 708 617 650 614 591 c 2
 607 454 l 1
 586 377 l 2
 557 276 515 204 450 146 c 0
 387 89 362 76 291 61 c 0
 260 55 245 51 232 51 c 0
 215 51 202 58 168 75 c 0
224 967 m 0
 191 978 173 1000 173 1029 c 0
 173 1047 180 1067 193 1088 c 0
 221 1132 415 1318 448 1330 c 2
 473 1339 l 1
 502 1327 l 2
 518 1321 541 1301 553 1284 c 0
 570 1259 625 1129 650 1050 c 2
 655 1034 l 1
 630 1005 l 1
 606 977 l 1
 579 984 l 2
 538 994 515 1025 490 1104 c 2
 467 1174 l 1
 450 1165 l 2
 431 1155 317 1037 294 1004 c 0
 279 981 253 966 233 966 c 0
 230 966 227 966 224 967 c 0
EndSplineSet
EndChar

StartChar: Udieresis
Encoding: 220 220 142
Width: 648
VWidth: 1071
Flags: HW
LayerCount: 2
Fore
SplineSet
168 75 m 0
 101 109 58 161 36 233 c 2
 20 289 l 1
 26 397 l 2
 35 571 90 800 133 850 c 0
 143 862 159 868 175 868 c 0
 192 868 209 861 220 849 c 0
 231 837 236 821 236 801 c 0
 236 778 230 750 216 714 c 0
 186 634 167 527 159 398 c 2
 153 286 l 1
 166 254 l 2
 173 237 192 213 208 202 c 2
 237 182 l 1
 276 192 l 2
 330 206 396 267 428 328 c 0
 466 402 482 498 484 654 c 2
 487 790 l 1
 506 808 l 2
 518 820 532 826 547 826 c 0
 580 826 613 798 619 756 c 0
 619 753 620 746 620 738 c 0
 620 708 617 650 614 591 c 2
 607 454 l 1
 586 377 l 2
 557 276 515 204 450 146 c 0
 387 89 362 76 291 61 c 0
 260 55 245 51 232 51 c 0
 215 51 202 58 168 75 c 0
EndSplineSet
EndChar

StartChar: Yacute
Encoding: 221 221 143
Width: 639
VWidth: 1214
Flags: HW
LayerCount: 2
Fore
SplineSet
287 38 m 2
 257 68 l 1
 257 132 l 2
 257 168 252 246 247 304 c 2
 238 410 l 1
 223 427 l 2
 211 441 88 641 38 728 c 2
 19 762 l 1
 26 790 l 2
 30 805 44 825 58 834 c 2
 84 851 l 1
 108 840 l 2
 121 834 143 811 156 788 c 0
 252 625 281 582 284 582 c 0
 286 582 307 603 331 630 c 0
 433 744 522 817 559 817 c 0
 589 817 616 787 616 754 c 2
 616 727 l 1
 492 603 l 1
 367 478 l 1
 374 400 l 2
 378 357 383 261 387 187 c 2
 393 52 l 1
 365 31 l 2
 347 17 337 10 327 10 c 0
 316 10 306 19 287 38 c 2
193 860 m 2
 181 865 166 881 160 896 c 2
 150 923 l 1
 168 947 l 1
 186 971 l 1
 310 1025 l 1
 434 1079 l 1
 466 1079 l 1
 498 1079 l 1
 514 1061 l 2
 525 1049 530 1035 530 1021 c 0
 530 1009 526 997 518 986 c 0
 511 977 468 954 421 934 c 0
 374 914 325 892 311 885 c 0
 297 878 270 866 251 861 c 2
 216 852 l 1
 193 860 l 2
EndSplineSet
EndChar

StartChar: Thorn
Encoding: 222 222 144
Width: 441
Flags: HW
LayerCount: 2
Fore
SplineSet
280 390 m 1
 295 414 l 1
 294 449 l 1
 294 485 l 1
 273 500 l 2
 262 509 243 516 231 516 c 2
 208 516 l 1
 179 489 l 1
 151 460 l 1
 151 434 l 1
 151 406 l 1
 183 387 l 2
 201 377 228 369 241 368 c 2
 264 367 l 1
 280 390 l 1
45 152 m 1
 27 174 l 1
 27 421 l 1
 27 668 l 1
 37 686 l 2
 42 696 51 710 56 713 c 0
 62 717 71 719 81 719 c 0
 98 719 118 713 127 703 c 2
 141 687 l 1
 141 646 l 1
 141 606 l 1
 174 620 l 1
 207 633 l 1
 250 628 l 2
 303 622 357 591 380 555 c 0
 389 540 402 507 407 481 c 2
 415 432 l 1
 405 390 l 1
 393 347 l 1
 364 313 l 2
 348 294 321 272 307 265 c 0
 289 256 264 251 240 251 c 0
 217 251 195 255 177 264 c 0
 161 272 146 278 144 278 c 0
 142 278 141 253 141 221 c 2
 141 164 l 1
 124 146 l 2
 115 137 97 128 85 128 c 2
 64 128 l 1
 45 152 l 1
EndSplineSet
EndChar

StartChar: germandbls
Encoding: 223 223 145
Width: 628
Flags: HW
LayerCount: 2
Fore
SplineSet
50 -92 m 2
 28 -69 l 1
 27 57 l 2
 27 92 26 147 26 207 c 0
 26 267 27 333 27 390 c 2
 30 598 l 1
 46 662 l 2
 63 730 90 789 115 817 c 0
 123 826 149 844 174 856 c 2
 218 878 l 1
 301 878 l 1
 385 879 l 1
 430 856 l 2
 509 815 560 742 575 647 c 2
 583 592 l 1
 569 542 l 2
 562 514 542 469 526 440 c 2
 496 389 l 1
 520 368 l 2
 533 357 559 322 575 292 c 2
 604 237 l 1
 604 192 l 1
 604 147 l 1
 589 117 l 2
 581 101 561 75 546 61 c 0
 514 29 435 -7 399 -7 c 0
 342 -7 256 40 225 87 c 0
 216 101 212 115 212 129 c 0
 212 160 232 187 264 187 c 2
 286 187 l 1
 313 157 l 2
 328 141 351 123 362 117 c 2
 383 106 l 1
 412 111 l 1
 441 117 l 1
 469 149 l 1
 497 181 l 1
 492 203 l 2
 485 233 444 290 427 297 c 0
 425 298 422 298 418 298 c 0
 408 298 395 296 383 292 c 2
 353 282 l 1
 324 288 l 1
 294 293 l 1
 276 317 l 2
 264 332 258 348 258 362 c 0
 258 375 263 387 274 398 c 2
 291 414 l 1
 336 420 l 1
 382 428 l 1
 414 475 l 2
 431 502 450 541 456 564 c 2
 466 605 l 1
 459 645 l 2
 450 694 419 736 376 756 c 2
 343 772 l 1
 286 766 l 2
 254 763 220 755 211 750 c 0
 192 740 164 680 151 621 c 2
 142 581 l 1
 141 254 l 2
 141 74 138 -78 135 -83 c 0
 128 -94 94 -113 81 -113 c 0
 76 -113 62 -104 50 -92 c 2
EndSplineSet
EndChar

StartChar: agrave
Encoding: 224 224 146
Width: 644
VWidth: 737
Flags: HW
LayerCount: 2
Fore
SplineSet
270 158 m 0
 308 190 375 321 377 368 c 2
 379 402 l 1
 349 406 l 2
 346 406 343 407 339 407 c 0
 295 407 236 379 196 338 c 2
 158 299 l 1
 152 248 l 1
 145 197 l 1
 173 164 l 2
 191 143 205 133 221 133 c 0
 235 133 250 141 270 158 c 0
154 15 m 0
 113 37 70 78 43 121 c 2
 21 156 l 1
 21 228 l 1
 21 300 l 1
 42 348 l 2
 85 442 208 527 318 538 c 2
 371 544 l 1
 440 519 l 1
 509 495 l 1
 523 473 l 1
 539 451 l 1
 522 337 l 2
 513 275 507 209 507 193 c 2
 507 163 l 1
 543 169 l 1
 579 175 l 1
 599 157 l 1
 620 138 l 1
 620 111 l 1
 620 82 l 1
 584 51 l 2
 565 34 535 17 518 13 c 2
 487 7 l 1
 456 24 l 2
 439 33 418 51 409 65 c 2
 391 90 l 1
 350 54 l 2
 307 18 261 -1 218 -1 c 0
 195 -1 174 4 154 15 c 0
335 614 m 0
 251 630 182 655 152 682 c 2
 130 702 l 1
 130 729 l 2
 130 760 158 789 187 789 c 0
 198 789 227 781 251 770 c 0
 275 759 342 744 400 735 c 2
 505 719 l 1
 518 702 l 2
 525 693 530 673 530 658 c 2
 530 630 l 1
 508 615 l 1
 486 599 l 1
 445 600 l 2
 423 601 373 607 335 614 c 0
EndSplineSet
EndChar

StartChar: aacute
Encoding: 225 225 147
Width: 644
VWidth: 737
Flags: HW
LayerCount: 2
Fore
SplineSet
270 158 m 0
 308 190 375 321 377 368 c 2
 379 402 l 1
 349 406 l 2
 346 406 343 407 339 407 c 0
 295 407 236 379 196 338 c 2
 158 299 l 1
 152 248 l 1
 145 197 l 1
 173 164 l 2
 191 143 205 133 221 133 c 0
 235 133 250 141 270 158 c 0
154 15 m 0
 113 37 70 78 43 121 c 2
 21 156 l 1
 21 228 l 1
 21 300 l 1
 42 348 l 2
 85 442 208 527 318 538 c 2
 371 544 l 1
 440 519 l 1
 509 495 l 1
 523 473 l 1
 539 451 l 1
 522 337 l 2
 513 275 507 209 507 193 c 2
 507 163 l 1
 543 169 l 1
 579 175 l 1
 599 157 l 1
 620 138 l 1
 620 111 l 1
 620 82 l 1
 584 51 l 2
 565 34 535 17 518 13 c 2
 487 7 l 1
 456 24 l 2
 439 33 418 51 409 65 c 2
 391 90 l 1
 350 54 l 2
 307 18 261 -1 218 -1 c 0
 195 -1 174 4 154 15 c 0
173 580 m 2
 161 585 146 601 140 616 c 2
 130 643 l 1
 148 667 l 1
 166 691 l 1
 290 745 l 1
 414 799 l 1
 446 799 l 1
 478 799 l 1
 494 781 l 2
 505 769 510 755 510 741 c 0
 510 729 506 717 498 706 c 0
 491 697 448 674 401 654 c 0
 354 634 305 612 291 605 c 0
 277 598 250 586 231 581 c 2
 196 572 l 1
 173 580 l 2
EndSplineSet
EndChar

StartChar: acircumflex
Encoding: 226 226 148
Width: 644
VWidth: 737
Flags: HW
LayerCount: 2
Fore
SplineSet
270 158 m 0
 308 190 375 321 377 368 c 2
 379 402 l 1
 349 406 l 2
 346 406 343 407 339 407 c 0
 295 407 236 379 196 338 c 2
 158 299 l 1
 152 248 l 1
 145 197 l 1
 173 164 l 2
 191 143 205 133 221 133 c 0
 235 133 250 141 270 158 c 0
154 15 m 0
 113 37 70 78 43 121 c 2
 21 156 l 1
 21 228 l 1
 21 300 l 1
 42 348 l 2
 85 442 208 527 318 538 c 2
 371 544 l 1
 440 519 l 1
 509 495 l 1
 523 473 l 1
 539 451 l 1
 522 337 l 2
 513 275 507 209 507 193 c 2
 507 163 l 1
 543 169 l 1
 579 175 l 1
 599 157 l 1
 620 138 l 1
 620 111 l 1
 620 82 l 1
 584 51 l 2
 565 34 535 17 518 13 c 2
 487 7 l 1
 456 24 l 2
 439 33 418 51 409 65 c 2
 391 90 l 1
 350 54 l 2
 307 18 261 -1 218 -1 c 0
 195 -1 174 4 154 15 c 0
164 597 m 0
 131 608 113 630 113 659 c 0
 113 677 120 697 133 718 c 0
 161 762 355 948 388 960 c 2
 413 969 l 1
 442 957 l 2
 458 951 481 931 493 914 c 0
 510 889 565 759 590 680 c 2
 595 664 l 1
 570 635 l 1
 546 607 l 1
 519 614 l 2
 478 624 455 655 430 734 c 2
 407 804 l 1
 390 795 l 2
 371 785 257 667 234 634 c 0
 219 611 193 596 173 596 c 0
 170 596 167 596 164 597 c 0
EndSplineSet
EndChar

StartChar: atilde
Encoding: 227 227 149
Width: 644
VWidth: 737
Flags: HW
LayerCount: 2
Fore
SplineSet
270 158 m 0
 308 190 375 321 377 368 c 2
 379 402 l 1
 349 406 l 2
 346 406 343 407 339 407 c 0
 295 407 236 379 196 338 c 2
 158 299 l 1
 152 248 l 1
 145 197 l 1
 173 164 l 2
 191 143 205 133 221 133 c 0
 235 133 250 141 270 158 c 0
154 15 m 0
 113 37 70 78 43 121 c 2
 21 156 l 1
 21 228 l 1
 21 300 l 1
 42 348 l 2
 85 442 208 527 318 538 c 2
 371 544 l 1
 440 519 l 1
 509 495 l 1
 523 473 l 1
 539 451 l 1
 522 337 l 2
 513 275 507 209 507 193 c 2
 507 163 l 1
 543 169 l 1
 579 175 l 1
 599 157 l 1
 620 138 l 1
 620 111 l 1
 620 82 l 1
 584 51 l 2
 565 34 535 17 518 13 c 2
 487 7 l 1
 456 24 l 2
 439 33 418 51 409 65 c 2
 391 90 l 1
 350 54 l 2
 307 18 261 -1 218 -1 c 0
 195 -1 174 4 154 15 c 0
338 597 m 0
 327 603 295 633 266 664 c 2
 215 720 l 1
 148 697 l 2
 112 685 69 663 53 650 c 0
 34 634 18 627 3 627 c 0
 -11 627 -23 633 -36 646 c 0
 -50 660 -56 674 -56 690 c 0
 -56 728 -18 769 50 800 c 0
 84 815 136 833 165 839 c 2
 217 850 l 1
 253 840 l 1
 289 831 l 1
 342 774 l 1
 395 718 l 1
 423 724 l 2
 470 735 573 784 629 823 c 0
 665 847 684 859 699 859 c 0
 712 859 722 851 737 836 c 0
 753 820 761 808 761 795 c 0
 761 778 747 760 717 732 c 2
 672 688 l 1
 593 650 l 2
 505 608 435 587 386 587 c 0
 366 587 351 590 338 597 c 0
EndSplineSet
EndChar

StartChar: adieresis
Encoding: 228 228 150
Width: 644
VWidth: 737
Flags: HW
LayerCount: 2
Fore
SplineSet
270 158 m 0
 308 190 375 321 377 368 c 2
 379 402 l 1
 349 406 l 2
 346 406 343 407 339 407 c 0
 295 407 236 379 196 338 c 2
 158 299 l 1
 152 248 l 1
 145 197 l 1
 173 164 l 2
 191 143 205 133 221 133 c 0
 235 133 250 141 270 158 c 0
154 15 m 0
 113 37 70 78 43 121 c 2
 21 156 l 1
 21 228 l 1
 21 300 l 1
 42 348 l 2
 85 442 208 527 318 538 c 2
 371 544 l 1
 440 519 l 1
 509 495 l 1
 523 473 l 1
 539 451 l 1
 522 337 l 2
 513 275 507 209 507 193 c 2
 507 163 l 1
 543 169 l 1
 579 175 l 1
 599 157 l 1
 620 138 l 1
 620 111 l 1
 620 82 l 1
 584 51 l 2
 565 34 535 17 518 13 c 2
 487 7 l 1
 456 24 l 2
 439 33 418 51 409 65 c 2
 391 90 l 1
 350 54 l 2
 307 18 261 -1 218 -1 c 0
 195 -1 174 4 154 15 c 0
185 576 m 0
 168 583 147 600 141 614 c 2
 130 640 l 1
 136 667 l 2
 140 682 155 706 168 719 c 2
 192 743 l 1
 227 743 l 1
 262 743 l 1
 283 720 l 2
 297 705 305 690 305 673 c 0
 305 656 297 636 281 611 c 0
 262 580 245 567 223 567 c 0
 212 567 200 570 185 576 c 0
396 569 m 0
 368 579 341 617 341 646 c 0
 341 658 353 683 367 700 c 2
 394 732 l 1
 428 732 l 1
 462 732 l 1
 478 709 l 2
 487 697 494 670 494 650 c 2
 494 612 l 1
 472 592 l 2
 451 573 435 564 419 564 c 0
 412 564 404 566 396 569 c 0
EndSplineSet
EndChar

StartChar: aring
Encoding: 229 229 151
Width: 644
VWidth: 737
Flags: HW
LayerCount: 2
Fore
SplineSet
270 158 m 0
 308 190 375 321 377 368 c 2
 379 402 l 1
 349 406 l 2
 346 406 343 407 339 407 c 0
 295 407 236 379 196 338 c 2
 158 299 l 1
 152 248 l 1
 145 197 l 1
 173 164 l 2
 191 143 205 133 221 133 c 0
 235 133 250 141 270 158 c 0
154 15 m 0
 113 37 70 78 43 121 c 2
 21 156 l 1
 21 228 l 1
 21 300 l 1
 42 348 l 2
 85 442 208 527 318 538 c 2
 371 544 l 1
 440 519 l 1
 509 495 l 1
 523 473 l 1
 539 451 l 1
 522 337 l 2
 513 275 507 209 507 193 c 2
 507 163 l 1
 543 169 l 1
 579 175 l 1
 599 157 l 1
 620 138 l 1
 620 111 l 1
 620 82 l 1
 584 51 l 2
 565 34 535 17 518 13 c 2
 487 7 l 1
 456 24 l 2
 439 33 418 51 409 65 c 2
 391 90 l 1
 350 54 l 2
 307 18 261 -1 218 -1 c 0
 195 -1 174 4 154 15 c 0
359 725 m 0
 373 735 381 744 381 753 c 0
 381 762 373 770 358 778 c 0
 345 785 329 802 323 815 c 0
 316 830 310 837 303 837 c 0
 294 837 283 823 270 793 c 2
 250 747 l 1
 267 728 l 1
 285 709 l 1
 311 709 l 2
 325 709 347 716 359 725 c 0
246 591 m 0
 194 609 159 641 139 686 c 2
 120 730 l 1
 131 782 l 2
 137 810 154 853 168 877 c 2
 193 921 l 1
 239 950 l 1
 285 979 l 1
 334 979 l 2
 442 979 512 942 525 878 c 2
 531 848 l 1
 517 820 l 1
 502 792 l 1
 508 770 l 1
 514 748 l 1
 497 705 l 2
 468 629 390 580 310 580 c 0
 288 580 267 584 246 591 c 0
EndSplineSet
EndChar

StartChar: ae
Encoding: 230 230 152
Width: 1015
VWidth: 737
Flags: HW
LayerCount: 2
Fore
SplineSet
155 15 m 0
 114 37 71 78 44 121 c 2
 22 156 l 1
 22 228 l 1
 22 300 l 1
 43 348 l 2
 86 442 209 527 319 538 c 2
 372 544 l 1
 441 519 l 1
 483 504 l 1
 507 525 536 544 567 560 c 2
 614 584 l 1
 721 584 l 1
 829 584 l 1
 865 562 l 2
 884 551 909 525 919 506 c 2
 938 471 l 1
 932 416 l 1
 927 361 l 1
 900 326 l 2
 848 258 790 234 626 216 c 2
 526 205 l 1
 549 170 l 1
 580 175 l 1
 600 157 l 1
 621 138 l 1
 621 111 l 1
 621 110 l 1
 652 93 l 1
 720 106 l 2
 757 113 816 133 851 149 c 0
 892 168 921 178 942 178 c 0
 959 178 970 172 981 160 c 0
 992 147 997 133 997 119 c 0
 997 107 993 94 984 81 c 0
 961 49 849 -3 760 -21 c 0
 713 -30 689 -35 667 -35 c 0
 646 -35 628 -30 597 -22 c 0
 569 -15 543 -3 520 13 c 0
 519 13 l 2
 488 7 l 1
 457 24 l 2
 440 33 419 51 410 65 c 2
 392 90 l 1
 351 54 l 2
 308 18 262 -1 219 -1 c 0
 196 -1 175 4 155 15 c 0
271 158 m 0
 309 190 376 321 378 368 c 2
 380 402 l 1
 350 406 l 2
 347 406 344 407 340 407 c 0
 296 407 237 379 197 338 c 2
 159 299 l 1
 153 248 l 1
 146 197 l 1
 174 164 l 2
 192 143 206 133 222 133 c 0
 236 133 251 141 271 158 c 0
732 366 m 0
 751 372 776 383 786 392 c 2
 804 409 l 1
 801 429 l 1
 798 450 l 1
 737 454 l 2
 732 454 727 454 721 454 c 0
 690 454 655 450 638 445 c 0
 598 433 527 375 527 353 c 2
 527 341 l 1
 611 347 l 2
 657 351 713 360 732 366 c 0
EndSplineSet
EndChar

StartChar: ccedilla
Encoding: 231 231 153
Width: 610
VWidth: 785
Flags: HW
LayerCount: 2
Fore
SplineSet
270 -309 m 2
 235 -297 l 1
 220 -270 l 1
 205 -243 l 1
 220 -216 l 1
 236 -188 l 1
 285 -187 l 2
 360 -185 370 -184 370 -174 c 0
 370 -159 335 -152 309 -162 c 2
 285 -170 l 1
 256 -162 l 2
 200 -146 187 -99 211 13 c 1
 204 14 197 15 191 17 c 2
 152 28 l 1
 106 73 l 2
 80 98 50 137 39 161 c 2
 20 205 l 1
 21 261 l 2
 22 335 35 370 93 450 c 2
 142 515 l 1
 198 543 l 1
 253 569 l 1
 314 575 l 1
 375 581 l 1
 447 559 l 1
 518 538 l 1
 550 501 l 1
 583 465 l 1
 583 429 l 1
 583 393 l 1
 557 368 l 2
 540 351 524 343 509 343 c 0
 487 343 468 360 450 393 c 2
 430 432 l 1
 391 438 l 2
 366 442 347 444 329 444 c 0
 302 444 281 439 259 429 c 2
 224 413 l 1
 188 357 l 1
 153 303 l 1
 153 264 l 1
 153 225 l 1
 171 197 l 2
 199 156 223 139 281 139 c 0
 309 139 345 143 392 150 c 0
 421 154 453 156 474 156 c 0
 484 156 491 156 495 155 c 2
 519 148 l 1
 526 127 l 2
 528 119 530 112 530 104 c 0
 530 79 518 55 498 44 c 0
 464 26 403 14 340 9 c 1
 333 -21 l 1
 374 -33 l 2
 433 -51 464 -77 489 -128 c 2
 511 -173 l 1
 500 -208 l 2
 485 -254 441 -289 377 -308 c 0
 317 -326 316 -326 270 -309 c 2
EndSplineSet
EndChar

StartChar: egrave
Encoding: 232 232 154
Width: 660
VWidth: 806
Flags: HW
LayerCount: 2
Fore
SplineSet
371 406 m 0
 390 412 415 423 425 432 c 2
 443 449 l 1
 440 469 l 1
 437 490 l 1
 376 494 l 2
 371 494 366 494 360 494 c 0
 329 494 294 490 277 485 c 0
 237 473 166 415 166 393 c 2
 166 381 l 1
 250 387 l 2
 296 391 352 400 371 406 c 0
236 18 m 0
 147 42 78 112 42 215 c 2
 21 275 l 1
 25 342 l 1
 29 409 l 1
 53 458 l 2
 82 514 136 565 206 600 c 2
 253 624 l 1
 360 624 l 1
 468 624 l 1
 504 602 l 2
 523 591 548 565 558 546 c 2
 577 511 l 1
 571 456 l 1
 566 401 l 1
 539 366 l 2
 487 298 429 274 265 256 c 2
 165 245 l 1
 188 209 l 2
 201 190 230 165 252 154 c 2
 291 133 l 1
 359 146 l 2
 396 153 455 173 490 189 c 0
 531 208 560 218 581 218 c 0
 598 218 609 212 620 200 c 0
 631 187 636 173 636 159 c 0
 636 147 632 134 623 121 c 0
 600 89 488 37 399 19 c 0
 352 10 328 5 306 5 c 0
 285 5 267 10 236 18 c 0
335 694 m 0
 251 710 182 735 152 762 c 2
 130 782 l 1
 130 809 l 2
 130 840 158 869 187 869 c 0
 198 869 227 861 251 850 c 0
 275 839 342 824 400 815 c 2
 505 799 l 1
 518 782 l 2
 525 773 530 753 530 738 c 2
 530 710 l 1
 508 695 l 1
 486 679 l 1
 445 680 l 2
 423 681 373 687 335 694 c 0
EndSplineSet
EndChar

StartChar: eacute
Encoding: 233 233 155
Width: 660
VWidth: 806
Flags: HW
LayerCount: 2
Fore
SplineSet
371 406 m 0
 390 412 415 423 425 432 c 2
 443 449 l 1
 440 469 l 1
 437 490 l 1
 376 494 l 2
 371 494 366 494 360 494 c 0
 329 494 294 490 277 485 c 0
 237 473 166 415 166 393 c 2
 166 381 l 1
 250 387 l 2
 296 391 352 400 371 406 c 0
236 18 m 0
 147 42 78 112 42 215 c 2
 21 275 l 1
 25 342 l 1
 29 409 l 1
 53 458 l 2
 82 514 136 565 206 600 c 2
 253 624 l 1
 360 624 l 1
 468 624 l 1
 504 602 l 2
 523 591 548 565 558 546 c 2
 577 511 l 1
 571 456 l 1
 566 401 l 1
 539 366 l 2
 487 298 429 274 265 256 c 2
 165 245 l 1
 188 209 l 2
 201 190 230 165 252 154 c 2
 291 133 l 1
 359 146 l 2
 396 153 455 173 490 189 c 0
 531 208 560 218 581 218 c 0
 598 218 609 212 620 200 c 0
 631 187 636 173 636 159 c 0
 636 147 632 134 623 121 c 0
 600 89 488 37 399 19 c 0
 352 10 328 5 306 5 c 0
 285 5 267 10 236 18 c 0
173 670 m 2
 161 675 146 691 140 706 c 2
 130 733 l 1
 148 757 l 1
 166 781 l 1
 290 835 l 1
 414 889 l 1
 446 889 l 1
 478 889 l 1
 494 871 l 2
 505 859 510 845 510 831 c 0
 510 819 506 807 498 796 c 0
 491 787 448 764 401 744 c 0
 354 724 305 702 291 695 c 0
 277 688 250 676 231 671 c 2
 196 662 l 1
 173 670 l 2
EndSplineSet
EndChar

StartChar: ecircumflex
Encoding: 234 234 156
Width: 660
VWidth: 806
Flags: HW
LayerCount: 2
Fore
SplineSet
371 406 m 0
 390 412 415 423 425 432 c 2
 443 449 l 1
 440 469 l 1
 437 490 l 1
 376 494 l 2
 371 494 366 494 360 494 c 0
 329 494 294 490 277 485 c 0
 237 473 166 415 166 393 c 2
 166 381 l 1
 250 387 l 2
 296 391 352 400 371 406 c 0
236 18 m 0
 147 42 78 112 42 215 c 2
 21 275 l 1
 25 342 l 1
 29 409 l 1
 53 458 l 2
 82 514 136 565 206 600 c 2
 253 624 l 1
 360 624 l 1
 468 624 l 1
 504 602 l 2
 523 591 548 565 558 546 c 2
 577 511 l 1
 571 456 l 1
 566 401 l 1
 539 366 l 2
 487 298 429 274 265 256 c 2
 165 245 l 1
 188 209 l 2
 201 190 230 165 252 154 c 2
 291 133 l 1
 359 146 l 2
 396 153 455 173 490 189 c 0
 531 208 560 218 581 218 c 0
 598 218 609 212 620 200 c 0
 631 187 636 173 636 159 c 0
 636 147 632 134 623 121 c 0
 600 89 488 37 399 19 c 0
 352 10 328 5 306 5 c 0
 285 5 267 10 236 18 c 0
164 637 m 0
 131 648 113 670 113 699 c 0
 113 717 120 737 133 758 c 0
 161 802 355 988 388 1000 c 2
 413 1009 l 1
 442 997 l 2
 458 991 481 971 493 954 c 0
 510 929 565 799 590 720 c 2
 595 704 l 1
 570 675 l 1
 546 647 l 1
 519 654 l 2
 478 664 455 695 430 774 c 2
 407 844 l 1
 390 835 l 2
 371 825 257 707 234 674 c 0
 219 651 193 636 173 636 c 0
 170 636 167 636 164 637 c 0
EndSplineSet
EndChar

StartChar: edieresis
Encoding: 235 235 157
Width: 660
VWidth: 806
Flags: HW
LayerCount: 2
Fore
SplineSet
371 406 m 0
 390 412 415 423 425 432 c 2
 443 449 l 1
 440 469 l 1
 437 490 l 1
 376 494 l 2
 371 494 366 494 360 494 c 0
 329 494 294 490 277 485 c 0
 237 473 166 415 166 393 c 2
 166 381 l 1
 250 387 l 2
 296 391 352 400 371 406 c 0
236 18 m 0
 147 42 78 112 42 215 c 2
 21 275 l 1
 25 342 l 1
 29 409 l 1
 53 458 l 2
 82 514 136 565 206 600 c 2
 253 624 l 1
 360 624 l 1
 468 624 l 1
 504 602 l 2
 523 591 548 565 558 546 c 2
 577 511 l 1
 571 456 l 1
 566 401 l 1
 539 366 l 2
 487 298 429 274 265 256 c 2
 165 245 l 1
 188 209 l 2
 201 190 230 165 252 154 c 2
 291 133 l 1
 359 146 l 2
 396 153 455 173 490 189 c 0
 531 208 560 218 581 218 c 0
 598 218 609 212 620 200 c 0
 631 187 636 173 636 159 c 0
 636 147 632 134 623 121 c 0
 600 89 488 37 399 19 c 0
 352 10 328 5 306 5 c 0
 285 5 267 10 236 18 c 0
185 666 m 0
 168 673 147 690 141 704 c 2
 130 730 l 1
 136 757 l 2
 140 772 155 796 168 809 c 2
 192 833 l 1
 227 833 l 1
 262 833 l 1
 283 810 l 2
 297 795 305 780 305 763 c 0
 305 746 297 726 281 701 c 0
 262 670 245 657 223 657 c 0
 212 657 200 660 185 666 c 0
396 659 m 0
 368 669 341 707 341 736 c 0
 341 748 353 773 367 790 c 2
 394 822 l 1
 428 822 l 1
 462 822 l 1
 478 799 l 2
 487 787 494 760 494 740 c 2
 494 702 l 1
 472 682 l 2
 451 663 435 654 419 654 c 0
 412 654 404 656 396 659 c 0
EndSplineSet
EndChar

StartChar: igrave
Encoding: 236 236 158
Width: 444
VWidth: 846
Flags: HW
LayerCount: 2
Fore
SplineSet
106 24 m 0
 68 42 48 69 31 126 c 2
 19 167 l 1
 30 242 l 2
 42 321 92 444 120 466 c 0
 131 474 143 478 155 478 c 0
 186 478 215 452 215 415 c 0
 215 401 204 362 190 327 c 0
 176 292 162 240 158 209 c 2
 152 154 l 1
 164 145 l 2
 169 142 176 140 184 140 c 0
 212 140 253 159 291 191 c 2
 340 232 l 1
 364 232 l 2
 395 232 420 202 420 165 c 2
 420 134 l 1
 382 97 l 2
 360 77 320 48 290 34 c 2
 237 7 l 1
 187 7 l 2
 160 7 124 15 106 24 c 0
175 504 m 0
 91 520 22 545 -8 572 c 2
 -30 592 l 1
 -30 619 l 2
 -30 650 -2 679 27 679 c 0
 38 679 67 671 91 660 c 0
 115 649 182 634 240 625 c 2
 345 609 l 1
 358 592 l 2
 365 583 370 563 370 548 c 2
 370 520 l 1
 348 505 l 1
 326 489 l 1
 285 490 l 2
 263 491 213 497 175 504 c 0
EndSplineSet
EndChar

StartChar: iacute
Encoding: 237 237 159
Width: 444
VWidth: 846
Flags: HW
LayerCount: 2
Fore
SplineSet
106 24 m 0
 68 42 48 69 31 126 c 2
 19 167 l 1
 30 242 l 2
 42 321 92 444 120 466 c 0
 131 474 143 478 155 478 c 0
 186 478 215 452 215 415 c 0
 215 401 204 362 190 327 c 0
 176 292 162 240 158 209 c 2
 152 154 l 1
 164 145 l 2
 169 142 176 140 184 140 c 0
 212 140 253 159 291 191 c 2
 340 232 l 1
 364 232 l 2
 395 232 420 202 420 165 c 2
 420 134 l 1
 382 97 l 2
 360 77 320 48 290 34 c 2
 237 7 l 1
 187 7 l 2
 160 7 124 15 106 24 c 0
23 530 m 2
 11 535 -4 551 -10 566 c 2
 -20 593 l 1
 -2 617 l 1
 16 641 l 1
 140 695 l 1
 264 749 l 1
 296 749 l 1
 328 749 l 1
 344 731 l 2
 355 719 360 705 360 691 c 0
 360 679 356 667 348 656 c 0
 341 647 298 624 251 604 c 0
 204 584 155 562 141 555 c 0
 127 548 100 536 81 531 c 2
 46 522 l 1
 23 530 l 2
EndSplineSet
EndChar

StartChar: icircumflex
Encoding: 238 238 160
Width: 444
VWidth: 846
Flags: HW
LayerCount: 2
Fore
SplineSet
106 24 m 0
 68 42 48 69 31 126 c 2
 19 167 l 1
 30 242 l 2
 42 321 92 444 120 466 c 0
 131 474 143 478 155 478 c 0
 186 478 215 452 215 415 c 0
 215 401 204 362 190 327 c 0
 176 292 162 240 158 209 c 2
 152 154 l 1
 164 145 l 2
 169 142 176 140 184 140 c 0
 212 140 253 159 291 191 c 2
 340 232 l 1
 364 232 l 2
 395 232 420 202 420 165 c 2
 420 134 l 1
 382 97 l 2
 360 77 320 48 290 34 c 2
 237 7 l 1
 187 7 l 2
 160 7 124 15 106 24 c 0
-16 507 m 0
 -49 518 -67 540 -67 569 c 0
 -67 587 -60 607 -47 628 c 0
 -19 672 175 858 208 870 c 2
 233 879 l 1
 262 867 l 2
 278 861 301 841 313 824 c 0
 330 799 385 669 410 590 c 2
 415 574 l 1
 390 545 l 1
 366 517 l 1
 339 524 l 2
 298 534 275 565 250 644 c 2
 227 714 l 1
 210 705 l 2
 191 695 77 577 54 544 c 0
 39 521 13 506 -7 506 c 0
 -10 506 -13 506 -16 507 c 0
EndSplineSet
EndChar

StartChar: idieresis
Encoding: 239 239 161
Width: 444
VWidth: 846
Flags: HW
LayerCount: 2
Fore
SplineSet
106 24 m 0
 68 42 48 69 31 126 c 2
 19 167 l 1
 30 242 l 2
 42 321 92 444 120 466 c 0
 131 474 143 478 155 478 c 0
 186 478 215 452 215 415 c 0
 215 401 204 362 190 327 c 0
 176 292 162 240 158 209 c 2
 152 154 l 1
 164 145 l 2
 169 142 176 140 184 140 c 0
 212 140 253 159 291 191 c 2
 340 232 l 1
 364 232 l 2
 395 232 420 202 420 165 c 2
 420 134 l 1
 382 97 l 2
 360 77 320 48 290 34 c 2
 237 7 l 1
 187 7 l 2
 160 7 124 15 106 24 c 0
35 536 m 4
 18 543 -3 560 -9 574 c 6
 -20 600 l 5
 -14 627 l 6
 -10 642 5 666 18 679 c 6
 42 703 l 5
 77 703 l 5
 112 703 l 5
 133 680 l 6
 147 665 155 650 155 633 c 4
 155 616 147 596 131 571 c 4
 112 540 95 527 73 527 c 4
 62 527 50 530 35 536 c 4
246 529 m 4
 218 539 191 577 191 606 c 4
 191 618 203 643 217 660 c 6
 244 692 l 5
 278 692 l 5
 312 692 l 5
 328 669 l 6
 337 657 344 630 344 610 c 6
 344 572 l 5
 322 552 l 6
 301 533 285 524 269 524 c 4
 262 524 254 526 246 529 c 4
EndSplineSet
EndChar

StartChar: ntilde
Encoding: 241 241 162
Width: 521
VWidth: 789
Flags: HW
LayerCount: 2
Fore
SplineSet
52 22 m 0
 41 33 30 60 26 80 c 0
 24 91 23 114 23 145 c 0
 23 224 29 355 39 469 c 2
 47 552 l 1
 60 568 l 1
 75 586 l 1
 109 586 l 1
 142 586 l 1
 159 562 l 1
 175 540 l 1
 175 495 l 1
 175 450 l 1
 193 458 l 2
 252 483 287 493 319 493 c 2
 354 494 l 1
 400 470 l 1
 447 447 l 1
 471 399 l 1
 496 352 l 1
 479 249 l 2
 470 193 455 130 447 110 c 2
 432 73 l 1
 409 65 l 1
 385 55 l 1
 356 70 l 2
 336 80 326 91 326 121 c 0
 326 146 332 183 345 245 c 2
 363 329 l 1
 349 344 l 2
 342 352 327 360 316 360 c 0
 282 360 219 322 186 282 c 2
 155 243 l 1
 155 138 l 1
 155 34 l 1
 131 17 l 2
 117 7 104 2 92 2 c 0
 78 2 65 9 52 22 c 0
288 597 m 0
 277 603 245 633 216 664 c 2
 165 720 l 1
 98 697 l 2
 62 685 19 663 3 650 c 0
 -16 634 -32 627 -47 627 c 0
 -61 627 -73 633 -86 646 c 0
 -100 660 -106 674 -106 690 c 0
 -106 728 -68 769 0 800 c 0
 34 815 86 833 115 839 c 2
 167 850 l 1
 203 840 l 1
 239 831 l 1
 292 774 l 1
 345 718 l 1
 373 724 l 2
 420 735 523 784 579 823 c 0
 615 847 634 859 649 859 c 0
 662 859 672 851 687 836 c 0
 703 820 711 808 711 795 c 0
 711 778 697 760 667 732 c 2
 622 688 l 1
 543 650 l 2
 455 608 385 587 336 587 c 0
 316 587 301 590 288 597 c 0
EndSplineSet
EndChar

StartChar: ograve
Encoding: 242 242 163
Width: 638
VWidth: 796
Flags: HW
LayerCount: 2
Fore
SplineSet
366 152 m 2
 412 175 l 1
 447 243 l 1
 481 311 l 1
 474 347 l 1
 467 383 l 1
 444 390 l 2
 432 394 407 409 391 421 c 0
 362 443 341 452 316 452 c 0
 303 452 289 449 273 445 c 2
 230 434 l 1
 194 400 l 1
 156 366 l 1
 158 297 l 2
 159 259 164 216 171 200 c 2
 183 171 l 1
 226 150 l 2
 253 137 273 130 294 130 c 0
 316 130 337 137 366 152 c 2
213 11 m 2
 101 52 48 114 28 230 c 0
 23 256 21 279 21 301 c 0
 21 346 31 385 55 434 c 2
 82 489 l 1
 140 527 l 1
 199 565 l 1
 257 579 l 1
 314 593 l 1
 377 575 l 2
 450 555 538 502 567 460 c 0
 578 444 594 413 601 391 c 2
 613 351 l 1
 607 312 l 2
 597 244 560 162 520 111 c 2
 482 62 l 1
 430 34 l 1
 378 5 l 1
 319 0 l 1
 258 -5 l 1
 213 11 l 2
335 614 m 0
 251 630 182 655 152 682 c 2
 130 702 l 1
 130 729 l 2
 130 760 158 789 187 789 c 0
 198 789 227 781 251 770 c 0
 275 759 342 744 400 735 c 2
 505 719 l 1
 518 702 l 2
 525 693 530 673 530 658 c 2
 530 630 l 1
 508 615 l 1
 486 599 l 1
 445 600 l 2
 423 601 373 607 335 614 c 0
EndSplineSet
EndChar

StartChar: oacute
Encoding: 243 243 164
Width: 638
VWidth: 796
Flags: HW
LayerCount: 2
Fore
SplineSet
366 152 m 2
 412 175 l 1
 447 243 l 1
 481 311 l 1
 474 347 l 1
 467 383 l 1
 444 390 l 2
 432 394 407 409 391 421 c 0
 362 443 341 452 316 452 c 0
 303 452 289 449 273 445 c 2
 230 434 l 1
 194 400 l 1
 156 366 l 1
 158 297 l 2
 159 259 164 216 171 200 c 2
 183 171 l 1
 226 150 l 2
 253 137 273 130 294 130 c 0
 316 130 337 137 366 152 c 2
213 11 m 2
 101 52 48 114 28 230 c 0
 23 256 21 279 21 301 c 0
 21 346 31 385 55 434 c 2
 82 489 l 1
 140 527 l 1
 199 565 l 1
 257 579 l 1
 314 593 l 1
 377 575 l 2
 450 555 538 502 567 460 c 0
 578 444 594 413 601 391 c 2
 613 351 l 1
 607 312 l 2
 597 244 560 162 520 111 c 2
 482 62 l 1
 430 34 l 1
 378 5 l 1
 319 0 l 1
 258 -5 l 1
 213 11 l 2
173 630 m 2
 161 635 146 651 140 666 c 2
 130 693 l 1
 148 717 l 1
 166 741 l 1
 290 795 l 1
 414 849 l 1
 446 849 l 1
 478 849 l 1
 494 831 l 2
 505 819 510 805 510 791 c 0
 510 779 506 767 498 756 c 0
 491 747 448 724 401 704 c 0
 354 684 305 662 291 655 c 0
 277 648 250 636 231 631 c 2
 196 622 l 1
 173 630 l 2
EndSplineSet
EndChar

StartChar: ocircumflex
Encoding: 244 244 165
Width: 638
VWidth: 796
Flags: HW
LayerCount: 2
Fore
SplineSet
366 152 m 2
 412 175 l 1
 447 243 l 1
 481 311 l 1
 474 347 l 1
 467 383 l 1
 444 390 l 2
 432 394 407 409 391 421 c 0
 362 443 341 452 316 452 c 0
 303 452 289 449 273 445 c 2
 230 434 l 1
 194 400 l 1
 156 366 l 1
 158 297 l 2
 159 259 164 216 171 200 c 2
 183 171 l 1
 226 150 l 2
 253 137 273 130 294 130 c 0
 316 130 337 137 366 152 c 2
213 11 m 2
 101 52 48 114 28 230 c 0
 23 256 21 279 21 301 c 0
 21 346 31 385 55 434 c 2
 82 489 l 1
 140 527 l 1
 199 565 l 1
 257 579 l 1
 314 593 l 1
 377 575 l 2
 450 555 538 502 567 460 c 0
 578 444 594 413 601 391 c 2
 613 351 l 1
 607 312 l 2
 597 244 560 162 520 111 c 2
 482 62 l 1
 430 34 l 1
 378 5 l 1
 319 0 l 1
 258 -5 l 1
 213 11 l 2
164 637 m 0
 131 648 113 670 113 699 c 0
 113 717 120 737 133 758 c 0
 161 802 355 988 388 1000 c 2
 413 1009 l 1
 442 997 l 2
 458 991 481 971 493 954 c 0
 510 929 565 799 590 720 c 2
 595 704 l 1
 570 675 l 1
 546 647 l 1
 519 654 l 2
 478 664 455 695 430 774 c 2
 407 844 l 1
 390 835 l 2
 371 825 257 707 234 674 c 0
 219 651 193 636 173 636 c 0
 170 636 167 636 164 637 c 0
EndSplineSet
EndChar

StartChar: otilde
Encoding: 245 245 166
Width: 638
VWidth: 796
Flags: HW
LayerCount: 2
Fore
SplineSet
366 152 m 2
 412 175 l 1
 447 243 l 1
 481 311 l 1
 474 347 l 1
 467 383 l 1
 444 390 l 2
 432 394 407 409 391 421 c 0
 362 443 341 452 316 452 c 0
 303 452 289 449 273 445 c 2
 230 434 l 1
 194 400 l 1
 156 366 l 1
 158 297 l 2
 159 259 164 216 171 200 c 2
 183 171 l 1
 226 150 l 2
 253 137 273 130 294 130 c 0
 316 130 337 137 366 152 c 2
213 11 m 2
 101 52 48 114 28 230 c 0
 23 256 21 279 21 301 c 0
 21 346 31 385 55 434 c 2
 82 489 l 1
 140 527 l 1
 199 565 l 1
 257 579 l 1
 314 593 l 1
 377 575 l 2
 450 555 538 502 567 460 c 0
 578 444 594 413 601 391 c 2
 613 351 l 1
 607 312 l 2
 597 244 560 162 520 111 c 2
 482 62 l 1
 430 34 l 1
 378 5 l 1
 319 0 l 1
 258 -5 l 1
 213 11 l 2
338 617 m 0
 327 623 295 653 266 684 c 2
 215 740 l 1
 148 717 l 2
 112 705 69 683 53 670 c 0
 34 654 18 647 3 647 c 0
 -11 647 -23 653 -36 666 c 0
 -50 680 -56 694 -56 710 c 0
 -56 748 -18 789 50 820 c 0
 84 835 136 853 165 859 c 2
 217 870 l 1
 253 860 l 1
 289 851 l 1
 342 794 l 1
 395 738 l 1
 423 744 l 2
 470 755 573 804 629 843 c 0
 665 867 684 879 699 879 c 0
 712 879 722 871 737 856 c 0
 753 840 761 828 761 815 c 0
 761 798 747 780 717 752 c 2
 672 708 l 1
 593 670 l 2
 505 628 435 607 386 607 c 0
 366 607 351 610 338 617 c 0
EndSplineSet
EndChar

StartChar: odieresis
Encoding: 246 246 167
Width: 638
VWidth: 796
Flags: HW
LayerCount: 2
Fore
SplineSet
366 152 m 2
 412 175 l 1
 447 243 l 1
 481 311 l 1
 474 347 l 1
 467 383 l 1
 444 390 l 2
 432 394 407 409 391 421 c 0
 362 443 341 452 316 452 c 0
 303 452 289 449 273 445 c 2
 230 434 l 1
 194 400 l 1
 156 366 l 1
 158 297 l 2
 159 259 164 216 171 200 c 2
 183 171 l 1
 226 150 l 2
 253 137 273 130 294 130 c 0
 316 130 337 137 366 152 c 2
213 11 m 2
 101 52 48 114 28 230 c 0
 23 256 21 279 21 301 c 0
 21 346 31 385 55 434 c 2
 82 489 l 1
 140 527 l 1
 199 565 l 1
 257 579 l 1
 314 593 l 1
 377 575 l 2
 450 555 538 502 567 460 c 0
 578 444 594 413 601 391 c 2
 613 351 l 1
 607 312 l 2
 597 244 560 162 520 111 c 2
 482 62 l 1
 430 34 l 1
 378 5 l 1
 319 0 l 1
 258 -5 l 1
 213 11 l 2
185 616 m 0
 168 623 147 640 141 654 c 2
 130 680 l 1
 136 707 l 2
 140 722 155 746 168 759 c 2
 192 783 l 1
 227 783 l 1
 262 783 l 1
 283 760 l 2
 297 745 305 730 305 713 c 0
 305 696 297 676 281 651 c 0
 262 620 245 607 223 607 c 0
 212 607 200 610 185 616 c 0
396 609 m 0
 368 619 341 657 341 686 c 0
 341 698 353 723 367 740 c 2
 394 772 l 1
 428 772 l 1
 462 772 l 1
 478 749 l 2
 487 737 494 710 494 690 c 2
 494 652 l 1
 472 632 l 2
 451 613 435 604 419 604 c 0
 412 604 404 606 396 609 c 0
EndSplineSet
EndChar

StartChar: divide
Encoding: 247 247 168
Width: 671
Flags: HW
LayerCount: 2
Fore
SplineSet
238 204 m 1
 207 231 l 1
 207 261 l 1
 207 290 l 1
 227 311 l 1
 248 331 l 1
 292 331 l 1
 337 331 l 1
 353 313 l 2
 362 303 371 282 371 268 c 2
 371 242 l 1
 348 221 l 2
 336 209 312 195 297 189 c 2
 269 179 l 1
 238 204 l 1
44 381 m 2
 30 395 23 408 23 422 c 0
 23 435 29 450 42 466 c 2
 62 492 l 1
 148 504 l 1
 236 516 l 1
 423 509 l 1
 609 502 l 1
 629 483 l 2
 639 473 647 453 647 440 c 2
 647 414 l 1
 618 393 l 1
 591 370 l 1
 391 374 l 2
 367 374 343 375 320 375 c 0
 234 375 157 372 129 368 c 2
 66 360 l 1
 44 381 l 2
279 533 m 0
 248 545 227 575 227 604 c 0
 227 615 230 625 236 634 c 0
 248 652 285 669 314 669 c 2
 341 669 l 1
 366 644 l 1
 391 619 l 1
 391 593 l 1
 391 568 l 1
 365 547 l 2
 347 534 329 527 310 527 c 0
 300 527 290 529 279 533 c 0
EndSplineSet
EndChar

StartChar: oslash
Encoding: 248 248 169
Width: 732
Flags: HW
LayerCount: 2
Fore
SplineSet
279 306 m 0
 290 324 312 353 327 370 c 0
 345 390 354 402 354 408 c 0
 354 411 352 412 348 412 c 0
 345 412 340 412 335 410 c 0
 313 404 276 372 266 352 c 0
 259 338 250 296 250 279 c 0
 250 275 251 272 252 272 c 0
 255 272 268 288 279 306 c 0
385 171 m 0
 396 176 407 178 414 178 c 0
 417 178 420 178 421 177 c 0
 425 174 425 176 422 182 c 0
 419 188 420 195 425 198 c 0
 447 211 469 275 469 309 c 0
 469 320 467 327 462 330 c 0
 461 330 l 0
 456 330 437 311 420 285 c 0
 402 258 371 221 356 203 c 0
 341 186 334 173 334 166 c 0
 334 161 337 159 344 159 c 0
 352 159 366 163 385 171 c 0
67 -122 m 2
 58 -117 42 -105 34 -96 c 2
 18 -80 l 1
 31 -45 l 2
 36 -28 43 -15 47 -15 c 0
 48 -15 l 0
 51 -18 54 -17 54 -12 c 0
 54 -7 65 9 77 23 c 0
 112 62 116 69 116 77 c 0
 116 81 126 99 138 117 c 2
 161 150 l 1
 142 184 l 1
 125 219 l 1
 125 276 l 2
 125 443 228 542 399 542 c 0
 405 542 411 542 417 542 c 2
 466 540 l 1
 490 561 l 2
 503 572 511 582 508 582 c 0
 505 582 523 603 549 630 c 0
 574 656 596 677 600 677 c 0
 608 677 613 677 627 682 c 2
 647 689 l 1
 673 665 l 2
 686 653 694 641 694 637 c 0
 694 626 694 626 699 620 c 2
 710 608 l 1
 668 562 l 2
 644 536 609 500 591 482 c 0
 573 464 557 444 557 438 c 0
 557 432 567 413 577 396 c 2
 595 366 l 1
 596 299 l 1
 596 234 l 1
 577 189 l 1
 556 145 l 1
 519 112 l 2
 459 58 454 53 420 39 c 0
 400 31 378 27 357 27 c 0
 332 27 307 32 285 43 c 2
 252 60 l 1
 202 -10 l 2
 174 -49 152 -86 152 -93 c 0
 152 -107 143 -115 109 -124 c 2
 84 -131 l 1
 67 -122 l 2
EndSplineSet
EndChar

StartChar: ugrave
Encoding: 249 249 170
Width: 526
VWidth: 783
Flags: HW
LayerCount: 2
Fore
SplineSet
383 -104 m 0
 347 -89 323 -52 312 6 c 2
 305 44 l 1
 275 28 l 2
 252 16 229 11 206 11 c 0
 141 11 78 56 42 136 c 2
 22 182 l 1
 22 269 l 1
 22 356 l 1
 40 408 l 1
 57 459 l 1
 83 473 l 1
 110 487 l 1
 137 480 l 1
 165 474 l 1
 175 447 l 1
 184 422 l 1
 170 385 l 1
 155 349 l 1
 155 270 l 1
 155 193 l 1
 171 169 l 1
 187 145 l 1
 209 148 l 1
 231 152 l 1
 258 208 l 2
 285 262 314 348 338 441 c 2
 349 484 l 1
 375 501 l 1
 399 517 l 1
 426 511 l 1
 452 505 l 1
 468 470 l 1
 484 435 l 1
 467 314 l 2
 458 247 447 153 444 105 c 2
 439 18 l 1
 471 1 l 1
 503 -16 l 1
 503 -47 l 1
 503 -77 l 1
 475 -98 l 2
 458 -111 446 -118 431 -118 c 0
 418 -118 404 -113 383 -104 c 0
245 564 m 0
 161 580 92 605 62 632 c 2
 40 652 l 1
 40 679 l 2
 40 710 68 739 97 739 c 0
 108 739 137 731 161 720 c 0
 185 709 252 694 310 685 c 2
 415 669 l 1
 428 652 l 2
 435 643 440 623 440 608 c 2
 440 580 l 1
 418 565 l 1
 396 549 l 1
 355 550 l 2
 333 551 283 557 245 564 c 0
EndSplineSet
EndChar

StartChar: uacute
Encoding: 250 250 171
Width: 526
VWidth: 783
Flags: HW
LayerCount: 2
Fore
SplineSet
383 -104 m 0
 347 -89 323 -52 312 6 c 2
 305 44 l 1
 275 28 l 2
 252 16 229 11 206 11 c 0
 141 11 78 56 42 136 c 2
 22 182 l 1
 22 269 l 1
 22 356 l 1
 40 408 l 1
 57 459 l 1
 83 473 l 1
 110 487 l 1
 137 480 l 1
 165 474 l 1
 175 447 l 1
 184 422 l 1
 170 385 l 1
 155 349 l 1
 155 270 l 1
 155 193 l 1
 171 169 l 1
 187 145 l 1
 209 148 l 1
 231 152 l 1
 258 208 l 2
 285 262 314 348 338 441 c 2
 349 484 l 1
 375 501 l 1
 399 517 l 1
 426 511 l 1
 452 505 l 1
 468 470 l 1
 484 435 l 1
 467 314 l 2
 458 247 447 153 444 105 c 2
 439 18 l 1
 471 1 l 1
 503 -16 l 1
 503 -47 l 1
 503 -77 l 1
 475 -98 l 2
 458 -111 446 -118 431 -118 c 0
 418 -118 404 -113 383 -104 c 0
113 530 m 2
 101 535 86 551 80 566 c 2
 70 593 l 1
 88 617 l 1
 106 641 l 1
 230 695 l 1
 354 749 l 1
 386 749 l 1
 418 749 l 1
 434 731 l 2
 445 719 450 705 450 691 c 0
 450 679 446 667 438 656 c 0
 431 647 388 624 341 604 c 0
 294 584 245 562 231 555 c 0
 217 548 190 536 171 531 c 2
 136 522 l 1
 113 530 l 2
EndSplineSet
EndChar

StartChar: ucircumflex
Encoding: 251 251 172
Width: 526
VWidth: 783
Flags: HW
LayerCount: 2
Fore
SplineSet
383 -104 m 0
 347 -89 323 -52 312 6 c 2
 305 44 l 1
 275 28 l 2
 252 16 229 11 206 11 c 0
 141 11 78 56 42 136 c 2
 22 182 l 1
 22 269 l 1
 22 356 l 1
 40 408 l 1
 57 459 l 1
 83 473 l 1
 110 487 l 1
 137 480 l 1
 165 474 l 1
 175 447 l 1
 184 422 l 1
 170 385 l 1
 155 349 l 1
 155 270 l 1
 155 193 l 1
 171 169 l 1
 187 145 l 1
 209 148 l 1
 231 152 l 1
 258 208 l 2
 285 262 314 348 338 441 c 2
 349 484 l 1
 375 501 l 1
 399 517 l 1
 426 511 l 1
 452 505 l 1
 468 470 l 1
 484 435 l 1
 467 314 l 2
 458 247 447 153 444 105 c 2
 439 18 l 1
 471 1 l 1
 503 -16 l 1
 503 -47 l 1
 503 -77 l 1
 475 -98 l 2
 458 -111 446 -118 431 -118 c 0
 418 -118 404 -113 383 -104 c 0
94 597 m 0
 61 608 43 630 43 659 c 0
 43 677 50 697 63 718 c 0
 91 762 285 948 318 960 c 2
 343 969 l 1
 372 957 l 2
 388 951 411 931 423 914 c 0
 440 889 495 759 520 680 c 2
 525 664 l 1
 500 635 l 1
 476 607 l 1
 449 614 l 2
 408 624 385 655 360 734 c 2
 337 804 l 1
 320 795 l 2
 301 785 187 667 164 634 c 0
 149 611 123 596 103 596 c 0
 100 596 97 596 94 597 c 0
EndSplineSet
EndChar

StartChar: udieresis
Encoding: 252 252 173
Width: 526
VWidth: 783
Flags: HW
LayerCount: 2
Fore
SplineSet
383 -104 m 0
 347 -89 323 -52 312 6 c 2
 305 44 l 1
 275 28 l 2
 252 16 229 11 206 11 c 0
 141 11 78 56 42 136 c 2
 22 182 l 1
 22 269 l 1
 22 356 l 1
 40 408 l 1
 57 459 l 1
 83 473 l 1
 110 487 l 1
 137 480 l 1
 165 474 l 1
 175 447 l 1
 184 422 l 1
 170 385 l 1
 155 349 l 1
 155 270 l 1
 155 193 l 1
 171 169 l 1
 187 145 l 1
 209 148 l 1
 231 152 l 1
 258 208 l 2
 285 262 314 348 338 441 c 2
 349 484 l 1
 375 501 l 1
 399 517 l 1
 426 511 l 1
 452 505 l 1
 468 470 l 1
 484 435 l 1
 467 314 l 2
 458 247 447 153 444 105 c 2
 439 18 l 1
 471 1 l 1
 503 -16 l 1
 503 -47 l 1
 503 -77 l 1
 475 -98 l 2
 458 -111 446 -118 431 -118 c 0
 418 -118 404 -113 383 -104 c 0
125 556 m 0
 108 563 87 580 81 594 c 2
 70 620 l 1
 76 647 l 2
 80 662 95 686 108 699 c 2
 132 723 l 1
 167 723 l 1
 202 723 l 1
 223 700 l 2
 237 685 245 670 245 653 c 0
 245 636 237 616 221 591 c 0
 202 560 185 547 163 547 c 0
 152 547 140 550 125 556 c 0
336 549 m 0
 308 559 281 597 281 626 c 0
 281 638 293 663 307 680 c 2
 334 712 l 1
 368 712 l 1
 402 712 l 1
 418 689 l 2
 427 677 434 650 434 630 c 2
 434 592 l 1
 412 572 l 2
 391 553 375 544 359 544 c 0
 352 544 344 546 336 549 c 0
EndSplineSet
EndChar

StartChar: yacute
Encoding: 253 253 174
Width: 511
VWidth: 922
Flags: HW
LayerCount: 2
Fore
SplineSet
185 -381 m 0
 174 -370 165 -352 165 -344 c 0
 165 -317 195 -175 218 -92 c 2
 240 -14 l 1
 129 198 l 2
 69 315 20 421 20 434 c 0
 20 447 25 466 32 474 c 2
 45 489 l 1
 78 489 l 1
 111 489 l 1
 130 469 l 2
 140 458 177 393 212 324 c 2
 277 199 l 1
 287 240 l 2
 293 263 303 303 310 331 c 0
 317 359 330 401 339 427 c 2
 355 472 l 1
 383 494 l 1
 411 514 l 1
 436 502 l 2
 450 496 468 478 474 464 c 2
 486 438 l 1
 453 292 l 2
 435 212 395 55 365 -58 c 0
 335 -171 308 -282 304 -306 c 0
 300 -330 288 -361 277 -375 c 2
 256 -401 l 1
 231 -401 l 2
 218 -401 196 -392 185 -381 c 0
93 530 m 2
 81 535 66 551 60 566 c 2
 50 593 l 1
 68 617 l 1
 86 641 l 1
 210 695 l 1
 334 749 l 1
 366 749 l 1
 398 749 l 1
 414 731 l 2
 425 719 430 705 430 691 c 0
 430 679 426 667 418 656 c 0
 411 647 368 624 321 604 c 0
 274 584 225 562 211 555 c 0
 197 548 170 536 151 531 c 2
 116 522 l 1
 93 530 l 2
EndSplineSet
EndChar

StartChar: thorn
Encoding: 254 254 175
Width: 609
Flags: HW
LayerCount: 2
Fore
SplineSet
350 249 m 2
 410 301 449 387 452 472 c 0
 452 476 452 480 452 484 c 0
 452 533 439 560 406 581 c 2
 376 599 l 1
 327 587 l 2
 300 581 267 570 255 562 c 2
 233 546 l 1
 214 501 l 1
 196 455 l 1
 197 403 l 2
 197 374 192 346 187 341 c 0
 182 336 178 315 178 295 c 2
 178 258 l 1
 194 253 l 2
 202 250 225 242 244 235 c 0
 263 228 289 222 299 222 c 2
 319 222 l 1
 350 249 l 2
94 -106 m 2
 84 -89 74 15 68 159 c 0
 65 230 58 309 54 336 c 0
 47 382 32 543 24 660 c 2
 20 715 l 1
 28 715 l 2
 33 715 37 717 36 721 c 0
 35 725 35 736 36 744 c 2
 37 759 l 1
 81 759 l 1
 125 759 l 1
 125 750 l 2
 125 745 129 743 133 746 c 0
 134 747 136 747 137 747 c 0
 144 747 147 733 147 705 c 0
 147 699 147 693 147 686 c 0
 147 682 147 678 147 674 c 0
 147 656 149 641 152 639 c 0
 153 639 153 638 154 638 c 0
 160 638 176 647 190 657 c 0
 206 669 224 679 229 679 c 0
 234 679 240 684 240 688 c 0
 240 697 319 722 343 722 c 0
 345 722 347 721 348 721 c 0
 354 719 365 720 373 724 c 2
 387 732 l 1
 439 707 l 2
 478 688 522 656 522 647 c 0
 522 646 521 645 518 645 c 0
 515 645 523 636 535 625 c 2
 558 605 l 1
 570 563 l 1
 583 521 l 1
 580 450 l 2
 578 411 570 366 565 349 c 0
 552 306 515 243 505 243 c 0
 504 243 l 0
 500 245 498 240 499 232 c 0
 500 224 495 218 490 219 c 0
 485 220 480 213 481 205 c 2
 482 190 l 1
 469 193 l 2
 462 195 459 194 463 190 c 0
 464 189 464 189 464 188 c 0
 464 175 416 124 401 124 c 0
 395 124 389 120 389 114 c 0
 389 108 387 106 384 109 c 0
 381 112 373 111 367 106 c 0
 361 101 335 95 308 92 c 2
 260 86 l 1
 233 101 l 2
 218 109 204 115 202 115 c 0
 201 115 200 108 200 96 c 0
 200 63 205 -4 209 -23 c 0
 210 -26 210 -29 210 -32 c 0
 210 -55 196 -89 183 -98 c 0
 177 -102 159 -105 144 -105 c 2
 116 -105 l 1
 116 -94 l 2
 116 -88 113 -91 109 -100 c 2
 101 -117 l 1
 94 -106 l 2
EndSplineSet
EndChar

StartChar: ydieresis
Encoding: 255 255 176
Width: 511
VWidth: 922
Flags: HWO
LayerCount: 2
Fore
SplineSet
125 536 m 4
 108 543 87 560 81 574 c 6
 70 600 l 5
 76 627 l 6
 80 642 95 666 108 679 c 6
 132 703 l 5
 167 703 l 5
 202 703 l 5
 223 680 l 6
 237 665 245 650 245 633 c 4
 245 616 237 596 221 571 c 4
 202 540 185 527 163 527 c 4
 152 527 140 530 125 536 c 4
336 529 m 4
 308 539 281 577 281 606 c 4
 281 618 293 643 307 660 c 6
 334 692 l 5
 368 692 l 5
 402 692 l 5
 418 669 l 6
 427 657 434 630 434 610 c 6
 434 572 l 5
 412 552 l 6
 391 533 375 524 359 524 c 4
 352 524 344 526 336 529 c 4
185 -381 m 0
 174 -370 165 -352 165 -344 c 0
 165 -317 195 -175 218 -92 c 2
 240 -14 l 1
 129 198 l 2
 69 315 20 421 20 434 c 0
 20 447 25 466 32 474 c 2
 45 489 l 1
 78 489 l 1
 111 489 l 1
 130 469 l 2
 140 458 177 393 212 324 c 2
 277 199 l 1
 287 240 l 2
 293 263 303 303 310 331 c 0
 317 359 330 401 339 427 c 2
 355 472 l 1
 383 494 l 1
 411 514 l 1
 436 502 l 2
 450 496 468 478 474 464 c 2
 486 438 l 1
 453 292 l 2
 435 212 395 55 365 -58 c 0
 335 -171 308 -282 304 -306 c 0
 300 -330 288 -361 277 -375 c 2
 256 -401 l 1
 231 -401 l 2
 218 -401 196 -392 185 -381 c 0
EndSplineSet
EndChar

StartChar: eth
Encoding: 240 240 177
Width: 865
Flags: HW
LayerCount: 2
Fore
SplineSet
342 163 m 2
 403 203 431 231 469 298 c 2
 489 333 l 1
 475 340 l 2
 467 344 456 359 452 371 c 2
 443 392 l 1
 457 418 l 1
 471 445 l 1
 441 462 l 1
 413 480 l 1
 341 477 l 1
 269 475 l 1
 235 448 l 2
 169 396 135 321 135 234 c 2
 135 188 l 1
 149 162 l 2
 156 148 169 132 177 127 c 2
 193 117 l 1
 237 120 l 1
 281 123 l 1
 342 163 l 2
159 11 m 0
 120 23 76 62 50 106 c 2
 27 146 l 1
 23 209 l 1
 19 273 l 1
 33 329 l 2
 63 445 121 519 214 565 c 2
 263 590 l 1
 351 590 l 1
 440 590 l 1
 486 565 l 1
 532 542 l 1
 532 616 l 2
 532 697 517 779 502 779 c 0
 485 779 362 721 327 697 c 2
 293 674 l 1
 271 684 l 2
 250 693 239 712 239 734 c 0
 239 752 246 771 261 787 c 0
 278 806 347 842 420 872 c 2
 454 885 l 1
 429 920 l 2
 416 939 395 960 385 965 c 0
 375 970 360 986 354 998 c 2
 343 1019 l 1
 356 1043 l 1
 370 1066 l 1
 394 1069 l 2
 396 1069 399 1070 402 1070 c 0
 416 1070 434 1066 446 1061 c 2
 471 1050 l 1
 512 996 l 2
 535 966 556 940 559 936 c 2
 564 928 l 1
 628 946 l 2
 663 956 716 967 745 970 c 2
 796 976 l 1
 818 961 l 1
 841 946 l 1
 841 921 l 2
 841 892 823 868 794 863 c 0
 784 861 741 854 700 847 c 0
 673 842 623 834 623 827 c 0
 623 818 627 788 634 756 c 2
 648 686 l 1
 648 602 l 2
 648 505 637 433 605 334 c 2
 583 263 l 1
 544 204 l 2
 497 133 459 99 369 48 c 2
 302 9 l 1
 243 6 l 2
 236 6 228 5 221 5 c 0
 195 5 169 8 159 11 c 0
EndSplineSet
EndChar

StartChar: Ccedilla
Encoding: 199 199 178
Width: 763
VWidth: 1135
Flags: HW
LayerCount: 2
Fore
SplineSet
330 -299 m 2
 295 -287 l 1
 280 -260 l 1
 265 -233 l 1
 280 -206 l 1
 296 -178 l 1
 345 -177 l 2
 420 -175 430 -174 430 -164 c 0
 430 -149 395 -142 369 -152 c 2
 345 -160 l 1
 316 -152 l 2
 257 -135 246 -84 276 45 c 2
 278 51 l 1
 168 110 96 208 44 360 c 2
 22 425 l 1
 22 489 l 2
 21 612 58 694 152 780 c 2
 209 833 l 1
 293 873 l 1
 376 913 l 1
 441 924 l 2
 467 929 492 931 516 931 c 0
 616 931 696 892 725 825 c 2
 739 792 l 1
 729 766 l 2
 721 742 694 725 670 725 c 0
 666 725 661 726 657 727 c 0
 649 730 629 746 615 763 c 2
 589 794 l 1
 523 795 l 1
 458 796 l 1
 412 782 l 2
 298 745 192 657 166 581 c 2
 154 543 l 1
 159 474 l 1
 163 404 l 1
 196 334 l 2
 214 295 241 250 254 232 c 2
 279 199 l 1
 343 167 l 2
 378 150 435 131 470 125 c 2
 534 113 l 1
 566 129 l 2
 584 138 613 146 629 146 c 2
 657 146 l 1
 675 120 l 1
 692 94 l 1
 682 66 l 1
 673 38 l 1
 627 16 l 2
 588 -4 547 -13 509 -13 c 0
 498 -13 488 -13 478 -11 c 0
 449 -7 423 -2 397 5 c 1
 393 -11 l 1
 434 -23 l 2
 493 -41 524 -67 549 -118 c 2
 571 -163 l 1
 560 -198 l 2
 545 -244 501 -279 437 -298 c 0
 377 -316 376 -316 330 -299 c 2
EndSplineSet
EndChar

StartChar: AE
Encoding: 198 198 179
Width: 1240
VWidth: 1036
Flags: HW
LayerCount: 2
Fore
SplineSet
63 25 m 0
 40 36 18 74 18 102 c 0
 18 111 30 132 44 149 c 0
 75 186 154 343 165 388 c 0
 169 404 179 425 187 434 c 0
 207 457 278 621 326 756 c 2
 366 869 l 1
 387 886 l 1
 409 905 l 1
 443 905 l 1
 478 905 l 1
 493 871 l 2
 500 856 519 781 543 687 c 1
 543 749 540 799 537 808 c 2
 529 827 l 1
 541 852 l 1
 553 878 l 1
 585 891 l 1
 619 905 l 1
 773 914 l 2
 857 919 984 923 1057 923 c 2
 1190 923 l 1
 1204 903 l 2
 1212 892 1218 869 1218 854 c 2
 1218 827 l 1
 1196 810 l 1
 1172 795 l 1
 1085 795 l 2
 1037 795 927 790 842 783 c 2
 687 770 l 1
 682 749 l 2
 679 738 675 685 675 633 c 2
 675 538 l 1
 734 546 l 2
 767 550 817 553 847 553 c 2
 903 554 l 1
 922 530 l 2
 934 514 941 501 941 487 c 0
 941 473 934 460 922 448 c 2
 904 428 l 1
 833 422 l 2
 794 418 742 412 718 409 c 2
 675 403 l 1
 675 265 l 1
 675 126 l 1
 739 133 l 2
 774 136 866 142 944 146 c 2
 1085 153 l 1
 1106 135 l 1
 1126 116 l 1
 1126 86 l 1
 1126 58 l 1
 1106 38 l 1
 1084 19 l 1
 954 13 l 2
 882 10 783 4 732 1 c 2
 640 -5 l 1
 603 12 l 1
 566 28 l 1
 554 54 l 1
 542 79 l 1
 542 113 l 1
 532 126 l 1
 514 229 l 1
 496 331 l 1
 418 329 l 2
 375 328 327 325 312 322 c 2
 284 316 l 1
 242 234 l 2
 218 189 185 126 169 93 c 2
 138 32 l 1
 113 23 l 2
 99 18 87 14 86 14 c 0
 85 14 75 19 63 25 c 0
458 471 m 0
 458 475 448 512 438 551 c 2
 420 623 l 1
 409 597 l 2
 403 583 389 550 377 522 c 0
 365 494 355 470 355 468 c 0
 355 466 378 464 407 464 c 0
 436 464 458 467 458 471 c 0
EndSplineSet
EndChar

StartChar: oe
Encoding: 189 339 180
Width: 1125
VWidth: 796
Flags: HW
LayerCount: 2
Fore
SplineSet
213 11 m 2
 101 52 48 114 28 230 c 0
 23 256 21 279 21 301 c 0
 21 346 31 385 55 434 c 2
 82 489 l 1
 140 527 l 1
 199 565 l 1
 257 579 l 1
 314 593 l 1
 377 575 l 2
 434 559 501 523 541 488 c 1
 572 532 619 571 676 600 c 2
 723 624 l 1
 830 624 l 1
 938 624 l 1
 974 602 l 2
 993 591 1018 565 1028 546 c 2
 1047 511 l 1
 1041 456 l 1
 1036 401 l 1
 1009 366 l 2
 957 298 899 274 735 256 c 2
 635 245 l 1
 658 209 l 2
 671 190 700 165 722 154 c 2
 761 133 l 1
 829 146 l 2
 866 153 925 173 960 189 c 0
 1001 208 1030 218 1051 218 c 0
 1068 218 1079 212 1090 200 c 0
 1101 187 1106 173 1106 159 c 0
 1106 147 1102 134 1093 121 c 0
 1070 89 958 37 869 19 c 0
 822 10 798 5 776 5 c 0
 755 5 737 10 706 18 c 0
 639 36 583 81 544 146 c 1
 536 133 528 121 520 111 c 2
 482 62 l 1
 430 34 l 1
 378 5 l 1
 319 0 l 1
 258 -5 l 1
 213 11 l 2
366 152 m 2
 412 175 l 1
 447 243 l 1
 481 311 l 1
 474 347 l 1
 467 383 l 1
 444 390 l 2
 432 394 407 409 391 421 c 0
 362 443 341 452 316 452 c 0
 303 452 289 449 273 445 c 2
 230 434 l 1
 194 400 l 1
 156 366 l 1
 158 297 l 2
 159 259 164 216 171 200 c 2
 183 171 l 1
 226 150 l 2
 253 137 273 130 294 130 c 0
 316 130 337 137 366 152 c 2
841 406 m 0
 860 412 885 423 895 432 c 2
 913 449 l 1
 910 469 l 1
 907 490 l 1
 846 494 l 2
 841 494 836 494 830 494 c 0
 799 494 764 490 747 485 c 0
 707 473 636 415 636 393 c 2
 636 381 l 1
 720 387 l 2
 766 391 822 400 841 406 c 0
EndSplineSet
EndChar

StartChar: ordmasculine
Encoding: 186 186 182
Width: 418
Flags: HW
LayerCount: 2
Fore
SplineSet
209 583 m 2
 188 607 174 642 174 668 c 0
 174 675 175 682 177 687 c 2
 182 701 l 1
 171 697 l 2
 152 691 139 654 139 608 c 0
 139 584 142 562 145 559 c 0
 148 556 170 553 193 553 c 2
 236 553 l 1
 209 583 l 2
95 460 m 2
 79 471 58 493 47 509 c 2
 27 538 l 1
 27 591 l 2
 27 660 47 726 79 763 c 2
 105 793 l 1
 145 806 l 2
 170 815 190 819 209 819 c 0
 230 819 250 814 279 803 c 0
 354 775 391 724 391 652 c 2
 391 608 l 1
 376 578 l 2
 368 562 349 532 335 511 c 2
 309 474 l 1
 274 457 l 1
 238 441 l 1
 181 441 l 1
 124 441 l 1
 95 460 l 2
EndSplineSet
EndChar

StartChar: periodcentered
Encoding: 183 183 184
Width: 214
Flags: HW
LayerCount: 2
Fore
SplineSet
86 339 m 0
 58 349 31 387 31 416 c 0
 31 428 43 453 57 470 c 2
 84 502 l 1
 118 502 l 1
 152 502 l 1
 168 479 l 2
 177 467 184 440 184 420 c 2
 184 382 l 1
 162 362 l 2
 141 343 125 334 109 334 c 0
 102 334 94 336 86 339 c 0
EndSplineSet
EndChar

StartChar: uni00AD
Encoding: 173 173 185
Width: 539
Flags: HW
LayerCount: 2
Fore
SplineSet
129 366 m 0
 81 376 51 394 38 420 c 2
 24 446 l 1
 34 467 l 2
 40 478 51 493 60 500 c 0
 70 508 91 512 111 512 c 0
 130 512 147 508 151 501 c 2
 158 489 l 1
 315 498 l 1
 473 505 l 1
 494 486 l 1
 513 468 l 1
 513 440 l 1
 513 413 l 1
 494 395 l 1
 474 378 l 1
 379 369 l 2
 323 364 261 361 211 361 c 0
 174 361 144 363 129 366 c 0
EndSplineSet
EndChar

StartChar: logicalnot
Encoding: 172 172 186
Width: 967
Flags: HW
LayerCount: 2
Fore
SplineSet
68 415 m 0
 59 418 45 433 38 446 c 2
 25 470 l 1
 39 498 l 2
 47 513 61 529 71 534 c 0
 81 539 265 544 480 546 c 2
 862 549 l 2
 863 549 863 549 864 549 c 2
 871 549 l 1
 891 549 l 1
 914 527 l 1
 934 517 l 1
 938 503 l 1
 943 497 l 1
 941 486 l 2
 942 483 942 480 942 477 c 0
 942 468 940 459 936 451 c 0
 933 427 931 381 931 342 c 2
 931 262 l 1
 910 242 l 2
 897 229 883 222 870 222 c 0
 855 222 839 231 823 247 c 2
 798 272 l 1
 798 390 l 1
 798 416 l 1
 673 413 461 411 297 411 c 0
 171 411 75 412 68 415 c 0
EndSplineSet
EndChar

StartChar: macron
Encoding: 175 175 187
Width: 967
Flags: HW
LayerCount: 2
Fore
SplineSet
68 675 m 0
 59 678 45 693 38 706 c 2
 25 730 l 1
 39 758 l 2
 47 773 61 789 71 794 c 0
 81 799 265 804 480 806 c 2
 871 809 l 1
 902 793 l 1
 934 777 l 1
 940 753 l 2
 941 748 942 743 942 738 c 0
 942 711 924 685 900 680 c 0
 879 675 531 672 292 672 c 0
 169 672 74 673 68 675 c 0
EndSplineSet
EndChar

StartChar: plusminus
Encoding: 177 177 188
Width: 690
Flags: HW
LayerCount: 2
Fore
SplineSet
290 167 m 2
 265 193 l 1
 265 259 l 1
 265 326 l 1
 237 321 l 2
 222 318 179 314 142 312 c 2
 77 308 l 1
 48 337 l 1
 21 365 l 1
 26 386 l 2
 29 397 41 415 51 424 c 2
 70 441 l 1
 144 446 l 2
 185 448 230 453 242 456 c 2
 265 460 l 1
 265 562 l 1
 265 666 l 1
 291 691 l 1
 316 717 l 1
 340 711 l 2
 352 707 370 694 380 683 c 2
 398 663 l 1
 398 570 l 1
 398 478 l 1
 457 485 l 2
 490 488 535 497 560 503 c 2
 604 514 l 1
 630 502 l 2
 655 490 668 467 668 444 c 0
 668 425 659 405 640 393 c 0
 618 380 540 362 446 351 c 2
 398 346 l 1
 398 264 l 1
 398 183 l 1
 378 163 l 2
 376 161 374 159 372 157 c 1
 385 158 l 1
 543 165 l 1
 564 146 l 1
 583 128 l 1
 583 100 l 1
 583 73 l 1
 564 55 l 1
 544 38 l 1
 449 29 l 2
 393 24 331 21 281 21 c 0
 244 21 214 23 199 26 c 0
 151 36 121 54 108 80 c 2
 94 106 l 1
 104 127 l 2
 110 138 121 153 130 160 c 0
 140 168 161 172 181 172 c 0
 200 172 217 168 221 161 c 2
 228 149 l 1
 306 153 l 1
 301 157 295 162 290 167 c 2
EndSplineSet
EndChar

StartChar: questiondown
Encoding: 191 191 189
Width: 567
Flags: HW
LayerCount: 2
Fore
SplineSet
238 460 m 4
 246 457 265 444 277 433 c 6
 300 412 l 5
 300 383 l 5
 300 353 l 5
 275 328 l 6
 259 312 243 304 228 304 c 4
 215 304 202 310 188 321 c 6
 166 340 l 5
 159 381 l 5
 154 423 l 5
 182 445 l 6
 201 460 208 466 217 466 c 4
 222 466 229 463 238 460 c 4
218 267 m 6
 270 243 288 224 306 169 c 6
 322 119 l 5
 311 85 l 6
 305 66 271 8 238 -44 c 6
 179 -138 l 5
 168 -190 l 6
 162 -218 156 -250 156 -260 c 6
 156 -280 l 5
 192 -306 l 5
 228 -334 l 5
 276 -327 l 5
 325 -320 l 5
 356 -286 l 6
 389 -251 412 -192 412 -141 c 6
 412 -110 l 5
 431 -92 l 6
 443 -81 457 -75 471 -75 c 4
 498 -75 524 -96 535 -131 c 6
 546 -166 l 5
 534 -215 l 6
 498 -362 414 -442 273 -460 c 6
 220 -467 l 5
 166 -443 l 6
 99 -412 49 -364 33 -315 c 6
 21 -278 l 5
 33 -202 l 6
 48 -106 62 -73 133 33 c 6
 190 119 l 5
 177 134 l 6
 170 142 151 149 136 149 c 4
 99 149 74 174 74 212 c 6
 74 241 l 5
 98 257 l 6
 111 265 136 274 152 277 c 6
 182 282 l 5
 218 267 l 6
EndSplineSet
EndChar

StartChar: exclamdown
Encoding: 161 161 190
Width: 227
Flags: HW
LayerCount: 2
Fore
SplineSet
145 440 m 6
 181 427 l 5
 194 400 l 5
 207 372 l 5
 201 348 l 6
 198 335 182 310 167 295 c 6
 138 268 l 5
 105 267 l 5
 72 266 l 5
 52 286 l 5
 32 306 l 5
 26 358 l 5
 20 409 l 5
 49 432 l 6
 67 446 78 452 94 452 c 4
 107 452 122 448 145 440 c 6
142 214 m 4
 154 209 169 193 175 179 c 6
 186 151 l 5
 184 -120 l 5
 181 -392 l 5
 193 -412 l 5
 205 -434 l 5
 193 -457 l 6
 186 -470 172 -486 163 -492 c 6
 146 -503 l 5
 118 -493 l 6
 103 -488 81 -471 69 -455 c 6
 48 -426 l 5
 49 -125 l 5
 50 177 l 5
 67 196 l 6
 82 213 97 220 114 220 c 4
 123 220 132 218 142 214 c 4
EndSplineSet
EndChar
